<svg xmlns="http://www.w3.org/2000/svg" xml:space="preserve" id="Layer_1" x="0" y="0" version="1.1" viewBox="0 0 389 292"><style>.st0{fill:#fed820}.st1{fill:#f5af08}</style><path d="M34.5 147V84.9l22.6-.1v62.4z" class="st0"/><path d="m120 84.8 105.1.2.2-35.1v-8.5c0-1.5-.2-3.2 0-4.7.2-1.3.9-2.3 1.8-3.2.7-.7 1.6-1.1 2.6-1.1 1.4 0 3 1.1 4 2L249 48.6l15.2 14 56.1 52.1 27.5 25.2 5.3 4.9c.6.6 1.5 1.1 2.1 1.8.1.1.2.3.3.5-.4.5-.7.6-1.3.8-.2.7-.9 1.1-1.4 1.6l-63.9 58-9 7.7-27.8 25.1-14.1 12.5c-2.2 2-5 5.2-7.7 6.5-.7.4-1.7.4-2.4.1-1-.3-1.9-1.2-2.3-2.1-1-2.3-.6-6.2-.5-8.7v-12.8l-.1-28.2-84.5-.3c-1.9.2-4 .1-5.9.1l-10.3.1-37.6-.1H59.4c-7.3.1-14.8.5-22-.1h-3l.1-60.3 22.7.1V84.7h21z" class="st0"/><path d="M77.7 147c2.8 0 20-.5 21.2.2l-.1 60.1H77.4zM34.5 147l22.7.1-.1 60.1H44.6c-2.3 0-4.9-.2-7.2 0h-3z" class="st1"/><path d="M57.2 84.7H120c-.8 1.3-.4 12.9-.4 15.4l.1 46.7c-1.6.3-3.5.1-5.1.1h-9.8c-2 0-3.9-.1-5.8.1l-.2-62-20.7-.1c-.5.7-.4 1.6-.4 2.5V94l-.2 53-20.3.2z" style="fill:#fdec85"/><path d="M119.8 147c2-.2 4.2 0 6.2 0l13 .1 37.3.1h129.5l41.4.1c1.9 0 5.4-.7 7 .1l.1.4c-.2.7-.9 1.1-1.4 1.6l-63.9 58-9 7.7-27.8 25.1-14.2 12.6c-2.2 2-5 5.2-7.7 6.5-.7.4-1.7.4-2.4.1-1-.3-1.9-1.2-2.3-2.1-1-2.3-.6-6.2-.5-8.7v-12.8l-.1-28.2-84.5-.3c-2.3-.3-4.7-.1-7-.1l-13.9.1z" class="st1"/></svg>