<?xml version="1.0" encoding="utf-8"?>
<!-- Generator: Adobe Illustrator 26.1.0, SVG Export Plug-In . SVG Version: 6.00 Build 0)  -->
<svg version="1.1" id="Layer_1" xmlns="http://www.w3.org/2000/svg" xmlns:xlink="http://www.w3.org/1999/xlink" x="0px" y="0px"
	 viewBox="0 0 389 292" style="enable-background:new 0 0 389 292;" xml:space="preserve">
<style type="text/css">
	.st0{fill:#FED820;}
	.st1{fill:#F5AF08;}
	.st2{fill:#FDEC85;}
</style>
<path class="st0" d="M34.5,147l0-62.1l22.6-0.1l0,62.4L34.5,147z"/>
<path class="st0" d="M120,84.8L225.1,85l0.2-35.1l0-8.5c0-1.5-0.2-3.2,0-4.7c0.2-1.3,0.9-2.3,1.8-3.2c0.7-0.7,1.6-1.1,2.6-1.1
	c1.4,0,3,1.1,4,2L249,48.6l15.2,14l56.1,52.1l27.5,25.2l5.3,4.9c0.6,0.6,1.5,1.1,2.1,1.8c0.1,0.1,0.2,0.3,0.3,0.5
	c-0.4,0.5-0.7,0.6-1.3,0.8c-0.2,0.7-0.9,1.1-1.4,1.6l-63.9,58l-9,7.7l-27.8,25.1L238,252.8c-2.2,2-5,5.2-7.7,6.5
	c-0.7,0.4-1.7,0.4-2.4,0.1c-1-0.3-1.9-1.2-2.3-2.1c-1-2.3-0.6-6.2-0.5-8.7l0-12.8l-0.1-28.2l-84.5-0.3c-1.9,0.2-4,0.1-5.9,0.1
	l-10.3,0.1l-37.6-0.1l-27.3,0c-7.3,0.1-14.8,0.5-22-0.1l-3,0l0.1-60.3l22.7,0.1l0-62.4l21,0L120,84.8z"/>
<path class="st1" d="M77.7,147c2.8,0,20-0.5,21.2,0.2l-0.1,60.1l-21.4,0L77.7,147z"/>
<path class="st1" d="M34.5,147l22.7,0.1l-0.1,60.1l-12.5,0c-2.3,0-4.9-0.2-7.2,0l-3,0L34.5,147z"/>
<path class="st2" d="M57.2,84.7l21,0l41.8,0c-0.8,1.3-0.4,12.9-0.4,15.4l0.1,46.7c-1.6,0.3-3.5,0.1-5.1,0.1l-9.8,0
	c-2,0-3.9-0.1-5.8,0.1l-0.2-62l-20.7-0.1c-0.5,0.7-0.4,1.6-0.4,2.5L77.7,94l-0.2,53l-20.3,0.2L57.2,84.7z"/>
<path class="st1" d="M119.8,147c2-0.2,4.2,0,6.2,0l13,0.1l37.3,0.1l129.5,0l41.4,0.1c1.9,0,5.4-0.7,7,0.1l0.1,0.4
	c-0.2,0.7-0.9,1.1-1.4,1.6l-63.9,58l-9,7.7l-27.8,25.1L238,252.8c-2.2,2-5,5.2-7.7,6.5c-0.7,0.4-1.7,0.4-2.4,0.1
	c-1-0.3-1.9-1.2-2.3-2.1c-1-2.3-0.6-6.2-0.5-8.7l0-12.8l-0.1-28.2l-84.5-0.3c-2.3-0.3-4.7-0.1-7-0.1l-13.9,0.1L119.8,147z"/>
</svg>
