<svg xmlns="http://www.w3.org/2000/svg" xml:space="preserve" viewBox="0 0 30 30"><path d="M24.4 7.3c-.5-1.8-1.5-3.4-2.9-4.6C18.1-.6 12.8-.9 9 2c-.5.4-1.1.9-1.5 1.5C5.3 6.1 4.7 9.8 5.9 13s4.2 5.5 7.5 6v3.6H9.6c-.1 0-.3 0-.4.1-.2.1-.2.3-.2.5V25c0 .2 0 .4.1.5s.3.1.4.1h3.8v3.8c0 .1 0 .3.1.4.2.2.4.2.6.2h1.8c.2 0 .4 0 .5-.1s.1-.3.1-.4v-3.8h3.8c.2 0 .4 0 .5-.2.1-.1.1-.3.1-.4v-1.9c0-.2 0-.4-.1-.5s-.3-.1-.4-.1h-3.8V19c2.6-.5 5-2 6.5-4.2 1.2-1.8 1.9-4 1.7-6.2-.1-.5-.2-.9-.3-1.3m-2.2 2.6c-.1 4.2-4.2 7.5-8.3 6.9-3.6-.5-6.3-3.7-6.3-7.3 0-1.5.5-3.1 1.4-4.3 2.5-3.3 6.9-3.8 10.5-1.3 1.9 1.2 2.8 3.7 2.7 6" style="fill:#f2369e"/></svg>