<svg xmlns="http://www.w3.org/2000/svg" xml:space="preserve" id="Layer_1" x="0" y="0" version="1.1" viewBox="0 0 40 40"><style>.st0{fill:#10153b}.st1{fill:#837c87}.st2{fill:#b7aaac}.st3{fill:#fec302}.st4{fill:#fb7d5f}.st5{fill:#e59002}.st7{fill:#d46f04}.st8{fill:#770b16}.st9{fill:#931017}.st10{fill:#c71418}.st11{fill:#fefefd}.st14{fill:#fa3d3a}</style><path d="M17.6 32.2c-.1-.1-.1-.3-.2-.4 0 0-.1-.1-.2-.1l-.6-.3-1.8-.9-2.1-1.1c-4.9-2.9-9.9-7.5-10.3-13.5-.1-1.3.1-2.5.4-3.7.2-.7.4-1.2.6-1.7.5-1 1.1-2 1.8-2.8C6.7 6 8.6 4.8 10.6 3.8l2.1-1.1c1-.5 1.9-1.1 3-1.4 1.3-.4 2.8-.3 4.1.1 1.1.3 2.2.8 3.1 1.6l.5.5.3.3h.1c.2-.1.3-.2.5-.2.7-.6 1.7-.7 2.7-.7.5 0 1 0 1.4.1 2.2.5 4.1 1.8 5.2 3.8 1.6 2.9 1.3 6.5.4 9.6-.4 1.4-1 2.8-1.7 4l1.2 2.1 1.3 2.1.9 1.4.5.7c.2.3.3.6.4.9.2.6.2 1.3.1 1.9-.4 1.4-1.7 2.4-2.8 3.3-1 .9-2.1 1.6-3.2 2.4L27.8 37l-1.7 1c-.7.3-1.3.7-2.1.9-.4.1-.9 0-1.3-.1-.7-.2-1.3-.6-1.8-1.1-.5-.6-.9-1.4-1.3-2z" class="st0"/><path d="m18.6 32.2-.2-.3 2.1-.6c.1.1.1.2.2.4-.6.2-1.4.4-2.1.5M20.3 35.2c.7-.1 1.4-.3 2.1-.5.1.1.2.3.2.4l-2 .5z" class="st1"/><path d="m22.1 30.6.8-.4c.1.1.1.3.2.4l-.7.4-1.6.7c-.1-.1-.1-.2-.2-.4zM24.9 33.6c.1.1.1.3.3.4l-2.5 1.1c0-.1-.1-.3-.2-.4l1.7-.7z" class="st2"/><path d="M25.6 7.2c.6-.5 1.3-.9 2-1.2.5-.2 1-.3 1.5-.4-.1.1-.3.1-.4.2l-.6.3c-.1 0-.2.1-.3.1-.1.1-.4.2-.5.4-.6.4-1.1 1-1.5 1.6-.1-.3-.1-.7-.2-1" class="st3"/><path d="m31.1 22.4.7-1 .8 1.3c-.3.4-.6.8-1 1.1-.1-.2-.1-.4-.2-.6z" class="st4"/><path d="M25.6 7.2c.1.3.1.7.2 1-.5.9-.9 1.9-1 2.9-.1-.1-.1-.2-.1-.3l-.3-1.2c0-.2 0-.4-.1-.5.2-.8.7-1.3 1.3-1.9" class="st5"/><path d="M34.4 28c.2-.2.4-.4.5-.7.1-.1.1-.3.2-.4.5.6.8 1.3.7 2.1v.1c-.2.8-.8 1.5-1.4 2l-1.3 1.1.4-.4c.5-.5 1-1.1 1.2-1.7.3-.6 0-1.4-.3-2.1" class="st4"/><path d="M29.5 5.6c-.2 0-.4 0-.6-.1-1.2-.1-2.3.2-3.4.8-.4-.7-.9-1.3-1.4-1.9l.4-.2c.4-.1.7-.2 1.1-.3.2.3.4.6.7.8.5.4 1.1.3 1.7.4.6 0 1.3.1 1.8.4 0 .1-.1.1-.3.1" class="st5"/><path d="m20.7 31.7 1.2 2.2.3.5c0 .1.1.2.2.3-.7.2-1.4.4-2.1.5l-1.7-3c.7-.1 1.5-.3 2.1-.5" style="fill:#bc5701"/><path d="m22.4 31 .8-.4 1.7 2.9-.8.5-1.7.7c-.1-.1-.1-.2-.2-.3l-.2-.5-1.2-2.2z" class="st7"/><path d="m22.4 31 .8-.4 1.7 2.9-.8.5-1.3-2.2c-.2-.3-.3-.5-.4-.8" class="st5"/><path d="M24.8 17.7q1.5 3 3.6 5.4c.2.3.5.7.8.8.4.1.6-.1.9-.2-.2.4-.5.8-1 1-.3.1-.6.1-1 0-.1 0-.2-.1-.3-.1s-.3.1-.4.1c0-.2.2-.4.3-.5 0-.1.1-.1.1-.2v-.1c-1.2-.8-2-1.9-2.8-3.1L23.9 19c0-.2-.1-.3-.1-.5.1-.1.2-.1.3-.2.2-.2.4-.4.7-.6" class="st8"/><path d="M24.2 9.1c.1.1.1.3.1.5l.3 1.2c0 .1.1.2.1.3-.1 1.2.2 2.4.5 3.5.6 1.8 1.5 3.5 2.6 5.2l1.2 1.8c.2.2.3.4.5.5l.6-.7c0 .2 0 .5.1.7-.2.4-.5.7-.8 1.1l-1.1-1.3c-1-1.3-1.9-2.6-2.6-4-.5-1-1-1.9-1.4-2.9l-.5-1.6c-.1-.5-.3-1.1-.3-1.7.1-1.1.3-1.9.7-2.6" class="st7"/><path d="m27.7 35.9 1.3-.7.9-.5c.1-.1.3-.2.4-.2h.1c-.3.3-.7.5-1 .7l-2.8 1.7c-.7.4-1.5.9-2.3 1.2-.1-.1-.3-.1-.5 0-.7.1-1.3-.1-1.9-.6-.5-.4-.8-1-1.1-1.5.7-.1 1.3-.3 2-.5l2.4-1 .5.5c.4.3.9.6 1.3.8.3 0 .5 0 .7.1" class="st8"/><path d="m25.2 34.5.5.5c.4.3.9.6 1.3.8.2.1.4.1.6.2-.2.2-.5.3-.7.4-.7.4-1.5.8-2.3.7-.3 0-.6-.2-.9-.4q-.6-.45-.9-1.2z" class="st9"/><path d="m31.1 22.4.2.8c.1.2.1.4.2.6-.6.6-1.2 1.1-1.8 1.6-.9.7-1.9 1.4-2.9 2l-2.3 1.3-2 1c-.5-.5-1-.9-1.7-1.2.2 0 .3 0 .5-.1.8-.1 1.5-.4 2.2-.7s1.3-.7 1.9-1.1c.2-.1.4-.2.5-.4.1 0 .2-.1.3-.2.5-.3.8-.7 1.2-1.2.1 0 .3-.1.4-.1s.2 0 .3.1c.3.1.7.1 1 0 .4-.2.8-.6 1-1z" class="st10"/><path d="M25.7 3.9c1.9-.3 3.8.1 5.4 1.3 1.5 1.2 2.5 3 2.7 4.9q.3 2.4-.3 4.8c-.2.7-.3 1.4-.6 2.1-.2.7-.5 1.3-.8 2-.5 1-1 2.1-1.7 3-.1-.2-.1-.5-.1-.7l.3-.6.6-1.1c.7-1.5 1.4-3 1.7-4.7.3-1.5.4-3 .2-4.5-.1-.5-.2-1-.4-1.4l-.1-.3c-.5-1.3-1.4-2.6-2.7-3.1-.5-.3-1.2-.3-1.8-.4-.6 0-1.2 0-1.7-.4-.3-.3-.6-.6-.7-.9" class="st3"/><path d="M3.4 13.7c.1.1 0 .2 0 .3v.4l.2 1q.3 1.35.9 2.7c1.6 3.4 4.2 6.1 7.2 8.4 1.2.9 2.4 1.7 3.7 2.5l2.3 1.3c.5.2 1 .4 1.4.7l-1 .2c-.9-.4-1.8-.8-2.7-1.3-1.9-1-3.7-2-5.4-3.3q-2.4-1.8-4.2-4.2c-.2-.4-.5-.8-.8-1.3-1-1.7-1.7-3.6-1.7-5.5 0-.6.1-1.3.1-1.9" class="st7"/><path d="M34.4 28c.3.7.6 1.5.3 2.2s-.7 1.2-1.2 1.7l-.4.4-2.7 2h-.1c-.1 0-.3.1-.4.2l-.9.6-1.3.7c-.2-.1-.4-.1-.6-.2-.5-.2-1-.5-1.3-.8l-.5-.5c1.5-.7 3-1.5 4.4-2.4l1.6-1.1c.6-.5 1.2-.9 1.8-1.5.4-.3.9-.8 1.3-1.3" class="st10"/><path d="M23 30.2c2.9-1.4 5.7-3.1 8.1-5.3.6-.6 1.3-1.2 1.7-1.9l2.4 3.8c-.6.8-1.4 1.4-2.1 2.1-1.4 1.2-2.9 2.3-4.4 3.2-1.1.7-2.2 1.3-3.4 1.9-.1-.1-.2-.3-.3-.4l-1.7-2.9c-.2-.1-.3-.4-.3-.5" class="st11"/><path d="M30.9 25.6c.5-.4 1-.9 1.4-1.4l1.8 2.9-1.4 1.4c-.2-.2-.3-.4-.4-.6l-1-1.6c-.1-.2-.2-.5-.4-.7" class="st3"/><path d="m28.3 27.7 2.6-2.1c.2.2.3.4.4.6l1 1.6c.1.2.3.4.4.6-.5.5-1.1.9-1.7 1.4-.3.2-.6.5-1 .7z" style="fill:#fae38a"/><path d="m28.3 27.7 1.8 2.8-5.2 3-1.7-2.9c.5-.2 1.1-.5 1.6-.8 1.2-.6 2.4-1.3 3.5-2.1" class="st3"/><path d="M3.4 13.7c0-.5.2-1.1.3-1.6.5-1.4 1.2-2.7 2.3-3.8 0 .3-.2.5-.2.8-.1.5-.2 1.1-.3 1.6v1.1c0 2.8 1.1 5.6 2.9 7.8.8 1 1.6 1.9 2.6 2.7 1.5 1.3 3.2 2.4 5 3.3 1.3.6 2.7 1.1 4.2 1.3 1.1.1 2.2-.1 3.2-.5l1.1-.4.3.7.8-.3c.2-.1.3-.2.5-.2-.1.2-.3.3-.5.4-.6.4-1.3.8-1.9 1.1-.7.3-1.4.6-2.2.7-.2 0-.3 0-.5.1.7.3 1.2.7 1.7 1.2l-.6.3-1.5.5c-.4.1-.8.3-1.3.4-.4-.3-1-.5-1.4-.7l-2.3-1.3c-1.3-.8-2.5-1.6-3.7-2.5-3-2.3-5.6-4.9-7.2-8.4-.4-.8-.7-1.8-.9-2.7l-.2-1v-.4c-.1 0-.1-.1-.2-.2" class="st8"/><linearGradient id="SVGID_1_" x1="6.758" x2="1.099" y1="47.977" y2="47.134" gradientTransform="matrix(1.4745 0 0 -1.4745 23.486 83.94)" gradientUnits="userSpaceOnUse"><stop offset="0" style="stop-color:#c00e14"/><stop offset="1" style="stop-color:#961516"/></linearGradient><path d="M29.5 5.6h.4c1.3.6 2.2 1.8 2.7 3.1l.1.3c.2.5.3.9.3 1.4.2 1.5.1 3.1-.2 4.5-.4 1.6-1 3.2-1.7 4.7l-.6 1.1c-.1.2-.3.4-.3.6l-.6.7c-.2-.2-.4-.3-.5-.5-.5-.6-.8-1.2-1.2-1.8-1-1.6-1.9-3.3-2.6-5.2-.4-1.1-.7-2.3-.5-3.5.1-1 .5-2 1-2.9.4-.6.9-1.2 1.5-1.6.1-.1.4-.3.5-.4s.2-.1.3-.1l.6-.3c.1-.1.3-.1.4-.2.1.1.3.1.4.1" style="fill:url(#SVGID_1_)"/><path d="M27.3 6.6c.1-.1.4-.3.5-.4-.1.2-.2.4-.3.5l-.3.6c-.2.4-.4.9-.5 1.4-.2 1.3.1 2.6.6 3.7.4 1 1 2 1.8 2.7.2.2.5.5.8.6.2.1.5.1.7 0 .7-.3 1.2-1 1.5-1.7.2-.4.3-.9.3-1.4.1-.8.3-1.6.3-2.5V8.7c.2.5.3.9.3 1.4v1.7c-.1 1.2-.3 2.4-.7 3.6-.2.6-.5 1.3-.8 1.8-.2.4-.6.9-1 1s-.7-.1-1-.3c-.4-.3-.8-.6-1.2-1-1.2-1.3-1.9-2.8-2.3-4.4-.3-1.6-.3-3.3.5-4.7.1-.2.3-.5.4-.7s.3-.3.4-.5" class="st10"/><path d="M29.5 5.6h.4c1.3.6 2.2 1.8 2.7 3.1l.1.3c-.1.2 0 .4 0 .6v.8c0 .8-.1 1.7-.3 2.5-.1.5-.2.9-.3 1.4-.3.7-.8 1.4-1.5 1.7-.2.1-.5.1-.7 0-.3-.1-.6-.4-.8-.6-.8-.8-1.3-1.8-1.8-2.7-.5-1.2-.9-2.5-.6-3.7.1-.5.3-.9.5-1.4l.3-.6c.1-.2.3-.4.3-.5.1-.1.2-.1.3-.1l.6-.3c.1-.1.3-.1.4-.2.1-.3.3-.3.4-.3" class="st14"/><path d="M29.5 7h.2c.2 0 .5.3.6.5.3.4.5.9.6 1.4.2.5.3 1.1.4 1.6 0 .2.1.5 0 .7 0 .2-.1.2-.2.3-.2-.1-.4-.3-.5-.5-.2-.2-.3-.5-.5-.8-.3-.6-.6-1.2-.8-1.9-.1-.3-.1-.6-.1-.9.1-.2.2-.3.3-.4" class="st11"/><path d="M6 8.3c.7-.9 1.7-1.6 2.6-2.3.4-.2.7-.5 1.1-.7-.1.2-.2.4-.4.5-.1.2-.3.4-.4.6C8 8.1 8 10.2 8.5 12c.7 2.6 2.5 4.9 4.8 6.2 2.3 1.4 4.9 1.8 7.5 1.3.2 0 .4-.1.7-.1.3.4.5.9.7 1.4.8 1.7 1.5 3.5 2.2 5.2l-1.1.4c-1 .3-2.1.6-3.2.5-1.5-.2-2.9-.7-4.2-1.3-1.8-.9-3.5-2-5-3.3-.9-.8-1.8-1.7-2.6-2.7-1.8-2.2-2.8-5-2.9-7.8v-1.1c0-.5.1-1.1.3-1.6.1-.3.2-.6.3-.8" class="st10"/><path d="M9.7 5.3c.6-.5 1.4-.8 2-1.2L13.9 3c.7-.4 1.4-.8 2.1-.9.8-.2 1.7-.2 2.6 0 2.3.3 4.2 1.8 5.5 3.7.2.3.5.7.7 1.1 0 .1-.1.1-.1.1l-.6.7c-1 1.4-1.6 3-1.3 4.7.1.5.2 1 .4 1.6.4 1.3.9 2.6 1.6 3.8-.2.2-.5.4-.7.6-.1.1-.2.2-.3.2 0 .2.1.3.1.5l1.2 1.8c.8 1.2 1.6 2.3 2.8 3.1v.1c0 .1-.1.1-.1.2-.1.1-.3.3-.3.5-.4.5-.7.9-1.2 1.2-.1.1-.2.1-.3.2-.2.1-.3.1-.5.2l-.8.3-.3-.7c-.6-1.8-1.3-3.5-2.2-5.2-.2-.4-.4-.9-.7-1.4-.2.1-.4.1-.7.1-2.6.5-5.3.1-7.5-1.3-2.3-1.3-4.2-3.6-4.8-6.2-.5-1.8-.5-3.9.4-5.6.1-.2.3-.4.4-.6.2-.1.3-.3.4-.5" class="st14"/><path d="M17.7 2.6c1.2 0 2.3.3 3.3 1 .5.4 1 .8 1.5 1.3.2.3.5.6.5.9 0 .2 0 .4-.1.6-.1.1-.3.2-.5.2-.3 0-.6-.2-.8-.4-.3-.3-.6-.7-.9-1-1.1-1-2.3-1.7-3.7-2.2l-1.2-.3s.2 0 .3-.1c.5.1 1.1 0 1.6 0" class="st11"/><path d="M23.5 18.5c-.2-.2-.3-.4-.4-.6-.8-1.1-1.4-2.4-1.9-3.7-.5-1.5-.6-3 .1-4.5.5-1.1 1.3-1.8 2.3-2.4.3-.2.7-.4 1-.5l-.6.7h-.1c-.1 0-.2.1-.2.2l-.5.5c-.2.3-.5.6-.7.9-.5.9-.8 2-.7 3 .1 1.5.6 2.9 1.2 4.2l.5 1.2c.1.2.2.4.2.6v.1z" class="st10"/><path d="M23.7 18.3c0-.2-.2-.4-.2-.6l-.5-1.2c-.6-1.3-1-2.8-1.2-4.2-.1-1.1.2-2.1.7-3 .2-.3.4-.6.7-.9.2-.2.3-.4.5-.5l.2-.2h.1c-1 1.4-1.6 3-1.3 4.7.1.5.2 1 .4 1.6.4 1.3.9 2.6 1.6 3.8-.2.2-.5.4-.7.6-.1.1-.2.2-.3.2.1-.1 0-.2 0-.3" class="st9"/><path d="m21.6 19.4-2-3.6-1.2-2c-.1-.2-.3-.5-.3-.7l4.3 6.1c.1 0 .2-.1.3-.1.3-.1.6-.2.8-.4l-.1-.1.1.1v-.1.2c0 .2.1.3.1.5l1.2 1.8c.8 1.2 1.6 2.3 2.8 3.1v.1c0 .1-.1.1-.1.2-.1.1-.3.3-.3.5-.4.5-.7.9-1.2 1.2-.1.1-.2.1-.3.2-.2.1-.3.1-.5.2l-.8.3V26c-.6-1.8-1.3-3.5-2.2-5.2-.2-.5-.4-1-.6-1.4" class="st0"/><path d="M23.7 18.3v.2c0 .2.1.3.1.5l1.2 1.8c.8 1.2 1.6 2.3 2.8 3.1v.1c-.6.4-1.2.9-1.9 1.2l-3.5-6.1c.1 0 .2-.1.3-.1.3-.1.6-.2.8-.4l-.1-.1.1.1c.2-.2.2-.2.2-.3" class="st10"/><path d="M23.8 18.5c0 .2.1.3.1.5-.1-.1-.2-.3-.3-.4z" class="st9"/></svg>