<svg xmlns="http://www.w3.org/2000/svg" xml:space="preserve" id="Layer_1" x="0" y="0" version="1.1" viewBox="0 0 40 40"><style>.st0{fill:#fdc94d}.st2{fill:#f8ae26}.st4{fill:#c15d07}.st5{fill:#e28415}</style><path d="M3.9 23c.4.4.8.7 1.3.9-.2.2-.3.5-.4.7-.3.6-.6 1.2-.8 1.9-.1.4-.2.8-.3 1.1L2.5 27c.1-1 .4-2 .8-2.9.2-.4.4-.8.6-1.1" class="st0"/><path d="M3.9 23c.1-.3.3-.5.5-.7.6-.7 1.2-1.4 1.9-1.9l.5-.4.3-.2s.1 0 .1-.1v-.1l.1-.4.3-.8q.45-1.2 1.2-2.4c.8-1.2 1.9-2.3 3.1-3.2l.7-.5c.1-.1.3-.2.5-.3.1-.1.2-.3.3-.4l.6-.7 3.2-3.8c.4-.5.8-1 1.3-1.4.3-.3.7-.4 1.1-.5.6-.1 1.2 0 1.7.3-.1.3-.2.4-.3.5l-.5.5L17.9 9l-.7.7c-.1.1-.3.2-.3.4l-.3.3c-.2.1-.3.3-.4.5q-1.35 1.5-2.1 3.3c-.3.7-.5 1.4-.8 2.1-.1.1-.1.2-.2.3s-.2.3-.3.4c-.3.5-.6.9-1 1.4l-.6.6h-.1c-.8.7-1.7 1.2-2.6 1.8-1 .6-1.9 1.4-2.6 2.3-.2.2-.4.4-.5.7-.7-.1-1.1-.4-1.5-.8" style="fill:#fdd56e"/><path d="M11 19.1c-.2-.1-.3-.2-.5-.3-.1-.1-.3-.2-.4-.4-.2-.3-.3-.7-.3-1.1 0-.5.3-.9.7-1.1.3-.3.8-.4 1.2-.3.5.1.9.3 1.2.7-.1.1-.2.3-.3.4-.3.5-.6.9-1 1.4 0 .2-.6.7-.6.7 0 .1 0 0 0 0" class="st2"/><path d="M3.1 32h36.3c0 .8.1 1.6-.5 2.2-.2.2-.5.4-.8.5-.4.1-.8 0-1.2 0H2c-.4 0-.8-.2-1-.5l-.1-.1c-.2-.2-.3-.5-.4-.7-.1-.3 0-.7 0-1.1v-.2h1c.6-.1 1.1-.1 1.6-.1" style="fill:#a34101"/><path d="M.5 32.2V32h2.6L.9 34.1c-.2-.2-.3-.5-.4-.7z" class="st4"/><path d="M21.3 5.7c.2.1.4.3.6.4.3.3.5.5.7.8L24 8.6l1 1.1.4.4c-.1.1-.2.3-.4.4l-.6.6-2.1 2.1-4.9 4.8-3 2.9-1.8 1.8-1.1 1.1-.4.4h-.5l-1.5.1h-.4c-.1.2-.2.3-.4.4q-.3.15-.6 0c-.2-.1-.3-.2-.4-.4H7c-.6 0-1.2-.1-1.7-.3.1-.2.3-.5.5-.7.7-.9 1.7-1.7 2.6-2.3s1.8-1.1 2.6-1.8h.1s.6-.5.6-.6c.4-.4.7-.9 1-1.4.1-.1.2-.3.3-.4s.1-.2.2-.3c.4-.7.6-1.4.8-2.1q.75-1.8 2.1-3.3c.1-.2.3-.3.4-.5l.3-.3c.1-.1.2-.3.3-.4l.8-.9 2.6-2.6.5-.4z" class="st0"/><path d="M7.3 24.2q-.15-.3 0-.6c.1-.2.3-.3.5-.4s.4 0 .6.1.3.3.4.5v.5c-.1.2-.2.3-.4.4q-.3.15-.6 0c-.3-.1-.4-.3-.5-.5M11 19.2q0-.15 0 0c0-.1.5-.6.6-.6.4-.4.7-.9 1-1.4.1-.1.2-.3.3-.4.2.4.3.8.2 1.3-.1.3-.3.6-.5.8-.4.3-.8.4-1.3.4zM16.8 10.1q.45-.3.9-.3c.4 0 .8.2 1.1.5.2.2.3.5.4.8.1.4 0 .8-.3 1.1-.2.3-.6.5-1 .6h-.1c-.4 0-.8-.1-1.1-.3q-.6-.45-.6-1.2c0-.3.1-.7.3-1z" class="st5"/><path d="m37.6 27 1.9-1v6H3.1l2.2-2.1 1-1 1.3.5c1.4.4 2.9.6 4.4.4.8-.1 1.6-.3 2.3-.6.6-.3 1.1-.7 1.7-1 2.3-1.2 5.3-1.2 7.6 0 .4.2.7.5 1.1.7.5.3 1 .5 1.5.7 2.6.8 5.2.1 7.6-.9 1.4-.5 2.6-1.1 3.8-1.7" class="st4"/><path d="m25.3 10.1 1.2 1.4.4.5c.1.1.2.2.2.3.1.1.3.2.5.3l.8.5c1.3.9 2.4 2.1 3.2 3.4.4.7.8 1.4 1 2.2l.2.7c0 .1 0 .2.1.3 0 .1.3.2.3.3l.8.6c.5.4 1 .9 1.4 1.4s.7.9 1 1.5l.3.6c-.9 0-1.8-.1-2.6-.5-.4-.2-.7-.5-1-.7-.9-.6-2-1-3.1-.9-.9 0-1.8.3-2.5.8-.4.3-.7.5-1.1.8-.9.6-2.2.8-3.3.7-.8-.1-1.6-.3-2.3-.7-.3-.2-.6-.4-1-.7-.9-.6-1.8-.9-2.8-.9-.8 0-1.6.2-2.3.5-.5.2-.9.6-1.3.9-.5.3-1.1.5-1.7.7-.2 0-.5.1-.7.1l.4-.4 1.1-1.1 1.8-1.8 3-2.9 4.8-4.8 2.1-2.1.6-.6c.3-.1.4-.2.5-.4" class="st2"/><path d="M21.2 17.8c.2 0 .3 0 .5.1s.3.3.3.5 0 .4-.1.6-.3.3-.5.3c-.1 0-.2 0-.4-.1s-.3-.2-.4-.4v-.1c0-.2 0-.4.1-.6s.3-.3.5-.3M28.1 17.9c.2 0 .3 0 .5.1s.3.3.3.5 0 .4-.1.6q-.15.3-.6.3c-.2 0-.3 0-.5-.1s-.3-.3-.3-.5 0-.4.1-.5c.2-.2.4-.3.6-.4M24.8 13.3c.4 0 .9.1 1.2.3s.5.7.6 1.1q0 .6-.3 1.2c-.3.4-.6.6-1.1.6-.4 0-.8-.1-1.1-.3s-.6-.6-.6-1q-.15-.6.3-1.2c.1-.4.5-.7 1-.7M11.2 24.2c.2 0 .5 0 .7-.1.6-.1 1.2-.3 1.7-.7.5-.3.9-.6 1.3-.9.7-.4 1.5-.5 2.3-.5 1 0 2 .3 2.8.9.3.2.6.5 1 .7.7.4 1.5.6 2.3.7 1.1.1 2.4-.1 3.3-.7.4-.2.7-.5 1.1-.8.7-.5 1.7-.8 2.5-.8 1.1 0 2.2.3 3.1.9.3.2.7.5 1 .7.8.4 1.7.5 2.6.5.3.7.5 1.3.7 2.1l.1.5v.3c-1.2.6-2.4 1.2-3.6 1.7-2.4 1-5 1.7-7.6.9-.5-.2-1-.4-1.5-.7-.4-.2-.7-.5-1.1-.7-2.3-1.2-5.3-1.2-7.6 0-.6.3-1.1.7-1.7 1-.7.3-1.5.5-2.3.6-1.5.2-3 0-4.4-.4l-1.3-.5c-.2 0-.9.8-1 1L3.1 32H.5v.2-6.3l2 1.1 1.2.6c.1-.4.2-.8.3-1.1.2-.6.5-1.3.8-1.9.1-.2.3-.5.4-.7.5.2 1.2.3 1.7.3h.3c.1.2.2.3.4.4q.3.15.6 0c.2-.1.3-.2.4-.4H9l1.5-.1c.3.1.5 0 .7.1" class="st5"/><path d="M30 24h.5c.1 0 .2.1.4.1.3.2.5.5.6.8.1.4 0 .7-.2 1q-.3.45-.9.6h-.6c-.3-.1-.6-.3-.8-.6s-.2-.7-.1-1c0-.1.1-.2.2-.3q.3-.45.9-.6M15.7 24h.5c.1 0 .3.1.4.2.3.2.5.5.5.9.1.3-.1.7-.3 1s-.6.4-.9.5c-.3 0-.7-.1-.9-.3-.3-.2-.5-.5-.5-.8s0-.7.3-.9q.3-.6.9-.6" class="st4"/><path d="M5.2 23.9c.5.2 1.2.3 1.7.3h.3c.1.2.2.3.4.4q.3.15.6 0c.2-.1.3-.2.4-.4H9l1.5-.1h.5l-4.8 4.7-.6-.3-2-1c.1-.4.2-.8.3-1.1.2-.6.5-1.3.8-1.9.2-.1.4-.4.5-.6" class="st2"/></svg>