<svg xmlns="http://www.w3.org/2000/svg" xml:space="preserve" id="Layer_1" x="0" y="0" version="1.1" viewBox="0 0 30 30"><style>.st1{fill:#e399cf}.st2{fill:#4b004c}.st3{fill:#86146c}.st4{fill:#28616e}</style><path d="M2 12c0 .8 0 1.6.2 2.3.4 2.3 1.6 4.5 3.2 6.2 1.5 1.5 3.4 2.7 5.4 3.3.7.2 1.3.3 2 .4h.4l.7.1c.6.1 1.2.1 1.9 0 1.6-.1 3.2-.4 4.7-1 .7-.3 1.3-.6 1.9-1 .8-.5 1.6-1.1 2.2-1.7.4-.4.8-.8 1.1-1.2l.3-.3c0-.1.1-.2.2-.2.1-.1.2-.3.3-.4l.4-.7c.9-1.7 1.3-3.5 1.3-5.4 0 .1.1.2.1.4l.2 1.1c.2 1.5.3 3 .1 4.4-.1.8-.3 1.5-.6 2.3-.1.5-.4.9-.6 1.4-1.2 2.6-3.3 4.8-5.9 6.1s-5.5 1.8-8.4 1.4c-.7-.1-1.4-.2-2.1-.5-1.1-.3-2.1-.8-3-1.4-2.1-1.3-3.9-3.2-5-5.4-1.4-2.8-1.8-6.1-1.1-9.2 0-.2.1-.3.1-.5-.1-.2-.1-.3 0-.5" style="fill:#240015"/><path d="M2 12v-.6c0-.5.1-.9.2-1.4.6-2.5 2.1-4.9 4.1-6.5.5-.4 1.1-.8 1.6-1.2C10.4.8 13.5.1 16.4.4c3.5.4 6.9 2.1 9.1 4.8 1.3 1.6 2.1 3.3 2.4 5.3.1.3.1.7.1 1v.6c0 1.9-.4 3.7-1.3 5.4l-.4.7c-.1.1-.2.3-.3.4l-.2.2-.3.3c-.3.4-.7.8-1.1 1.2-.7.7-1.4 1.2-2.2 1.7-.6.4-1.3.7-1.9 1-1.5.6-3.1.9-4.7 1h-1.9l-.7-.1h-.4c-.7-.1-1.4-.2-2-.4-2-.6-4-1.8-5.4-3.3C3.6 18.5 2.4 16.3 2 14z" class="st1"/><path d="M3.9 14.4c-.3-1.2-.3-2.5 0-3.7.5-2.6 2.1-5 4.2-6.5 1.3-.9 2.7-1.5 4.2-1.9.7-.2 1.4-.2 2.1-.3h1.2c.2 0 .5 0 .7.1.5 0 .9.1 1.4.2 1.9.4 3.6 1.3 5.1 2.5.3.3.7.6 1 .9 1 1.1 1.8 2.4 2.2 3.8.2.6.3 1.3.4 2 0 .4.1.8 0 1.2l-.2 1.6c-.1.6-.3 1.2-.5 1.8-.5 1.3-1.3 2.4-2.3 3.3l-.5.6-.2.2c0-.1.1-.1.1-.2l.2-.4c.3-.5.5-1 .7-1.5.1-.3.2-.6.2-.9.1-.6.3-1.2.3-1.8v-1.7l.1-.9c.1-1.9-.6-3.8-1.7-5.3-.3-.4-.6-.7-.9-1s-.7-.6-1.1-.9c-.7-.4-1.4-.8-2.2-1-.5-.2-1-.3-1.5-.5-.9-.2-1.7-.3-2.6-.2-2 .1-4 .8-5.6 2-.3.3-.6.5-1 .8 0 .1 0 .2-.1.3l-.3.2c-.9.9-1.8 1.9-2.4 3.1-.3.6-.6 1.3-.7 1.9l-.2.7z" class="st2"/><path d="M4 12.9v-.8c-.1-.1 0-.3-.1-.4v-1.6L4 10v.1c.1.4 0 .8 0 1.3v.2h.2c0 .2-.1.4 0 .6v.2-.1z" class="st3"/><path d="M7.8 6.8c.3-.3.6-.6 1-.8 1.6-1.2 3.6-1.9 5.6-2 .9 0 1.8 0 2.6.2.5.1 1 .3 1.5.5.8.3 1.5.6 2.2 1 .4.3.7.6 1.1.9.3.3.6.6.9 1 1.2 1.5 1.8 3.4 1.7 5.3l-.1.9v1.7l-.3 1.8c-.1.3-.1.6-.2.9-.2.5-.4 1-.7 1.5l-.3.3c0 .1-.1.1-.1.2-.3.3-.7.6-1.1.8-2.1 1.4-4.5 2.1-7 2-1.6-.1-3.3-.4-4.8-1.1l-.4-.2c-.1 0-.1-.1-.2-.1l-.3-.2-.1-.1c-1.9-1.2-3.6-3-4.4-5.2-.3-.6-.4-1.1-.5-1.7l.1-1.5.1-.6c.2-.7.4-1.3.7-1.9.6-1.2 1.5-2.2 2.4-3.1l.4-.3c.1-.1.1-.2.2-.2" class="st1"/><path d="M10.6 18.2c-.1 0-.2-.1-.3-.2l-.6-.4c-1.3-1-2.3-2.6-2.5-4.2q-.3-1.95.6-3.6c.1-.3.2-.5.4-.7 0 .1-.1.2-.1.3l-.1.4c-.1.4-.1.8-.1 1.3-.1.5-.1 1.1 0 1.6 0 .8.1 1.7.3 2.5.2.6.5 1.1.8 1.6.3.4.7.7 1.1 1l.4.3s.1 0 .1.1M10 11c.4-.7 1-1.3 1.6-1.8.2-.2.4-.3.6-.4-.3.4-.5.8-.6 1.3v.4-.1c-.1.6 0 1.2 0 1.8v1.6c.1.3.2.6.4.8.1.1.2.3.4.4l.2.2c-.1 0-.2-.1-.3-.2-.2-.1-.5-.3-.7-.4-.8-.5-1.4-1.4-1.7-2.2-.1-.2-.1-.4-.2-.6 0-.1.1-.2.1-.2l.1-.4zM20 9.6c.2.1.3.2.4.3.5.5 1 1 1.3 1.7.3.5.5 1 .7 1.5.1.2.1.4.1.6-.1.4-.2.8-.4 1.2-.4.9-1 1.7-1.7 2.4-.3.3-.7.5-1 .8-.7.4-1.5.8-2.2 1-.1 0-.3.1-.4.1.2-.1.5-.2.7-.3.8-.3 1.6-.8 2.1-1.5.4-.6.7-1.4.8-2.2.1-.5.1-1 .1-1.5v-1.5c0-.6-.1-1.3-.3-1.8 0-.4-.1-.6-.2-.8" class="st4"/><path d="M14.5 8.9c.7-.4 1.6-.4 2.3-.1.8.3 1.5.9 1.9 1.7s.4 1.8.1 2.6l-.1.3c-.1-.2-.1-.3-.2-.5-.2-.3-.4-.6-.6-.8-.1-.1-.2-.2-.4-.3 0-.1 0-.2-.1-.4-.1-.5-.4-1-.8-1.3-.3-.2-.7-.4-1.1-.3-.3 0-.6.2-.8.4-.1.1-.1.3-.1.4q0 .3.3.3c.3.2.8.4.9.8 0 .1 0 .3-.1.4-.1.2-.3.3-.5.3h-.4c-.4-.1-.7-.2-1-.5-.1-.1-.3-.3-.3-.5-.2-.4-.2-1-.1-1.4s.5-.8 1.1-1.1" class="st2"/><path d="M13.7 12.1c.1-.4.5-.7.8-.9l.1 1.4c-.3-.1-.6-.2-.9-.5" class="st4"/><path d="m12.5 15.3-.2-.2-.4-.4c-.2-.2-.3-.5-.4-.8v-1.6c0-.6-.1-1.2 0-1.8v.1q0 1.35.9 2.4c.6.6 1.4 1.1 2.3 1.1.8 0 1.5-.2 2-.7.4-.4.6-.8.7-1.4v-.2c.1.1.3.2.4.3.3.2.5.5.6.8.1.2.1.3.2.5-.2.5-.6 1.1-1.1 1.4-.1.1-.2.1-.3.2s-.3.2-.5.3c-.7.4-1.6.5-2.4.5-.5 0-1.2-.2-1.8-.5" class="st2"/><path d="M17.5 11.8c.1.1.3.2.4.3.3.2.5.5.6.8.1.2.1.3.2.5-.2.5-.6 1.1-1.1 1.4-.1.1-.2.1-.3.2.1-.1.1-.3.1-.4v-2.7z" class="st4"/><path d="M10.3 8.4c.2-.3.4-.6.6-.8.8-.8 1.8-1.4 2.9-1.7 1.9-.5 3.9-.2 5.6.7 1.5.9 2.7 2.4 3.2 4.1.3 1 .3 2 .1 3-.1-.2-.1-.4-.1-.6-.2-.6-.4-1-.7-1.5-.4-.6-.8-1.2-1.3-1.7-.1-.1-.3-.3-.4-.3-.1-.1-.2-.2-.2-.4-.2-.3-.4-.5-.6-.7-1-.9-2.3-1.4-3.6-1.3-1 0-2 .4-2.8 1.1l-.6.6c-.4 0-.6.1-.8.3-.7.5-1.2 1.1-1.6 1.8l-.1.3-.1.4c0 .1 0 .2-.1.2v-.2c0-.3-.1-.7-.1-1 0-.8.3-1.7.7-2.3" class="st2"/><path d="M9.6 11.7c.1-.1 0-.2.1-.3 0-.2.1-.3.1-.5 0-.1 0-.2.1-.3v.7l-.1.4c0 .1 0 .2-.1.2z" class="st3"/><linearGradient id="SVGID_1_" x1="7.568" x2="20.439" y1="15.13" y2="14.037" gradientTransform="matrix(1 0 0 -1 0 30)" gradientUnits="userSpaceOnUse"><stop offset="0" style="stop-color:#4b004c"/><stop offset="1" style="stop-color:#86146c"/></linearGradient><path d="M7.9 11c0 .5.1.9.2 1.3.3 1.2 1 2.3 2 3.2 1.3 1.2 3.2 1.9 5 1.8.4 0 .8-.1 1.2-.2.2 0 .3-.1.5-.1.3-.1.6-.2.8-.3.8-.4 1.6-1 2.1-1.7.2-.2.3-.5.5-.7.1-.2.2-.3.2-.5.1-.3.2-.7.3-1v.9c0 .5 0 1-.1 1.5-.1.8-.4 1.6-.8 2.2-.5.7-1.3 1.2-2.1 1.5-.2.1-.5.2-.7.3-.7.2-1.5.2-2.2.2-1.4-.1-2.8-.4-3.9-1.1l-.2-.2-.4-.3c-.4-.3-.8-.7-1.1-1-.4-.5-.7-1-.8-1.6-.2-.8-.3-1.7-.3-2.5-.3-.6-.3-1.2-.2-1.7" style="fill:url(#SVGID_1_)"/><linearGradient id="SVGID_00000000911581208579297680000011563552525584066729_" x1="5.098" x2="23.565" y1="16.714" y2="11.188" gradientTransform="matrix(1 0 0 -1 0 30)" gradientUnits="userSpaceOnUse"><stop offset="0" style="stop-color:#4b004c"/><stop offset="1" style="stop-color:#86146c"/></linearGradient><path d="M7.8 6.8c-.2.2-.3.4-.5.6s-.4.5-.5.8c-.5.8-.8 1.7-1 2.6-.1.2-.1.5-.1.7v.4c-.1 1.4.2 2.9.8 4.2l.3.6s.1.1.2.3c.1.1.2.3.3.4.2.2.4.5.6.7 1.1 1 2.4 1.8 3.8 2.2.4.1.9.3 1.4.4s1.1.2 1.7.2c1.8.1 3.7-.3 5.2-1.1.4-.2.8-.5 1.1-.7 1.7-1.2 3-3.1 3.3-5.2v1.7l-.3 1.8c-.1.3-.1.6-.2.9-.2.5-.4 1-.7 1.5l-.4.2c0 .1-.1.1-.1.2-.3.3-.7.6-1.1.8-2.1 1.4-4.5 2.1-7 2-1.6-.1-3.3-.4-4.8-1.1l-.4-.2c-.1 0-.1-.1-.2-.1l-.3-.2-.1-.1c-1.9-1.2-3.6-3-4.4-5.2-.3-.6-.4-1.1-.5-1.7l.1-1.5.1-.6c.2-.7.4-1.3.7-1.9.6-1.2 1.5-2.2 2.4-3.1l.4-.3c.1-.1.1-.2.2-.2" style="fill:url(#SVGID_00000000911581208579297680000011563552525584066729_)"/><path d="M7.8 6.8c-.2.2-.3.4-.5.6s-.4.5-.5.8c-.5.8-.8 1.7-1 2.6-.1.2-.1.5-.1.7v.6c-.1.5-.1 1-.1 1.5 0 .7 0 1.5.1 2.3.1.7.3 1.3.5 1.9.4 1.1 1.1 2.1 2 2.9l.3.3c.1.1.3.2.4.3l-.1-.1c-1.9-1.2-3.6-3-4.4-5.2-.3-.5-.4-1-.5-1.6l.1-1.5.1-.6c.2-.7.4-1.3.7-1.9.6-1.2 1.5-2.2 2.4-3.1l.4-.3c.1-.1.1-.2.2-.2" class="st4"/></svg>