<?xml version="1.0" encoding="utf-8"?>
<!-- Generator: Adobe Illustrator 26.1.0, SVG Export Plug-In . SVG Version: 6.00 Build 0)  -->
<svg version="1.1" id="Layer_1" xmlns="http://www.w3.org/2000/svg" xmlns:xlink="http://www.w3.org/1999/xlink" x="0px" y="0px"
	 viewBox="0 0 40 40" style="enable-background:new 0 0 40 40;" xml:space="preserve">
<style type="text/css">
	.st0{fill:#044A9A;}
	.st1{fill:#1198D9;}
	.st2{fill:url(#SVGID_1_);}
	.st3{fill:#87C1D0;}
	.st4{fill:#097C99;}
	.st5{fill:#A5DFF5;}
	.st6{fill:#35DAF5;}
</style>
<path class="st0" d="M5.6,24.8L5.6,24.8c0.1,0.9,0.2,1.8,0.3,2.6c0.3,1.2,0.7,2.3,1.2,3.4l0.5,0.9c0.7,1.2,1.6,2.2,2.6,3.1
	c2.8,2.5,6.8,3.7,10.6,3.5c2.9-0.2,5.8-1.2,8.1-3c0.7-0.6,1.4-1.2,2-1.9c1.1-1.2,1.9-2.7,2.4-4.3c0.2-0.5,0.3-1,0.4-1.5
	c0.1-0.6,0.2-1.2,0.3-1.8c0-0.1,0-0.1,0.1-0.2l0,0.6c-0.1,2.1-0.6,4.3-1.6,6.2c-0.8,1.5-1.9,2.9-3.2,4.1c-0.5,0.5-1.1,0.9-1.7,1.3
	c-2.4,1.6-5.3,2.5-8.2,2.4c-1,0-2-0.2-2.9-0.4c-2.7-0.7-5.2-2.2-7.1-4.2c-0.9-0.9-1.7-2-2.3-3.1C6.1,30,5.5,27.4,5.6,24.8z"/>
<path class="st1" d="M5.6,24.8c0.1-1.4,0.4-2.7,0.9-4c0.9-2.3,2.2-4.4,3.5-6.5l6.9-9.6c1.1-1.5,2.1-3,3-4.6c0.7,1.2,1.5,2.4,2.3,3.6
	l4.9,6.6l2.2,3.2c1.3,2,2.5,4,3.5,6.2c0.5,1.1,0.9,2.2,1.1,3.4c0.2,0.8,0.3,1.7,0.2,2.5c0,0.1-0.1,0.1-0.1,0.2
	c-0.1,0.6-0.2,1.2-0.3,1.8c-0.1,0.5-0.3,1-0.4,1.5c-0.5,1.6-1.3,3-2.4,4.3c-0.6,0.7-1.3,1.4-2,1.9c-2.3,1.8-5.2,2.9-8.1,3
	c-3.8,0.3-7.7-1-10.6-3.5c-1-0.9-1.9-2-2.6-3.1l-0.5-0.9c-0.6-1.1-1-2.2-1.2-3.4C5.7,26.6,5.7,25.7,5.6,24.8L5.6,24.8z"/>
<linearGradient id="SVGID_1_" gradientUnits="userSpaceOnUse" x1="86.1687" y1="-43.2464" x2="67.5802" y2="-33.3438" gradientTransform="matrix(0.5234 0 0 -0.5234 -23.5924 -2.1336)">
	<stop  offset="0" style="stop-color:#D7E9EB"/>
	<stop  offset="1" style="stop-color:#FFFFFF"/>
</linearGradient>
<path class="st2" d="M13.3,34.6c-1.2-0.8-2.2-1.9-3-3c-1.2-1.7-1.9-3.9-2-6c0-1.3,0.2-2.6,0.5-3.8c0.2-0.6,0.4-1.3,0.7-1.9
	c0.6-1.3,1.3-2.6,2-3.9l1.8-2.9l3.4-5l1.8-2.9c0.5-0.9,1-1.8,1.3-2.8c0.1-0.4,0.2-0.8,0.3-1.2c0,0,0,0.1,0,0.2l0,0.4
	c0,0.4,0.1,0.7,0.1,1l0.1,0.5c-0.2,1-0.8,1.9-1.3,2.8l-1.8,2.8c-1.7,2.5-3.4,5-5,7.7c-0.9,1.6-1.8,3.2-2.4,4.9c-1,3-0.8,6.3,0.9,9.1
	c0.7,1.2,1.6,2.1,2.6,3c0.3,0.2,0.6,0.5,0.9,0.7l0,0C14,34.4,13.6,34.4,13.3,34.6z"/>
<path class="st3" d="M24.9,10.6c0.2,0.2,0.4,0.6,0.6,0.9l1.1,1.7c1.5,2.4,3,4.8,4,7.5c0.3,0.7,0.5,1.4,0.7,2.1
	c0.2,0.7,0.2,1.4,0.2,2.1c0,3.1-1.2,6.1-3.4,8.3C26,35.3,23,36.6,20,36.7c-1.7,0-3.3-0.4-4.8-1.1c-0.5-0.2-1.1-0.5-1.6-0.9l-0.2-0.1
	c0.3-0.1,0.7-0.2,1-0.4l0,0c0.2-0.1,0.5-0.2,0.7-0.3l2.2-1c0.2-0.1,0.4-0.2,0.5-0.3l0,0c0.4,0.4,0.8,0.7,1.3,1
	c0.8,0.6,1.6,1,2.5,1.5l0.9,0.4l0.8-0.2c0.8-0.3,1.5-0.6,2.2-1.1c2.4-1.5,4.3-3.9,4.9-6.7c0.3-1.1,0.3-2.2,0.2-3.3
	c0-0.3-0.1-0.7-0.1-1c-0.1-0.4-0.2-0.8-0.4-1.2c-0.6-1.6-1.3-3.1-2.2-4.6l-1.2-2.1l0,0c0-0.3-0.1-0.6-0.1-0.8
	c-0.2-0.9-0.6-1.8-1-2.6L25.1,11C25.1,10.8,25,10.7,24.9,10.6z"/>
<path class="st4" d="M26.6,15.1l1.2,2.1c0.8,1.5,1.6,3,2.2,4.6c0.1,0.4,0.3,0.8,0.4,1.2c0.1,0.3,0.1,0.7,0.1,1
	c0.1,1.1,0,2.3-0.2,3.3c-0.6,2.8-2.5,5.2-4.9,6.7c-0.7,0.4-1.4,0.8-2.2,1.1l-0.8,0.2L21.6,35c-0.9-0.4-1.7-0.9-2.5-1.5
	c-0.4-0.3-0.9-0.6-1.3-1l1.2-0.8c1-0.7,2-1.6,2.9-2.5c0.6-0.6,1.1-1.2,1.5-1.9c1.3-1.8,2.2-3.9,2.8-6.1c0.3-1,0.4-2.1,0.5-3.1
	c0-0.6,0-1.2,0-1.7L26.6,15.1z"/>
<path class="st5" d="M20.2,3.3c0.1,0.2,0.2,0.5,0.2,0.8c0,0.2,0,0.3,0,0.5l0,0.8c-0.1,1.1-0.1,2.3-0.3,3.4c-0.3,2-0.8,3.9-1.6,5.8
	c-0.5,1.3-1.2,2.6-1.9,3.9c-0.6,1-1.2,2.1-1.6,3.2c-0.8,1.8-1,3.6-0.6,5.5c0.3,1.7,1.2,3.2,2.3,4.4l1,1c-0.1,0.1-0.3,0.2-0.5,0.3
	l-2.2,1c-0.2,0.1-0.5,0.2-0.7,0.3c-0.3-0.2-0.6-0.4-0.9-0.7c-1.1-0.8-1.9-1.8-2.6-3c-1.7-2.8-1.9-6-0.9-9.1c0.6-1.7,1.5-3.3,2.4-4.9
	c1.5-2.6,3.3-5.1,5-7.7L19,6.1C19.5,5.2,20,4.3,20.2,3.3z"/>
<path class="st1" d="M20.2,2.9c0.1,0,0.1,0.1,0.1,0.1c0.4,1,0.9,1.8,1.5,2.7l3.2,4.9c0,0.1,0.1,0.3,0.2,0.4l0.3,0.6
	c0.4,0.8,0.8,1.7,1,2.6c0.1,0.3,0.1,0.6,0.1,0.8l0,0l0.1,1.3c0,0.6,0,1.2,0,1.7c-0.1,1-0.2,2.1-0.5,3.1c-0.6,2.2-1.5,4.3-2.8,6.1
	c-0.5,0.7-1,1.3-1.5,1.9c-0.9,0.9-1.9,1.8-2.9,2.5l-1.2,0.8l0,0l-1-1c-1.1-1.2-2-2.8-2.3-4.4c-0.4-1.9-0.1-3.8,0.6-5.5
	c0.5-1.1,1.1-2.1,1.6-3.2c0.7-1.3,1.3-2.6,1.9-3.9c0.7-1.9,1.3-3.8,1.6-5.8c0.2-1.1,0.2-2.3,0.3-3.4l0-0.8c0-0.2,0-0.3,0-0.5
	c0-0.3-0.1-0.5-0.2-0.8L20.2,2.9z"/>
<path class="st6" d="M20.2,2.9c0.1,0,0.1,0.1,0.1,0.1c0.4,1,0.9,1.8,1.5,2.7l3.2,4.9c0,0.1,0.1,0.3,0.2,0.4l0.3,0.6
	c0.4,0.8,0.8,1.7,1,2.6c0.1,0.3,0.1,0.6,0.1,0.8c-0.3-0.3-0.5-0.7-0.7-1l-1.1-1.8l-0.7-1.1l-2-3.1l-0.8-1.3
	c-0.3-0.4-0.5-0.9-0.8-1.3l0-0.8c0-0.2,0-0.3,0-0.5c0-0.3-0.1-0.5-0.2-0.8L20.2,2.9z"/>
</svg>
