<?xml version="1.0" encoding="utf-8"?>
<!-- Generator: Adobe Illustrator 26.1.0, SVG Export Plug-In . SVG Version: 6.00 Build 0)  -->
<svg version="1.1" id="Layer_1" xmlns="http://www.w3.org/2000/svg" xmlns:xlink="http://www.w3.org/1999/xlink" x="0px" y="0px"
	 viewBox="0 0 40 40" style="enable-background:new 0 0 40 40;" xml:space="preserve">
<style type="text/css">
	.st0{fill:#201E43;}
	.st1{fill:#9AC4DE;}
	.st2{fill:#446381;}
	.st3{fill:#273358;}
	.st4{fill:url(#SVGID_1_);}
	.st5{fill:#558FB6;}
	.st6{fill:url(#SVGID_00000156555529831791171890000017465153104560351416_);}
	.st7{fill:#FDFDFC;}
	.st8{fill:#768068;}
	.st9{fill:#344567;}
	.st10{fill:#F6BD1D;}
	.st11{fill:url(#SVGID_00000052101617098021791790000011282504529963735725_);}
	.st12{fill:#82A1AB;}
	.st13{fill:#FAFA89;}
	.st14{fill:#F6E925;}
	.st15{fill:url(#SVGID_00000029004315508452762860000012202678947105097096_);}
	.st16{fill:#74531C;}
	.st17{fill:#E9A00C;}
	.st18{fill:#A6700D;}
</style>
<path class="st0" d="M4.4,24.4l0.4-0.3c0.1,0,0.2-0.1,0.2-0.1l-1.5-0.9l0-5.4l0.9-0.6c0.1-0.1,0.3-0.2,0.4-0.3l-1.3-0.8l0-6
	c0.6-0.3,1.2-0.7,1.8-1.1l3.3-2l2.6-1.6l5.4-3.3l2.2-1.3C19.2,0.5,19.6,0.2,20,0c0.1,0,0.2-0.1,0.3,0c0.2,0.1,0.3,0.2,0.5,0.2
	l0.8,0.5l3.2,1.9l7.5,4.6l3.2,2l1,0.6c0.1,0.1,0.2,0.1,0.2,0.2c0,0.1,0,0.1,0,0.2l0,1.7l0,3l0,0.7c0,0.1,0,0.2,0,0.3
	c-0.1,0.3-0.5,0.4-0.7,0.6l-0.6,0.4l0.7,0.4c0.2,0.1,0.4,0.2,0.5,0.4c0.1,0.1,0.1,0.2,0.1,0.3c0,0.2,0,0.5,0,0.7l0,1.3l0,2.1
	c0,0.3,0,0.6,0,0.9c0,0.1,0,0.2-0.1,0.3c-0.1,0.2-0.4,0.3-0.6,0.4L35.3,24l0.9,0.6c0.2,0.1,0.4,0.2,0.5,0.3c0.1,0.1,0.1,0.2,0.2,0.3
	c0,0.2,0,0.4,0,0.6l0,1.1l0,2l0,1.1c-0.2,0.2-0.4,0.3-0.6,0.4l-0.8,0.5c-0.2,0.1-0.3,0.2-0.5,0.3l-1,0.6l-2,1.2L20.2,40L4.8,30.7
	l-1.2-0.8c0-0.2,0-0.4,0-0.6l0-1.1l0-3.2l0.1,0L4.4,24.4z"/>
<path class="st1" d="M26.8,15.1l0.4,0.2c-0.1,0.1-0.2,0.1-0.3,0.2l-0.4-0.3C26.6,15.2,26.7,15.2,26.8,15.1z"/>
<path class="st2" d="M5.7,25.2L5.3,25c0.2-0.1,0.4-0.3,0.6-0.4l0,0.3c0,0.1,0,0.1-0.1,0.2L5.7,25.2z"/>
<path class="st3" d="M5.9,24.6l0.5,0.3C6.3,25,6,25.2,5.8,25.3c0,0-0.1,0-0.1,0l0.1-0.1c0-0.1,0.1-0.1,0.1-0.2L5.9,24.6z"/>
<path class="st1" d="M26.7,16.1l0.6-0.4l0,0.5l-0.6,0.4L26.7,16.1z"/>
<linearGradient id="SVGID_1_" gradientUnits="userSpaceOnUse" x1="17.3726" y1="27.8486" x2="16.5086" y2="27.7501" gradientTransform="matrix(1 0 0 -1 0 40)">
	<stop  offset="0" style="stop-color:#845D3A"/>
	<stop  offset="1" style="stop-color:#774E40"/>
</linearGradient>
<path class="st4" d="M16.8,11.8l0.7,0.4l-1,0.5l0-0.3l0-0.2l0-0.2l0.1,0C16.7,11.9,16.7,11.8,16.8,11.8z"/>
<path class="st5" d="M25,14.4l0.3-0.2l1.5,0.9c-0.1,0.1-0.2,0.1-0.3,0.2l0,0c-0.1-0.1-0.2-0.1-0.3-0.2l-0.7-0.5
	C25.3,14.5,25.1,14.5,25,14.4z"/>
<path class="st3" d="M4.6,15.7L4.6,15.7c-0.1-0.2-0.1-0.5-0.1-0.6l0-1l0-2.3l0-1.3c0.1,0,0.1,0.1,0.1,0.1l0-0.1l0,0.1l0,0.5l0,3.3
	L4.6,15.7z"/>
<path class="st3" d="M3.6,25l0.8-0.5c0.3,0.1,0.5,0.3,0.7,0.4c-0.3,0.2-0.6,0.4-0.9,0.5C4,25.2,3.8,25.1,3.6,25z"/>
<linearGradient id="SVGID_00000160885500042678819940000004731205987804904600_" gradientUnits="userSpaceOnUse" x1="15.7" y1="29.226" x2="15.7613" y2="28.0611" gradientTransform="matrix(1 0 0 -1 0 40)">
	<stop  offset="0" style="stop-color:#B9742E"/>
	<stop  offset="1" style="stop-color:#9B5939"/>
</linearGradient>
<path style="fill:url(#SVGID_00000160885500042678819940000004731205987804904600_);" d="M14.7,11l0.4-0.2c0.3,0.1,0.5,0.3,0.8,0.4
	l0.9,0.6c-0.1,0.1-0.2,0.1-0.2,0.2l-0.1,0l0,0.2l0-0.2l0,0c-0.3-0.1-0.6-0.3-0.9-0.5L14.7,11z"/>
<path class="st7" d="M20.3,14.1l0-0.4l1.5-0.9l0.4-0.3c0.1,0,0.2-0.1,0.3-0.1l0,0l0,0.3L20.3,14.1z"/>
<path class="st8" d="M23.7,13.2l0.9,0.6c0.1,0.1,0.3,0.2,0.5,0.3l-1.4,0.8L23.7,13.2z"/>
<path class="st7" d="M29.6,8.1l2.2,1.4c0.2,0.1,0.5,0.2,0.6,0.4c0,0.1,0,0.1,0,0.2l-0.1,0.1c-0.4-0.2-0.7-0.4-1-0.6
	c-0.7-0.4-1.3-0.8-1.9-1.2L29.6,8.1z"/>
<path class="st7" d="M10.7,8.2l0.4,0.3l-2,1.2c-0.3,0.2-0.6,0.4-1,0.6L7.8,10L10.7,8.2L10.7,8.2z"/>
<path class="st9" d="M23.8,14.8L23,15.3l0-2.6c0.3,0.1,0.6,0.3,0.8,0.5L23.8,14.8z"/>
<path class="st3" d="M6.6,25.1l3.2,2l0,0.6l-0.3-0.2l-3.4-2.1L6.6,25.1z"/>
<path class="st7" d="M4.8,10.3c0.8,0.2,1.6,0.6,2.3,1l2.4,1.4l0.6,0.4c0.1,0.1,0.2,0.1,0.3,0.2L10,13.5l-1.6-1l-2.3-1.4l-1-0.6
	C5.1,10.5,4.9,10.4,4.8,10.3C4.8,10.3,4.8,10.3,4.8,10.3z"/>
<path class="st2" d="M16.4,13.1c0.1-0.1,0.3-0.2,0.4-0.3l0.6-0.3l0,2.8l-1-0.6L16.4,13.1z"/>
<path class="st1" d="M20.1,8.6c0.1,0,1.3,0.7,1.5,0.8l-1.4,0.8l-1.5-0.8c0.1-0.1,0.3-0.2,0.5-0.3L20.1,8.6z"/>
<path class="st3" d="M16.7,31.9c-0.1-0.1-0.3-0.2-0.4-0.3l-0.8-0.5l-1.2-0.8c-0.3-0.2-0.6-0.4-0.9-0.6l0.5-0.3l3.3,1.9L16.7,31.9z"
	/>
<path class="st7" d="M30.6,14.4l0-0.5l5.3-3.2l0,0l0,0.5L30.6,14.4z"/>
<path class="st7" d="M35.3,10l0.4,0.3l-3.4,2.1l-1.2,0.7c-0.2,0.1-0.4,0.3-0.6,0.4l-0.4-0.2c0.1-0.1,0.4-0.2,0.5-0.3l1.3-0.8
	l2.3-1.4L35.3,10z"/>
<path class="st9" d="M17.2,31.5l1.9,1.1c0.3,0.2,0.7,0.5,1.1,0.6c0.1,0.3,0,0.6,0,0.9C20.1,34,20,34,19.9,33.9l-0.5-0.3l-2.7-1.7
	L17.2,31.5z"/>
<path class="st5" d="M4.6,10.6l3.4,2c0.6,0.4,1.3,0.7,1.9,1.2l0,0.6c-0.5-0.4-1.2-0.8-1.7-1.1l-3.6-2.2L4.6,10.6z"/>
<path class="st10" d="M30.4,7l0.2,0.2L27.4,9L24,11.1l-2.6,1.5l-1.1,0.6c-0.1,0-0.1,0.1-0.2,0.1l0-0.3l0,0c0.5-0.2,0.9-0.5,1.3-0.7
	l2.1-1.2L30.4,7z"/>
<path class="st2" d="M29.3,8.9l2.4,1.5l-0.9,0.5L30,11.4c-0.2,0.1-0.4,0.3-0.6,0.4L29.3,8.9z"/>
<linearGradient id="SVGID_00000145750442691633380260000011298345969120506301_" gradientUnits="userSpaceOnUse" x1="14.664" y1="28.9146" x2="15.4056" y2="30.7685" gradientTransform="matrix(1 0 0 -1 0 40)">
	<stop  offset="0" style="stop-color:#C57223"/>
	<stop  offset="1" style="stop-color:#A95C3D"/>
</linearGradient>
<path style="fill:url(#SVGID_00000145750442691633380260000011298345969120506301_);" d="M20.2,13.4L9.8,7.2L10.1,7
	c0.2,0.2,0.4,0.3,0.6,0.4l1,0.6l1.8,1l4,2.4l1.9,1.1c0.2,0.1,0.5,0.3,0.7,0.4L20.2,13.4z"/>
<path class="st12" d="M11.1,8.8c0,0.3,0,0.6,0,0.9l0,2.1l-1.5-0.9l-0.9-0.6L11.1,8.8z"/>
<path class="st1" d="M34.7,24.8l1.2,0.7l0,0l-4.6,2.8c-0.2,0.1-0.5,0.3-0.6,0.4l0,0l0-0.7l1.4-0.9l1.8-1.1c0.2-0.1,0.6-0.3,0.8-0.5
	C34.7,25.4,34.6,25,34.7,24.8z"/>
<path class="st13" d="M16.4,12L16.4,12l0.1,0.2l0,0.2l0,0.3l-3.9,2.4l-0.3-0.2l-0.4-0.2l0.6-0.3l2.6-1.6l0.7-0.4
	C16,12.2,16.2,12,16.4,12z"/>
<path class="st10" d="M16.5,12.3l0,0.3l-3.9,2.4l-0.3-0.2c0.2-0.1,0.4-0.2,0.6-0.3l0.8-0.5L16.5,12.3z"/>
<path class="st3" d="M5.8,18l-0.5-0.3c0.2-0.2,0.4-0.3,0.7-0.5l0.5,0.3l3.4,2.1l0,0.9L5.8,18z"/>
<path class="st2" d="M34.4,24.4L34.4,24.4c0.1,0.3,0,0.6,0,0.9c-0.1,0.1-0.1,0.2-0.2,0.2c-0.1,0.1-0.3,0.2-0.4,0.2L33,26.3l-2.3,1.4
	c0,0,0,0,0,0l0-1L34.4,24.4z"/>
<path class="st2" d="M34.1,17.2l0.4,0.2c0,0.1,0,0.2,0,0.3c0,0.1-0.1,0.2-0.2,0.3c-0.1,0.1-0.2,0.1-0.3,0.2l-0.7,0.4l-2.5,1.5
	l-0.3,0.2l0-1.1L34.1,17.2z"/>
<path class="st5" d="M5.1,25.2c0.1,0,0.3,0.2,0.4,0.2l1.2,0.7l2.2,1.3c0.4,0.2,0.7,0.4,1,0.7l0,0.8l-0.3-0.2l-5.1-3.1L5.1,25.2z"/>
<path class="st5" d="M5.2,17.8c0.1,0,0.2,0.1,0.2,0.1L6,18.3l3.9,2.4l0,0.8l-0.4-0.3l-5-3L5.2,17.8z"/>
<path class="st1" d="M34.7,17.5c0.4,0.2,0.8,0.4,1.1,0.7L31.3,21l-0.7,0.4l0-0.8l2.9-1.7l0.8-0.5c0.1-0.1,0.3-0.1,0.4-0.2
	C34.8,18,34.7,17.7,34.7,17.5z"/>
<path class="st5" d="M12.9,16.1l0-0.6l6.9,4.2l0,0.6c-0.2-0.1-0.4-0.2-0.5-0.3l-1.2-0.8l-2.9-1.8L12.9,16.1z"/>
<path class="st13" d="M29.9,6.7L30.4,7l-6.8,4.1l-2.1,1.2c-0.4,0.3-0.9,0.5-1.3,0.7c0,0,0,0,0,0c0-0.1,0-0.3,0-0.4L29.9,6.7z"/>
<path class="st5" d="M18.8,34.2c-0.2-0.1-0.4-0.2-0.6-0.3L16.8,33L14,31.3l-1.5-0.9l0.6-0.4l6.2,3.8C19.1,34,18.9,34.1,18.8,34.2z"
	/>
<path class="st5" d="M19.1,27.5l-6.2-3.7l0.7-0.4l6.1,3.7L19.1,27.5z"/>
<path class="st3" d="M19,26.4l-1.2-0.7l-2.2-1.3l-1.1-0.7c-0.2-0.1-0.5-0.3-0.7-0.4l0.8-0.5l5.2,3.1L19,26.4z"/>
<path class="st14" d="M10.1,7l0.4-0.2l6.8,4l2.3,1.3c0.2,0.1,0.5,0.3,0.7,0.4c-0.1,0.1,0,0.3,0,0.4c0,0,0,0,0,0l0,0
	c-0.2-0.2-0.5-0.3-0.7-0.4l-1.9-1.1l-4-2.4l-1.8-1l-1-0.6C10.5,7.3,10.3,7.2,10.1,7z"/>
<path class="st7" d="M20.5,23.8l0-4l6.2-3.7l0,0.5l0,0l-5.8,3.5l0,3.4L20.5,23.8z"/>
<path class="st1" d="M19.8,27.1l0.5,0.3l6.5-3.9l0.5,0.4l-1.6,1l-2.4,1.4l-2,1.2c-0.3,0.2-0.6,0.4-1,0.6c-0.1,0-0.1,0-0.2,0
	c-0.4-0.1-0.8-0.4-1.1-0.5L19.8,27.1z"/>
<path class="st1" d="M19.3,33.8l0.9,0.6l7-4.3l0.6,0.4l-7.7,4.6l-1.4-0.8C18.9,34.1,19.1,34,19.3,33.8z"/>
<path class="st2" d="M20.2,33.2c0.3-0.2,0.6-0.4,0.9-0.6l1.3-0.8l2.5-1.5l1.5-0.9c0.2,0.2,0.4,0.4,0.7,0.6l-1.4,0.8l-4.3,2.6
	l-0.8,0.5c-0.1,0.1-0.2,0.2-0.4,0.2C20.2,33.8,20.3,33.4,20.2,33.2z"/>
<path class="st12" d="M22.6,12.4c0,0.4,0,0.7,0,1.1l0,2l-2.3,1.4l0-2.8l2.2-1.3L22.6,12.4z"/>
<path class="st1" d="M28.9,8.5L28.9,8.5l0,3.4l-0.5,0.3l-1.7-1l-1.1-0.7L28.9,8.5z"/>
<path class="st2" d="M17.9,12.4l2.1,1.2l0,3.2l-2.1-1.3L17.9,12.4z"/>
<path class="st7" d="M13.9,6.6c0.1-0.1,0.4-0.2,0.5-0.4l1.8-1.1l2.6-1.5L19.7,3c0.2-0.1,0.3-0.2,0.5-0.3c0.2,0.1,0.4,0.2,0.6,0.3
	l0.8,0.5l3.2,2c0.4,0.3,0.9,0.6,1.3,0.8l1.6-0.9l0.4,0.2l-2,1.2L24.7,6l-2.8-1.7l-1.1-0.6c-0.2-0.1-0.3-0.2-0.5-0.3
	c-0.1,0-0.1,0-0.2,0c-0.1,0-0.3,0.2-0.4,0.2L18.9,4L16,5.8c-0.6,0.3-1.1,0.7-1.7,1L13.9,6.6z"/>
<path class="st2" d="M11.5,8.6l3.4,2l-1.1,0.6L12,12.3c-0.2-0.1-0.4-0.2-0.5-0.3C11.5,12,11.5,8.9,11.5,8.6z"/>
<path class="st7" d="M13.2,15c0.2,0,0.4,0.1,0.6,0.2c0.8,0.4,1.6,0.9,2.4,1.4l1.8,1.1l1.5,0.9l0.5,0.3c0,0,0.1,0.1,0.1,0.1
	c0,0,0.2-0.1,0.3-0.2l1.1-0.7l4.9-2.9l0,0l0.4,0.3l-6.5,3.9c-0.1,0-0.3,0-0.4,0c-0.3-0.1-0.5-0.3-0.8-0.5L17.7,18L13,15.2L13.2,15z"
	/>
<path class="st2" d="M30.6,17.4l5.2-3l0-1.3l0,0l0,2.6l-5.2,3.1V17.4z"/>
<path class="st2" d="M30.6,24.7c0.1,0,0.2-0.1,0.3-0.2l0.7-0.4l2.5-1.5l1.8-1.1l0,1.3l-5.3,3.2L30.6,24.7z"/>
<path class="st9" d="M4.6,14.4l5.3,3.2l0,1.4l-5.3-3.3L4.6,14.4z"/>
<path class="st2" d="M19.8,25.8l0.4,0.2l5.5-3.4l0,0l0.8,0.6l-6.3,3.7L19,26.4L19.8,25.8z"/>
<path class="st14" d="M30.2,13.7c0.1,0.1,0.1,0.1,0.1,0.2l0,14.6l-0.2,0.1c-0.1,0-0.3,0.1-0.4,0.2l0-14.2l0-0.4l-1.1,0.7
	c0,0,0-0.1,0-0.1c0.1-0.1,0.1-0.1,0.1-0.2L30.2,13.7z"/>
<path class="st9" d="M9.9,24.6l0,1.6l-5.5-3.4l0-4.3l0.2,0.1l0,3l1.1,0.7L8,23.6c0.2,0.1,1.8,1.2,1.9,1.2L9.9,24.6z"/>
<path class="st10" d="M10.2,13.6l4.4-2.6l0.9,0.5c0.3,0.2,0.6,0.4,0.9,0.5c-0.2,0.1-0.5,0.2-0.7,0.3l-0.7,0.4l-2.6,1.6l-0.6,0.3
	l-0.6-0.3L10.2,13.6z"/>
<path class="st9" d="M13,26.8l6.8,4.2l0,1.3c-0.9-0.6-1.9-1.2-2.9-1.7l-2.2-1.3l-1.1-0.7c-0.2-0.1-0.5-0.3-0.7-0.4L13,26.8z"/>
<path class="st9" d="M12.9,19.9L12.9,19.9c0.3,0.1,0.6,0.3,0.9,0.5l1.5,0.9l2.5,1.5l2,1.2l0-2.4c0-0.3,0-0.7,0-1l0,4.9l-6.9-4.1
	L12.9,19.9z"/>
<path class="st10" d="M23.5,11.8l1.1-0.7c0.2-0.1,0.4-0.3,0.6-0.4l4.5,2.7c0.1,0.1,0.3,0.2,0.4,0.3l-1.4,0.8l0,0c-0.1,0-0.2,0-0.3,0
	l-0.2,0.1c-0.4-0.2-0.9-0.5-1.3-0.7l0-0.1L23.5,11.8L23.5,11.8z"/>
<path class="st13" d="M29.8,13.4c0.1,0.1,0.3,0.2,0.4,0.3l-1.4,0.8l0,0c-0.1,0-0.2,0-0.3,0l-0.2,0.1c-0.4-0.2-0.9-0.5-1.3-0.7l0-0.1
	l1.2,0.7c0.3-0.1,0.6-0.4,0.8-0.6L29.8,13.4z"/>
<path class="st2" d="M26.7,24.6l0.6-0.4l0,4.1l-6.8,4.1l0-1.5l6.2-3.7L26.7,24.6z"/>
<path class="st2" d="M27.4,16.3l0,4.9l-6.8,4.1l0-1.5l0.4-0.2l5.8-3.4l0-3.5l0,0L27.4,16.3z"/>
<path class="st1" d="M4.8,10.3l4.7-2.9l1.3,0.7l0,0L7.8,10l0.4,0.2c0,0.1,0.1,0.1,0.2,0.1l0.4,0.3l3,1.8l-1.3,0.8
	c-0.1-0.1-0.2-0.1-0.3-0.2l-0.6-0.4l-2.4-1.4C6.3,10.9,5.6,10.5,4.8,10.3z"/>
<path class="st1" d="M29.6,8.1L29.6,8.1l1.3-0.8l4.4,2.7l-1,0.6L31.9,12l-1.3,0.8c-0.2,0.1-0.4,0.2-0.5,0.3c-0.1,0-0.3-0.2-0.4-0.3
	l-1-0.6l2.5-1.5l0.8-0.4c0.1,0,0.2-0.1,0.3-0.1c0,0,0,0,0,0l0.1-0.1c0,0,0-0.1,0-0.2c-0.1-0.2-0.4-0.3-0.6-0.4L29.6,8.1z"/>
<linearGradient id="SVGID_00000026131898290701086140000013844740498644506554_" gradientUnits="userSpaceOnUse" x1="30.0692" y1="19.4976" x2="23.5" y2="19.0663" gradientTransform="matrix(1 0 0 -1 0 40)">
	<stop  offset="0" style="stop-color:#976B26"/>
	<stop  offset="1" style="stop-color:#CC7623"/>
</linearGradient>
<path style="fill:url(#SVGID_00000026131898290701086140000013844740498644506554_);" d="M23.1,12c0.2-0.1,0.3-0.2,0.4-0.3l0,0
	l3.4,2l0,0.1c0.4,0.2,0.8,0.6,1.3,0.7l0.2-0.1c0.1,0,0.2-0.1,0.3,0l0,0c-0.1,0.1-0.1,0.1-0.1,0.2c0,0,0,0.1,0,0.1l1.1-0.7l0,0.4
	c-0.2,0.1-0.3,0.2-0.5,0.3l-0.8,0.5l0,10.2l0,2.8l0,0.9c0,0.1,0,0.3,0,0.5c-0.1,0.1-0.1,0.1-0.2,0.1c-0.2-0.1-0.4-0.2-0.5-0.3
	l0-14.3l-4.9-3C22.9,12.2,23.1,12.1,23.1,12z"/>
<path class="st14" d="M23.1,12c0.2-0.1,0.3-0.2,0.4-0.3l0,0l3.4,2l0,0.1c0.4,0.2,0.8,0.6,1.3,0.7l0.2-0.1c0.1,0,0.2-0.1,0.3,0l0,0
	c-0.1,0.1-0.1,0.1-0.1,0.2c0,0,0,0.1,0,0.1L28.1,15L23.1,12z"/>
<path class="st12" d="M30.6,24.7l0-2.9l5.3-3.2l0,3l-1.8,1.1l-2.5,1.5l-0.7,0.4C30.8,24.6,30.7,24.7,30.6,24.7z"/>
<path class="st12" d="M19.9,3.8L19.9,3.8l0,4.5l-1.6,1l-2.3-1.4L14.6,7l0,0L19.9,3.8z"/>
<path class="st2" d="M4.7,18.6c0.3,0.1,0.5,0.3,0.8,0.5l2.1,1.3l1.5,0.9c0.3,0.2,0.6,0.3,0.8,0.5l0,2.8l0,0.2c-0.1,0-1.7-1-1.9-1.2
	l-2.2-1.3l-1.1-0.7L4.7,18.6z"/>
<path class="st16" d="M11.3,29.3c-0.4-0.2-0.7-0.4-1-0.7l0-11l0-2.8l0-0.8c0-0.1,0-0.3,0-0.5l1,0.6c0,0,0,0,0,0.1c0,0.1,0,0.2,0,0.3
	l0,0.6l0,2.6l0,8.6l0,1.9C11.3,28.6,11.3,29,11.3,29.3z"/>
<path class="st2" d="M20.3,3.7c0.6,0.4,1.2,0.7,1.8,1.1l2.1,1.3l1,0.6c0.2,0.1,0.4,0.2,0.5,0.3l-1.4,0.8l-2.5,1.4l-1.5-0.9
	c0-0.2,0-0.3,0-0.5l0-0.9L20.3,3.7z"/>
<path class="st12" d="M35.8,10.8c0,0.3,0,0.5,0,0.8l0,1.5l0,0l0,1.3l-5.2,3l0-3l5.2-3.1L35.8,10.8L35.8,10.8z"/>
<path class="st12" d="M26.7,24.6l0,2.6l-6.2,3.7l0-2.7L26.7,24.6z"/>
<path class="st2" d="M4.6,11.1l3.6,2.2c0.6,0.4,1.2,0.7,1.7,1.1l0,3.2l-5.3-3.2L4.6,11.1z"/>
<path class="st2" d="M35.9,25.7L35.9,25.7l0,2.6l0,0.7c0,0.1,0,0.2,0,0.3c0,0.1-0.1,0.1-0.1,0.2c-0.1,0.1-0.3,0.2-0.5,0.3l-0.9,0.6
	l-3,1.8l-7.3,4.5l-2.2,1.3l-1.4,0.8l0-1.1l15.4-9.3L35.9,25.7z"/>
<path class="st17" d="M28.4,29.7c0-0.1,0-0.3,0-0.5l0-0.9l0-2.8l0-10.2l0.8-0.5c0.2-0.1,0.3-0.2,0.5-0.3l0,14.2
	c0.1-0.1,0.2-0.2,0.4-0.2c-0.1,0.1-0.3,0.2-0.5,0.3L28.4,29.7z"/>
<path class="st2" d="M13,26.8l0-2.7l6.9,4.1l0,2.7L13,26.8z"/>
<path class="st18" d="M11.3,14.3l0.6,0.3l0.4,0.2l0.3,0.2c-0.1,0.1,0,0.5,0,0.7l0,2.1l0,12.2l-0.9-0.5c-0.1-0.1-0.3-0.2-0.4-0.3
	c0-0.3,0-0.7,0-1l0-1.9l0-8.6l0-2.6l0-0.6C11.3,14.5,11.2,14.4,11.3,14.3C11.3,14.3,11.3,14.3,11.3,14.3z"/>
<path class="st12" d="M20.9,23.6l0-3.4l5.8-3.5l0,3.5L20.9,23.6z"/>
<path class="st9" d="M19.8,37.4l0,1.3L4.4,29.4c0-0.3,0-3.4,0-3.5c0,0,0.1,0,0.1,0l0,0c-0.1,0.2,0,0.4,0,0.6l0,1.6L19.8,37.4z"/>
<path class="st1" d="M16.4,13.1l0,1.6c-0.2-0.1-0.4-0.2-0.6-0.3l0,0c0,0,0,0,0,0.1c0,0.1,0.2,0.1,0.2,0.2c0.4,0.2,0.7,0.5,1.1,0.7
	l3,1.8c0.2-0.1,0.3-0.2,0.5-0.3l0.8-0.5l3.5-2.1c0.1,0.1,0.3,0.2,0.4,0.3l0.7,0.5c0.1,0.1,0.2,0.1,0.3,0.2l-4.9,2.9l-1.1,0.7
	c0,0-0.2,0.2-0.3,0.2c0,0-0.1-0.1-0.1-0.1l-0.5-0.3L18,17.7l-1.8-1.1c-0.8-0.5-1.6-1-2.4-1.4c-0.2-0.1-0.4-0.1-0.6-0.2L16.4,13.1z"
	/>
<path class="st1" d="M13.9,6.6l-1.5-0.9l8-4.8c0.3,0.3,0.7,0.5,1.1,0.7l1.5,0.9l4.8,2.9l-1.6,0.9c-0.5-0.2-0.9-0.6-1.3-0.8l-3.2-2
	l-0.8-0.5c-0.2-0.1-0.4-0.3-0.6-0.3C20,2.8,19.9,2.9,19.7,3l-0.9,0.5l-2.6,1.5l-1.8,1.1C14.3,6.3,14,6.4,13.9,6.6z"/>
<path class="st2" d="M12.9,16.1l2.3,1.4l2.9,1.8l1.2,0.8c0.2,0.1,0.3,0.3,0.5,0.3l0,0.1c-0.1,0.3,0,0.7,0,1l0,2.4l-2-1.2l-2.5-1.5
	l-1.5-0.9c-0.3-0.2-0.6-0.4-0.9-0.5l0,0L12.9,16.1z"/>
<path class="st10" d="M10.5,6.8L12,5.9l8.2,4.8l8.2-4.9c0.1,0,0.3,0.2,0.4,0.2l1.1,0.7l-9.7,5.8c-0.2-0.2-0.5-0.3-0.7-0.4l-2.3-1.3
	L10.5,6.8z"/>
<path class="st2" d="M19.8,37.4L4.6,28.2l0-1.6c0-0.2,0-0.5,0-0.6l9,5.5l4.7,2.8l1,0.6c0.1,0.1,0.3,0.2,0.4,0.3L19.8,37.4z"/>
<path class="st12" d="M35.9,25.7l0,2.5l-15.4,9.3l0-2.3L35.9,25.7z"/>
</svg>
