<?xml version="1.0" encoding="utf-8" ?>
<svg xmlns="http://www.w3.org/2000/svg" xmlns:xlink="http://www.w3.org/1999/xlink" width="527" height="527">
	<path fill="#FEFEFE" transform="scale(0.515573 0.515573)" d="M0 -0L1024 0L1024 1024L-0 1024L0 -0Z"/>
	<path fill="#B6170E" transform="scale(0.515573 0.515573)" d="M799.588 657.392L796.186 674.326C784.799 718.754 762.542 756.538 732.726 791.031C706.918 820.887 675.84 846.971 641.818 867.036C626.309 876.182 610.406 884.784 594 892.215C572.631 901.893 550.779 909.729 528.654 917.436L516.054 921.667C514.455 922.196 512.247 923.242 510.59 922.748C448.976 904.376 388.289 875.987 337.933 835.66C278.471 788.04 230.864 720.062 222.782 642.75C215.144 569.689 244.066 494.172 281.747 432.773C289.296 420.472 297.107 407.601 306.231 396.407L307.059 398.25C304.199 404.402 300.378 410.172 297.159 416.151C290.794 427.974 284.726 439.715 279.464 452.078C258.429 501.508 248.917 556.295 255.75 609.771C258.041 627.702 261.618 645.707 267.91 662.709C284.638 707.909 310.958 746.594 346.064 779.576L361.5 792.97C363.513 794.63 365.481 796.649 367.752 797.937C371.131 801.713 375.666 804.643 379.647 807.762C408.338 830.239 440.935 849.633 474.6 863.646C479.695 865.766 485.132 868.441 490.464 869.763L512.656 877.38C553.393 866.183 592.012 851.526 629 830.979C635.413 827.417 643.577 823.677 649.124 818.927C659.838 812.626 670.032 805.585 680.151 798.381C704.137 781.307 726.981 761.897 746.179 739.475C749.956 736.07 753.324 731.681 756.606 727.792C769.169 712.909 780.045 697.112 788.868 679.728L795.199 666.251C796.528 663.226 797.639 660.086 799.588 657.392Z"/>
	<path fill="#FB9A0C" transform="scale(0.515573 0.515573)" d="M534.84 138.236L583.368 96.6206L572.013 126.414L562.741 158.797C559.318 173.146 556.789 189.016 557.069 203.838C557.522 227.808 565.316 251.706 577.155 272.381C584.25 284.772 592.919 295.891 601.52 307.245C635.655 352.301 677.328 392.205 707.251 440.385L731.217 416.349C736.579 423.27 740.905 430.664 745.44 438.129L762.324 467.725C770.432 483.326 778.12 499.189 784.266 515.682C800.772 559.978 806.374 605.478 800.518 652.388C800.328 653.908 800.199 655.999 799.588 657.392C797.639 660.086 796.528 663.226 795.199 666.251L788.868 679.728C780.045 697.112 769.169 712.909 756.606 727.792C753.324 731.681 749.956 736.07 746.179 739.475C726.981 761.897 704.137 781.307 680.151 798.381C670.032 805.585 659.838 812.626 649.124 818.927C650.064 816.413 651.948 814.188 653.478 812L664.25 797.077C695.117 753.047 715.844 698.868 717.436 644.75C718.17 619.805 714.954 595.072 710.658 570.561L672.567 610.006C670.24 606.402 669.037 600.908 667.507 596.821L661.223 582.164C651.63 561.721 639.63 542.708 626.663 524.26C599.786 486.023 566.824 452.707 538.923 415.332C526.567 398.782 515.517 381.509 506.058 363.152C481.288 315.082 476.129 275.232 493.157 223.404C498.525 207.067 505.1 191.388 512.973 176.098L524.843 154.95L531.374 144.6C532.478 142.909 534.267 140.79 534.756 138.829L534.84 138.236Z"/>
	<path fill="#FCCA44" transform="scale(0.515573 0.515573)" d="M746.179 739.475C746.423 734.096 749.786 727.72 751.299 722.496C754.96 709.852 758.648 697.155 760.875 684.165C764.463 663.236 766.418 642.324 765.447 621.075C763.922 587.709 755.226 552.833 743.019 521.815L726.983 485.697L685.124 532.127C683.405 530.515 682.168 527.101 681.065 524.965L674.194 512.591L651.076 476.89C627.811 444.26 601.845 413.716 575.415 383.636C564.851 371.615 555.062 358.663 546.433 345.182C539.124 333.762 532.361 321.59 528.25 308.616C522.896 291.715 521.351 273.996 522.562 256.365C525.218 217.693 541.323 181.267 559.161 147.436L565.854 135.381C567.649 132.131 569.154 128.883 572.013 126.414L562.741 158.797C559.318 173.146 556.789 189.016 557.069 203.838C557.522 227.808 565.316 251.706 577.155 272.381C584.25 284.772 592.919 295.891 601.52 307.245C635.655 352.301 677.328 392.205 707.251 440.385L731.217 416.349C736.579 423.27 740.905 430.664 745.44 438.129L762.324 467.725C770.432 483.326 778.12 499.189 784.266 515.682C800.772 559.978 806.374 605.478 800.518 652.388C800.328 653.908 800.199 655.999 799.588 657.392C797.639 660.086 796.528 663.226 795.199 666.251L788.868 679.728C780.045 697.112 769.169 712.909 756.606 727.792C753.324 731.681 749.956 736.07 746.179 739.475Z"/>
	<path fill="#EB3F18" transform="scale(0.515573 0.515573)" d="M534.84 138.236L534.756 138.829C534.267 140.79 532.478 142.909 531.374 144.6L524.843 154.95L512.973 176.098C505.1 191.388 498.525 207.067 493.157 223.404C476.129 275.232 481.288 315.082 506.058 363.152C515.517 381.509 526.567 398.782 538.923 415.332C566.824 452.707 599.786 486.023 626.663 524.26C639.63 542.708 651.63 561.721 661.223 582.164L667.507 596.821C669.037 600.908 670.24 606.402 672.567 610.006L710.658 570.561C714.954 595.072 718.17 619.805 717.436 644.75C715.844 698.868 695.117 753.047 664.25 797.077L653.478 812C651.948 814.188 650.064 816.413 649.124 818.927C643.577 823.677 635.413 827.417 629 830.979C592.012 851.526 553.393 866.183 512.656 877.38L490.464 869.763C485.132 868.441 479.695 865.766 474.6 863.646C440.935 849.633 408.338 830.239 379.647 807.762C375.666 804.643 371.131 801.713 367.752 797.937C365.481 796.649 363.513 794.63 361.5 792.97L346.064 779.576C310.958 746.594 284.638 707.909 267.91 662.709C261.618 645.707 258.041 627.702 255.75 609.771C248.917 556.295 258.429 501.508 279.464 452.078C284.726 439.715 290.794 427.974 297.159 416.151C300.378 410.172 304.199 404.402 307.059 398.25L306.231 396.407C309.25 391.698 313.23 387.278 316.847 383.012L325.431 399.405C335.678 419.293 346.93 439.411 361.183 456.742C362.44 458.271 364.67 461.642 366.454 462.256L366.736 462.324C364.888 451.368 364.5 439.977 364.477 428.881C364.336 359.731 395.995 291.608 437.66 237.728C445.429 227.683 453.387 217.527 462.36 208.52C467.792 201.474 474.795 195.042 481.037 188.706L534.84 138.236Z"/>
	<path fill="#B6170E" transform="scale(0.515573 0.515573)" d="M462.36 208.52L463.037 210C460.723 215.454 455.8 220.765 452.463 225.748C444.939 236.981 437.492 248.388 431.454 260.506C423.698 276.073 416.997 291.823 412.007 308.5C394.124 368.262 399.548 435.113 422.827 492.648C426.438 501.573 430.495 510.367 435.016 518.87C437.765 524.04 442.518 530.149 444.093 535.637C437.495 531.365 431.367 525.239 425.433 520.067L379.887 477.572L370.637 467.863C369.159 466.218 367.373 464.48 366.736 462.324C364.888 451.368 364.5 439.977 364.477 428.881C364.336 359.731 395.995 291.608 437.66 237.728C445.429 227.683 453.387 217.527 462.36 208.52Z"/>
	<path fill="#BF3506" transform="scale(0.515573 0.515573)" d="M367.752 797.937C364.241 789.345 358.678 780.957 354.432 772.635L319.822 703.865C315.69 695.03 311.253 686.103 307.832 676.963L365.864 704.959C372.143 717.228 377.44 730.702 382.57 743.5L389.974 762.57C390.973 765.269 392.144 770.11 393.964 772.272C394.41 772.801 395.788 773.496 396.404 773.895L404.652 778.78L443.907 801.251L511.862 839.998L617.582 782.635C618.133 784.839 617.705 786.988 617.599 789.228C617.48 791.74 617.629 794.379 617.862 796.886L490.464 869.763C485.132 868.441 479.695 865.766 474.6 863.646C440.935 849.633 408.338 830.239 379.647 807.762C375.666 804.643 371.131 801.713 367.752 797.937Z"/>
	<path fill="#FCCA44" transform="scale(0.515573 0.515573)" d="M511.773 453.827L513.778 443.356L520.179 473.344C527.163 499.857 537.43 525.895 551.281 549.581C556.338 558.229 561.972 567.084 568.318 574.837C580.805 590.093 595.961 602.979 605.545 620.517C607.796 624.635 609.908 628.795 610.65 633.475C611.194 636.901 610.752 640.793 610 644.159C607.275 656.37 602.276 668.751 598.153 680.575C595.901 687.036 594.028 694.073 591.169 700.271L592.045 699.79C595.118 698.06 597.998 695.484 600.837 693.372L615.318 683.525L683.843 644.922L667.579 682.52C661.448 697.319 655.321 712.321 651.104 727.8C648.621 727.287 645.877 728.159 643.456 728.714L629.949 731.75L610.094 735.161C589.061 738.004 567.852 737.861 546.679 737.096L580.399 709.389C582.852 707.342 586.969 704.908 588.798 702.379L589.199 701.799L588.25 701.87C586.509 701.043 586.909 697.54 586.689 695.584C583.701 669.08 568.086 645.175 551.935 624.712C540.869 610.691 529.849 597.644 523.37 580.71C521.731 576.427 520.795 572.163 519.571 567.78C514.261 548.759 511.984 529.3 511.989 509.576L512.932 469.94C512.946 464.788 513.829 458.622 511.773 453.827Z"/>
	<path fill="#FB9A0C" transform="scale(0.515573 0.515573)" d="M511.773 453.827C513.829 458.622 512.946 464.788 512.932 469.94L511.989 509.576C511.984 529.3 514.261 548.759 519.571 567.78C520.795 572.163 521.731 576.427 523.37 580.71C529.849 597.644 540.869 610.691 551.935 624.712C568.086 645.175 583.701 669.08 586.689 695.584C586.909 697.54 586.509 701.043 588.25 701.87L589.199 701.799L588.798 702.379C586.969 704.908 582.852 707.342 580.399 709.389L546.679 737.096C567.852 737.861 589.061 738.004 610.094 735.161L629.949 731.75L643.456 728.714C645.877 728.159 648.621 727.287 651.104 727.8C647.377 740.914 644.123 754.848 642.89 768.448C637.31 772.256 630.88 775.432 624.909 778.618C622.604 779.848 619.638 781.058 617.582 782.635L511.862 839.998L443.907 801.251L404.652 778.78L396.404 773.895C395.788 773.496 394.41 772.801 393.964 772.272C392.144 770.11 390.973 765.269 389.974 762.57L382.57 743.5C377.44 730.702 372.143 717.228 365.864 704.959L340.999 646.343C347.467 650.824 355.181 654.261 362.16 657.942L386.857 670.865C386.683 667.411 385.175 664.341 384.058 661.119C382.362 656.229 381.83 651.736 383.533 646.75C386.462 638.175 394.888 630.482 400.847 623.742C406.312 617.562 411.796 611.288 416.631 604.6C423.501 595.098 430.476 584.408 435.446 573.787C439.06 566.066 441.797 557.849 445.659 550.281C449.559 542.638 454.53 535.48 458.75 527.993C470.929 506.383 479.925 483.801 484.304 459.285C488.034 471.979 490.979 486.431 497.976 497.842C504.007 483.898 508.354 468.606 511.773 453.827Z"/>
	<path fill="#BF3506" transform="scale(0.515573 0.515573)" d="M386.857 670.865C386.683 667.411 385.175 664.341 384.058 661.119C382.362 656.229 381.83 651.736 383.533 646.75C386.462 638.175 394.888 630.482 400.847 623.742C406.312 617.562 411.796 611.288 416.631 604.6C423.501 595.098 430.476 584.408 435.446 573.787C439.06 566.066 441.797 557.849 445.659 550.281C449.559 542.638 454.53 535.48 458.75 527.993C470.929 506.383 479.925 483.801 484.304 459.285C488.034 471.979 490.979 486.431 497.976 497.842C489.033 522.916 477.218 546.231 461.25 567.583C455.7 575.003 449.618 581.918 443.309 588.696C432.962 599.811 420.982 611.097 416.4 626L416.159 626.764C414.771 631.293 414.443 637.092 415.158 641.759C416.314 649.306 419.375 656.629 422.115 663.72L434.939 697.219L386.857 670.865Z"/>
</svg>
