<?xml version="1.0" encoding="utf-8"?>
<!-- Generator: Adobe Illustrator 26.1.0, SVG Export Plug-In . SVG Version: 6.00 Build 0)  -->
<svg version="1.1" id="Layer_1" xmlns="http://www.w3.org/2000/svg" xmlns:xlink="http://www.w3.org/1999/xlink" x="0px" y="0px"
	 viewBox="0 0 30 30" style="enable-background:new 0 0 30 30;" xml:space="preserve">
<style type="text/css">
	.st0{fill:#044182;}
	.st1{fill:#0A85D1;}
	.st2{fill:#69D5F4;}
	.st3{fill:#1078B1;}
	.st4{fill:#001C47;}
	.st5{fill:#2EB6E7;}
	.st6{fill:#65E5FB;}
</style>
<path class="st0" d="M2.1,9.1L2.1,9.1c0.2,0.1,0.3,0.4,0.5,0.5C2.8,9.7,3,9.8,3.2,9.9l0,2.7c0,0.2,0,0.4,0,0.5l0,0.9l0,3l0,2.7
	l0,0.9c0,0.2,0,0.3,0,0.5c0,0.2,0.1,0.4,0.2,0.7l0,0c-0.1,0-0.3-0.2-0.4-0.2c-0.2-0.1-0.4-0.3-0.6-0.4c-0.1-0.1-0.2-0.2-0.2-0.3l0,0
	l0,0.2c0-0.1,0-0.2,0-0.3l0-0.6l0-2.3L2.1,9.1z"/>
<path class="st1" d="M3.2,12.5L3.2,12.5c0.2,0.2,0.3,0.5,0.4,0.7C4,13.8,4.4,14.3,5,14.8l0,0l0,3.6l0,1.1c0,0.2,0,0.5,0,0.7
	c0.1,0.2,0.2,0.4,0.3,0.5l0,0c-0.1,0-0.3,0.2-0.4,0.3c-0.4,0.3-0.9,0.6-1.3,1c-0.1-0.1-0.2-0.1-0.3-0.2c-0.1-0.2-0.2-0.4-0.2-0.7
	c0-0.2,0-0.3,0-0.5l0-0.9l0-2.7l0-3l0-0.9C3.2,12.9,3.1,12.7,3.2,12.5z"/>
<path class="st2" d="M5,14.8L5,14.8c0.2,0.1,0.3,0.2,0.4,0.3l0.8,0.5c0.6,0.3,1.2,0.6,1.9,0.8c0.5,0.2,1.1,0.2,1.7,0.4
	c-0.6,0.7-1.2,1.4-1.9,2c-0.6,0.6-1.2,1.1-1.9,1.6l-0.4,0.3c-0.1,0.1-0.1,0.1-0.2,0.1c-0.2-0.2-0.2-0.3-0.3-0.5
	c-0.1-0.2,0-0.5,0-0.7l0-1.1L5,14.8z"/>
<path class="st3" d="M2.1,9.1c0-0.4,0.1-0.8,0.3-1.1c0.1-0.2,0.3-0.4,0.5-0.5c0.3-0.2,0.6-0.4,0.8-0.5L5,6.1L8.3,4l3.9-2.5L14,0.3
	c0.2-0.1,0.4-0.2,0.6-0.2C14.9,0,15.4,0,15.7,0.1c0.2,0.1,0.4,0.2,0.6,0.3L17,0.9l1.3,0.8l6.8,4.4l-0.9,0.6l0,0L22,5.3L18,2.7
	l-1.7-1.1c-0.3-0.2-0.6-0.4-0.9-0.6C15.4,1,15.3,1,15.2,1C15,1,14.8,1,14.6,1c-0.3,0.1-0.5,0.3-0.8,0.5l-0.9,0.6l-2.6,1.7L8.2,5.2
	L4.9,7.3L4.1,7.8C3.9,7.9,3.7,8,3.5,8.2C3.4,8.3,3.2,8.5,3.2,8.7l0,0.2l0,1C3,9.8,2.8,9.7,2.6,9.6C2.4,9.4,2.3,9.2,2.1,9.1L2.1,9.1z
	"/>
<path class="st4" d="M14.7,28.8c0,0,0.3,0,0.3,0l0,0c0.3-0.1,0.6-0.2,0.9-0.3l1-0.6l1.7-1.1l2.4-1.6l1.9-1.2l1.2-0.7l2.1-1.4
	l0.5-0.3c0,0,0.1-0.1,0.1-0.1c0,0,0-0.3,0-0.4l0-1.7l0-9.5c0,0,0,0,0-0.1c0,0,0.1,0,0.1,0c0.1,0,0.2-0.1,0.2-0.1
	c0.2-0.1,0.4-0.3,0.5-0.5c0-0.1,0.1-0.2,0.1-0.2l0,0l0,8.5l0,2.5l0,0.8c0,0.2,0,0.4,0,0.5c-0.1,0.4-0.2,0.8-0.5,1
	c-0.3,0.3-0.8,0.6-1.2,0.8l-2.3,1.5l-5,3.2l-2,1.3c-0.3,0.2-0.5,0.4-0.8,0.5c-0.3,0.1-0.5,0.2-0.8,0.3c-0.4,0.1-0.9,0-1.2-0.2
	c-0.2-0.1-0.4-0.2-0.6-0.3l-0.6-0.4l-2.7-1.8l-4.3-2.8l-1.5-1c-0.4-0.3-0.9-0.5-1.3-0.9c-0.5-0.4-0.8-1-0.9-1.6l0-0.1l0-0.2l0,0
	c0.1,0.1,0.1,0.2,0.2,0.3c0.2,0.2,0.4,0.3,0.6,0.4c0.1,0.1,0.2,0.2,0.4,0.2l0,0c0.1,0.1,0.2,0.1,0.3,0.2l2.7,1.7L9.9,26l2.5,1.6
	c0.4,0.3,0.9,0.6,1.3,0.9C14,28.6,14.4,28.8,14.7,28.8z"/>
<path class="st5" d="M12,14.6L12,14.6l1,0.7l0.7,0.5c0.2,0.2,0.5,0.3,0.8,0.4c0.1,0,0.3,0.1,0.4,0.1c0.1,0,0.2,0,0.2,0l-0.2,0
	l0,12.6l-0.4,0c-0.4,0-0.7-0.1-1-0.3c-0.5-0.3-0.9-0.6-1.3-0.9L9.9,26l-3.6-2.4l-2.7-1.7c0.4-0.3,0.8-0.7,1.3-1
	c0.1-0.1,0.3-0.2,0.4-0.3l0,0c0.1,0,0.1-0.1,0.2-0.1l0.4-0.3c0.7-0.5,1.3-1,1.9-1.6c0.7-0.6,1.3-1.3,1.9-2l0,0l0.9-1
	c0.2-0.2,0.4-0.4,0.6-0.6l0,0L12,14.6z"/>
<path class="st2" d="M11.2,15.1L11.2,15.1l1.2,0.7c0.3,0.2,0.6,0.4,0.9,0.6c-0.2,0.1-0.5,0.1-0.8,0.2c-0.9,0.1-1.9,0.2-2.8,0.1
	l0.9-1C10.8,15.5,11,15.3,11.2,15.1z"/>
<path class="st3" d="M12,14.6L12,14.6l1,0.7l0.7,0.5c0.2,0.2,0.5,0.3,0.8,0.4c0.1,0,0.3,0.1,0.4,0.1c0.1,0,0.2,0,0.2,0l-0.2,0
	l0,12.6l-0.4,0c-0.4,0-0.7-0.1-1-0.3c-0.5-0.3-0.9-0.6-1.3-0.9L9.9,26l-3.6-2.4l-2.7-1.7c0.4-0.3,0.8-0.7,1.3-1
	c0.1-0.1,0.3-0.2,0.4-0.3c0.3,0.3,0.7,0.5,1.1,0.7l2,1.3l1.5,0.9l1,0.7l2.7,1.8c0.1,0.1,0.2,0.1,0.3,0.1c0.1,0,0.1-0.1,0.2-0.1
	c0,0,0-0.1,0-0.1l0-1.8l0-3.7l0-1.6c0-0.3,0-0.6,0-0.9l0-0.1c-0.1-0.5-0.4-0.9-0.8-1.2c-0.3-0.2-0.6-0.4-0.9-0.6l-1.2-0.7L12,14.6z"
	/>
<path class="st2" d="M10,6.4L10,6.4c0.3-0.1,0.5-0.3,0.8-0.5L12,5.1l2-1.3l1-0.6l7.3,4.7l-0.9,0.6c-0.2,0.1-0.5,0.3-0.7,0.4
	l-0.8,0.5l-1.2,0.8l-3.4,2.2l-1.4,0.9c-0.1,0.1-0.3,0.2-0.5,0.3l0,0l-1.4,1l0,0l-0.8,0.5l0,0c-0.2,0.2-0.4,0.4-0.6,0.6l-0.9,1l0,0
	c-0.6-0.1-1.1-0.2-1.7-0.4c-0.6-0.2-1.3-0.4-1.9-0.8l-0.8-0.5C5.3,15,5.2,14.9,5,14.8l0,0l0,0c-0.5-0.4-1-1-1.4-1.6
	c-0.1-0.2-0.3-0.5-0.4-0.7l0,0l0-2.7l0-1l0-0.2c0-0.2,0.2-0.4,0.3-0.5C3.7,8,3.9,7.9,4.1,7.8l0.8-0.5l3.3-2.1l1.4,0.9
	C9.7,6.2,9.9,6.3,10,6.4z"/>
<path class="st5" d="M3.2,8.9c0.3,0.2,0.6,0.4,0.9,0.6l1.7,1.1l2.6,1.7l2.1,1.3l1.2,0.8c0.1,0.1,0.3,0.2,0.4,0.3l-0.8,0.5l0,0
	c-0.2-0.1-0.4-0.2-0.5-0.3l-1.4-0.9l-1.8-1.1l-1.7-1.1c-0.1,0-0.2-0.1-0.3-0.1c-0.1,0-0.3,0.1-0.4,0.2C5.1,11.8,5,11.9,5,12
	c0,0.1,0,0.2,0,0.3l0,0.5l0,1.9c-0.5-0.4-1-1-1.4-1.6c-0.1-0.2-0.3-0.5-0.4-0.7l0,0l0-2.7L3.2,8.9z"/>
<path class="st6" d="M5,14.8l0-1.9l0-0.5c0-0.1,0-0.2,0-0.3c0-0.1,0.1-0.2,0.1-0.3c0.1-0.1,0.2-0.2,0.4-0.2c0.1,0,0.2,0,0.3,0.1
	l1.7,1.1l1.8,1.1l1.4,0.9c0.2,0.1,0.4,0.2,0.5,0.3c-0.2,0.2-0.4,0.4-0.6,0.6l-0.9,1l0,0c-0.6-0.1-1.1-0.2-1.7-0.4
	c-0.6-0.2-1.3-0.4-1.9-0.8l-0.8-0.5C5.3,15,5.2,14.9,5,14.8L5,14.8L5,14.8z"/>
<path class="st5" d="M10,6.4L10,6.4c0.2,0.1,0.4,0.2,0.5,0.3l1.2,0.7c1.2,0.6,2.4,1.1,3.7,1.4c1,0.2,2,0.3,3,0.3c0.5,0,1,0,1.6-0.1
	c0.2,0,0.4-0.1,0.7-0.1l-0.8,0.5l-1.2,0.8l-3.4,2.2l-1.4,0.9c-0.1,0.1-0.3,0.2-0.5,0.3l0,0l-2-1.3l-2.3-1.5L7.7,9.9
	C7.5,9.8,7.2,9.6,7,9.4C6.9,9.3,6.8,9.2,6.7,9.1l0,0c0-0.1,0-0.2,0-0.3c0-0.1,0.1-0.3,0.3-0.4C7.3,8.1,7.7,7.9,8,7.7L10,6.4z"/>
<path class="st0" d="M25.1,6.1l1.1,0.7c0.4,0.3,0.9,0.5,1.2,0.9c0.2,0.3,0.4,0.6,0.5,0.9c0,0.1,0,0.2,0,0.4l0,0
	c-0.1,0.1-0.1,0.1-0.1,0.2c-0.1,0.2-0.3,0.4-0.5,0.5c-0.1,0-0.2,0.1-0.2,0.1c0,0-0.1,0-0.1,0c0,0,0,0,0,0.1l0,9.5l0,1.7
	c0,0,0,0.4,0,0.4c0,0-0.1,0.1-0.1,0.1l-0.5,0.3l-2.1,1.4L23,23.9l-1.9,1.2l-2.4,1.6L17,27.8l-1,0.6c-0.3,0.2-0.6,0.3-0.9,0.3l0,0
	c-0.1,0-0.3,0-0.3,0l0.4,0l0-12.6l0.2,0c-0.1,0-0.2,0-0.2,0c-0.1,0-0.3,0-0.4-0.1c-0.3-0.1-0.5-0.2-0.8-0.4l-0.7-0.5l-1-0.7l1.4-1
	l0,0c0.1-0.1,0.3-0.2,0.5-0.3l1.4-0.9l3.4-2.2l1.2-0.8l0.8-0.5c0.2-0.1,0.5-0.3,0.7-0.4l0.9-0.6l0,0l1.8-1.2l0,0L25.1,6.1z"/>
<path class="st5" d="M24.1,6.7L24.1,6.7l1.5,1c0.3,0.2,0.6,0.3,0.8,0.6c0.1,0.1,0.2,0.2,0.2,0.3c0,0.2,0,0.3-0.1,0.4
	c0,0.1-0.1,0.1-0.2,0.1L25,10L20.5,13l-3.1,2l-1.5,1c-0.2,0.1-0.5,0.2-0.7,0.3c-0.1,0-0.2,0-0.2,0c-0.1,0-0.3,0-0.4-0.1
	c-0.3-0.1-0.5-0.2-0.8-0.4l-0.7-0.5l-1-0.7l1.4-1l0,0c0.1-0.1,0.3-0.2,0.5-0.3l1.4-0.9l3.4-2.2l1.2-0.8l0.8-0.5
	c0.2-0.1,0.5-0.3,0.7-0.4l0.9-0.6l0,0L24.1,6.7z"/>
<path class="st3" d="M22.3,7.9L22.3,7.9L22.3,7.9c0.2,0.2,0.4,0.3,0.6,0.4c0.1,0.1,0.2,0.1,0.3,0.2c0.1,0.1,0.1,0.2,0.1,0.3
	c0,0.1,0,0.2,0,0.3l0,0c0,0.1-0.1,0.2-0.2,0.3c-0.3,0.3-0.7,0.5-1.1,0.7l-2.5,1.6L17,13.5L16.2,14c-0.2,0.1-0.4,0.3-0.7,0.4
	c-0.3,0.1-0.6,0.1-0.9,0c-0.2-0.1-0.3-0.2-0.5-0.3l-0.7-0.5c0.1-0.1,0.3-0.2,0.5-0.3l1.4-0.9l3.4-2.2l1.2-0.8l0.8-0.5
	c0.2-0.1,0.5-0.3,0.7-0.4L22.3,7.9z"/>
<path class="st3" d="M15.9,18.1c0-0.2,0-0.5,0.1-0.7c0.1-0.3,0.3-0.6,0.6-0.9c0.2-0.1,0.3-0.2,0.5-0.4l0.7-0.4l2.5-1.6l2.9-1.9
	l0.9-0.6c0.1-0.1,0.3-0.2,0.4-0.3c0.2,0.1,0.2,0.2,0.3,0.3c0.1,0.1,0.1,0.3,0.1,0.4l0,1.4l0,2.8l0,2.7c0,0.4,0,0.8,0,1.1
	c0,0.1,0,0.1,0,0.2c-0.1,0.2-0.2,0.3-0.3,0.5c-0.3,0.2-0.6,0.4-0.9,0.6l-0.7,0.5l-2.2,1.5l-1.3,0.9l-2.3,1.5L16.8,26
	c-0.1,0.1-0.2,0.2-0.3,0.2c-0.1,0-0.2,0.1-0.4,0c-0.1,0-0.1-0.1-0.2-0.2c0-0.1,0-0.3,0-0.4l0-1.1l0-4.6l0-1.2
	C15.9,18.5,15.9,18.3,15.9,18.1z"/>
<path class="st5" d="M15.9,18.1c0-0.2,0-0.5,0.1-0.7c0.1-0.3,0.3-0.6,0.6-0.9c0.2-0.1,0.3-0.2,0.5-0.4l0.7-0.4l2.5-1.6l2.9-1.9
	l0.9-0.6c0.1-0.1,0.3-0.2,0.4-0.3c0.2,0.1,0.2,0.2,0.3,0.3c-0.8,0.5-1.6,1.2-2.3,1.8c-2.1,1.8-4,3.9-5.3,6.4c-0.2,0.3-0.3,0.7-0.5,1
	c-0.3,0.6-0.5,1.2-0.7,1.9L16,23.6L16,23.9c0,0.1,0,0.1,0,0.2c0-0.2,0-0.4,0-0.6l0-0.9l0-3.1l0-0.9C15.9,18.5,15.9,18.3,15.9,18.1z"
	/>
</svg>
