<?xml version="1.0" encoding="utf-8"?>
<!-- Generator: Adobe Illustrator 26.1.0, SVG Export Plug-In . SVG Version: 6.00 Build 0)  -->
<svg version="1.1" id="Layer_1" xmlns="http://www.w3.org/2000/svg" xmlns:xlink="http://www.w3.org/1999/xlink" x="0px" y="0px"
	 viewBox="0 0 30 30" style="enable-background:new 0 0 30 30;" xml:space="preserve">
<style type="text/css">
	.st0{fill:#9C9B9B;}
	.st1{fill:#893825;}
	.st2{fill:#683115;}
	.st3{fill:#C2C1C1;}
	.st4{fill:#AC73D8;}
	.st5{fill:#8A05C1;}
	.st6{fill:#C1BFBD;}
	.st7{fill:#BC0FF4;}
	.st8{fill:#040711;}
	.st9{fill:#FEFEFE;}
</style>
<path class="st0" d="M17.8,4.1l1.3,0l0,2.1l-0.9,0l-0.4,0L17.8,4.1z"/>
<path class="st1" d="M11.5,2c0-0.2,0-0.4,0-0.6c0.1-0.4,0.3-0.9,0.6-1.1C12.4,0.1,12.6,0,12.9,0c0.3-0.1,0.6,0,0.9,0l1.3,0l0.9,0
	c0.2,0,0.3,0,0.5,0c0.5,0.1,0.9,0.3,1.1,0.6l0,0c-0.1,0.1-0.1,0.3-0.2,0.4c-0.3,0.5-0.7,0.8-1.2,1C16,2,15.9,2,15.7,2l-0.6,0
	C14.7,2,11.6,2,11.5,2C11.6,2,11.6,2,11.5,2z"/>
<path class="st2" d="M11.5,2C11.6,2,11.6,2,11.5,2c0.1,0,3.2,0,3.5,0l0.6,0c0.1,0,0.3,0,0.5,0c0.5-0.2,1-0.5,1.2-1
	c0.1-0.1,0.1-0.3,0.2-0.4l0,0C17.9,1,18.1,1.5,18,2c0,0.1-0.1,0.3-0.1,0.4l-0.2,0.5l-0.5,1.3l0,0c-0.1,0-0.2,0-0.3,0l-0.6,0l-3.3,0
	l-0.4,0c0,0-0.1,0-0.2,0c0,0,0,0,0,0l-0.5-1.3C11.7,2.5,11.6,2.3,11.5,2z"/>
<path class="st3" d="M12.3,4.1C12.3,4.1,12.3,4.1,12.3,4.1c0.1,0,0.2,0,0.2,0l0.4,0l3.3,0l0.6,0c0.1,0,0.2,0,0.3,0l0,0
	c0.2,0,0.5,0,0.7,0l0,2.1l-1.5,0l-5.1,0l-1,0l0-2c0,0,0,0,0,0c0,0,1.3,0,1.5,0C12,4.1,12.2,4.1,12.3,4.1z"/>
<path class="st0" d="M12.3,4.1C12.3,4.1,12.3,4.1,12.3,4.1c0.1,0,0.2,0,0.2,0l0.4,0l3.3,0l0.6,0c0.1,0,0.2,0,0.3,0
	c-0.2,0-0.4,0-0.6,0l-1.4,0l-2.7,0c-0.1,0-0.2,0-0.4,0l-0.7,0l-0.7,0c-0.1,0-0.2,0-0.3,0c0,0,0,0,0,0c0,0,1.3,0,1.5,0
	C12,4.1,12.2,4.1,12.3,4.1z"/>
<path class="st4" d="M17.9,6.2l0.4,0l0,3.5l3.6,3.6l1.2,1.2l1.9,1.9l1.5,1.5c0.3,0.3,0.7,0.7,1,1.1c0.3,0.5,0.5,1.2,0.5,1.8
	c0,0.5-0.1,1-0.3,1.5c-0.1,0.2-0.3,0.5-0.4,0.7l-0.5,0.7l-1.4,2l-1.4,2c-0.3,0.4-0.6,0.9-1,1.3c-0.6,0.7-1.6,1.1-2.5,1.1l-2.9,0
	l-5.4,0l-2.4,0c-0.5,0-1.1,0-1.7-0.1c-0.7-0.1-1.3-0.5-1.8-1c-0.1-0.1-0.3-0.3-0.4-0.5c0.1-0.1,0.3-0.1,0.4-0.1L7.7,28l0,0
	c0.2,0.2,0.5,0.3,0.8,0.4c0.2,0,0.4,0,0.6,0l0.8,0l2.9,0l5.3,0l2.6,0c0.5,0,1-0.2,1.4-0.6c0.1-0.1,0.2-0.3,0.3-0.4l0.5-0.7l1.6-2.3
	l1.5-2.1c0.2-0.3,0.4-0.5,0.6-0.8c0.1-0.3,0.2-0.6,0.2-0.9c0-0.3-0.1-0.6-0.3-0.9c-0.2-0.3-0.5-0.5-0.7-0.7l-1.1-1.1L23,16.4
	l-1.7-1.6l-0.6-0.6l-0.9-0.9l-2.8-2.6c-0.3-0.3-0.4-0.6-0.5-0.9c0-0.2,0-0.4,0-0.5l0-0.7l0-2.3L17.9,6.2z"/>
<path class="st5" d="M19.7,13.3l0.9,0.9l0.6,0.6l1.7,1.6l1.5,1.5l1.1,1.1c0.2,0.2,0.5,0.5,0.7,0.7c0.2,0.3,0.3,0.6,0.3,0.9
	c0,0.3,0,0.6-0.2,0.9c-0.1,0.3-0.4,0.6-0.6,0.8l-1.5,2.1l-1.6,2.3l-0.5,0.7c-0.1,0.1-0.2,0.3-0.3,0.4c-0.3,0.4-0.8,0.6-1.4,0.6
	l-2.6,0l-5.3,0l-2.9,0l-0.8,0c-0.2,0-0.4,0-0.6,0c-0.3,0-0.6-0.2-0.8-0.4l0,0l-0.2-0.3c0.1,0,0.2,0,0.2,0l0.4,0l1.3-0.1l2.3-0.4
	l1.9-0.5c0.8-0.3,1.7-0.6,2.5-0.9c0.3-0.2,0.7-0.3,1-0.5l0.4-0.3c0.1,0,0.1-0.1,0.2-0.1l0,0c0,0.2,0.1,0.4,0.2,0.5
	c0.1,0.2,0.4,0.4,0.6,0.5c0.3,0.1,0.6,0,0.8-0.1c0.2-0.2,0.4-0.4,0.4-0.7c0,0,0-0.2,0-0.2c0,0,0.1-0.1,0.1-0.1
	c0.2-0.2,0.4-0.4,0.4-0.6c0.1-0.3,0-0.6-0.2-0.8l0,0c0.2-0.2,0.4-0.4,0.5-0.6c0.6-0.9,1-1.9,1.1-3c0-0.6,0-1.3-0.1-2
	c-0.2-1.1-0.8-2.2-1.5-3.1c-0.3-0.4-0.6-0.7-0.9-1L19.7,13.3z"/>
<path class="st6" d="M11.3,6.2l5.1,0l0,2.3l0,0.7c0,0.2,0,0.4,0,0.5c0.1,0.4,0.3,0.7,0.5,0.9l2.8,2.6l-0.4,0.1
	c-0.7,0.2-1.4,0.3-2.1,0.4c-2.5,0.3-5,0.2-7.4-0.5c0,0-0.1,0-0.1,0c0,0-0.1,0.1-0.1,0.1l-0.3,0.3l-1.6,1.6l-2,2l-2.4,2.4
	c-0.1,0.1-0.2,0.2-0.2,0.3c-0.2,0.3-0.3,0.8-0.2,1.1c0,0.2,0.1,0.3,0.2,0.4c0.2,0.4,0.5,0.7,0.8,1.1l1.8,2.6l1.1,1.6
	c0.2,0.3,0.4,0.6,0.7,0.9L7.7,28l-1.2,0.3c-0.1,0-0.3,0-0.4,0.1c0,0-0.1-0.1-0.1-0.2l-0.2-0.3l-1-1.4l-0.6-0.8l-1.3-1.9l-0.6-0.9
	c-0.2-0.2-0.3-0.5-0.5-0.7c-0.2-0.4-0.3-1-0.3-1.5c0-0.7,0.2-1.3,0.6-1.9c0.1-0.2,0.3-0.3,0.4-0.5L3,17.9l2.2-2.2L7,13.9l4-4
	c0.1-0.1,0.3-0.2,0.3-0.3c0-0.1,0-0.2,0-0.3l0-0.7L11.3,6.2z"/>
<path class="st7" d="M7.5,27.8c-0.2-0.3-0.4-0.6-0.7-0.9l-1.1-1.6l-1.8-2.6c-0.3-0.4-0.5-0.7-0.8-1.1c-0.1-0.1-0.2-0.3-0.2-0.4
	c-0.1-0.4,0-0.8,0.2-1.1c0.1-0.1,0.1-0.2,0.2-0.3l2.4-2.4l2-2l1.6-1.6l0.3-0.3c0,0,0.1-0.1,0.1-0.1c0,0,0.1,0,0.1,0
	c2.4,0.6,5,0.8,7.4,0.5c0.7-0.1,1.4-0.2,2.1-0.4c0.3,0.3,0.6,0.7,0.9,1c0.7,0.9,1.2,2,1.5,3.1c0.1,0.6,0.2,1.3,0.1,2
	c-0.1,1.1-0.4,2.1-1.1,3c-0.2,0.2-0.3,0.5-0.5,0.6l0,0c0.2,0.2,0.2,0.5,0.2,0.8c0,0.3-0.2,0.5-0.4,0.6c0,0-0.1,0.1-0.1,0.1
	c0,0,0,0.1,0,0.2c0,0.3-0.2,0.5-0.4,0.7c-0.2,0.2-0.5,0.2-0.8,0.1c-0.3-0.1-0.5-0.2-0.6-0.5c-0.1-0.2-0.1-0.3-0.2-0.5l0,0
	c-0.1,0-0.1,0.1-0.2,0.1l-0.4,0.3c-0.3,0.2-0.7,0.4-1,0.5c-0.8,0.4-1.6,0.7-2.5,0.9l-1.9,0.5l-2.3,0.4l-1.3,0.1l-0.4,0
	C7.6,27.7,7.5,27.7,7.5,27.8z"/>
<path class="st8" d="M17.8,24.8c0-0.1,0-0.2,0-0.3c0,0-0.1-0.1-0.2-0.1l-0.4-0.2l-0.7-0.3c0,0.2,0,0.4-0.1,0.5
	c-0.1,0.1-0.3,0.2-0.5,0.2c-0.4,0-0.9,0-1.3,0l-0.7,0c-0.1,0-0.3,0-0.5,0c-0.1,0-0.2-0.1-0.3-0.2C13,24.3,13,24.1,13,23.8
	c-0.2,0.1-0.4,0.2-0.6,0.3c-0.2,0.1-0.4,0.2-0.7,0.3c0,0.1,0,0.2,0,0.4c0,0.3-0.1,0.5-0.3,0.7c-0.2,0.2-0.5,0.3-0.8,0.3
	c-0.2,0-0.5-0.1-0.7-0.3c-0.2-0.2-0.3-0.5-0.3-0.8c-0.1,0-0.1-0.1-0.2-0.1c-0.2-0.2-0.3-0.4-0.4-0.7c0-0.3,0.1-0.6,0.3-0.8
	c0.2-0.2,0.5-0.3,0.8-0.3c0.4,0,0.6,0.1,0.9,0.4l1.6-0.8c-0.1-0.1-0.3-0.1-0.4-0.2c-0.4-0.2-0.7-0.5-1-0.9c-0.5-0.8-0.7-1.9-0.5-2.9
	c0.2-1.1,0.9-2,1.8-2.6c0.9-0.6,2-0.7,3-0.5c1.1,0.2,2,0.9,2.6,1.8c0.6,0.9,0.7,2,0.5,3.1c-0.2,0.7-0.6,1.5-1.2,2
	c-0.2,0.1-0.4,0.2-0.6,0.3l1.6,0.8l0,0c0.2-0.2,0.5-0.4,0.8-0.4c0.3,0,0.6,0.2,0.8,0.4c0.2,0.2,0.2,0.5,0.2,0.8
	c0,0.3-0.2,0.5-0.4,0.6c0,0-0.1,0.1-0.1,0.1c0,0,0,0.1,0,0.2c0,0.3-0.2,0.5-0.4,0.7c-0.2,0.2-0.5,0.2-0.8,0.1
	c-0.3-0.1-0.5-0.2-0.6-0.5C17.9,25.1,17.8,24.9,17.8,24.8z"/>
<path class="st9" d="M14.8,20.8l0.9,1.4l-0.9,0l-0.9,0c0-0.1,0.1-0.2,0.2-0.3l0.4-0.7C14.6,21.1,14.7,20.9,14.8,20.8z"/>
<path class="st9" d="M16.3,18.5c0.2,0,0.5,0,0.7,0.2c0.2,0.1,0.4,0.4,0.4,0.6c0.1,0.3,0,0.5-0.1,0.8c-0.2,0.3-0.4,0.4-0.7,0.4
	c-0.3,0-0.5,0-0.8-0.2c-0.2-0.1-0.4-0.4-0.4-0.6c0-0.3,0-0.5,0.2-0.8C15.7,18.7,16,18.6,16.3,18.5z"/>
<path class="st9" d="M12.9,18.5c0.2,0,0.4,0,0.6,0.1c0.3,0.1,0.5,0.4,0.5,0.7c0.1,0.3,0,0.5-0.1,0.8c-0.2,0.3-0.4,0.4-0.7,0.5
	c-0.2,0-0.5,0-0.7-0.1c-0.3-0.2-0.4-0.4-0.5-0.7c-0.1-0.3,0-0.6,0.1-0.8C12.3,18.7,12.6,18.5,12.9,18.5z"/>
</svg>
