<?xml version="1.0" encoding="utf-8"?>
<!-- Generator: Adobe Illustrator 26.1.0, SVG Export Plug-In . SVG Version: 6.00 Build 0)  -->
<svg version="1.1" id="Layer_1" xmlns="http://www.w3.org/2000/svg" xmlns:xlink="http://www.w3.org/1999/xlink" x="0px" y="0px"
	 viewBox="0 0 40 40" style="enable-background:new 0 0 40 40;" xml:space="preserve">
<style type="text/css">
	.st0{fill:#116635;}
	.st1{fill:#3BA964;}
	.st2{fill:#338E3F;}
	.st3{fill:#7DCA7B;}
	.st4{fill:#FDFDFD;}
</style>
<path class="st0" d="M34.6,36.6c0,0.1-0.1,0.1-0.1,0.2c-0.4,0.5-1.1,0.8-1.6,1.1c-2.1,1.1-4.5,1.8-6.9,2c-0.8,0-1.5,0-2.3,0
	c-4.4-0.4-8.8-2.3-12-5.3c-0.7-0.6-1.3-1.2-1.9-1.9c-2.4-2.7-4-5.9-4.8-9.4c-0.3-1.3-0.5-2.7-0.6-4l0-2.4c0-1.6,0.2-3.3,0.6-4.9
	C5.6,8.7,7,5.7,8.8,2.9L10,1.2c0.3-0.4,0.7-0.9,1-1.3l0,0c0,0.1-0.2,0.4-0.3,0.5l-0.6,1C9.4,2.7,8.9,3.9,8.3,5.2
	C7.9,6.4,7.5,7.7,7.2,9c-1,4.8-0.6,10,1.2,14.5c0.5,1.2,1.1,2.4,1.8,3.4c1.1,1.7,2.4,3.3,3.9,4.6l1,0.8c2.7,2.2,6,3.7,9.3,4.5
	c1.9,0.4,3.8,0.6,5.7,0.5c0.7,0,1.4-0.1,2-0.2c0.5-0.1,1-0.2,1.5-0.3l0.5-0.2C34.3,36.7,34.4,36.6,34.6,36.6z"/>
<path class="st1" d="M11-0.1l4.5,2.1l4.2,2.2c2.7,1.6,5.3,3.4,7.6,5.6c0.8,0.8,1.6,1.7,2.4,2.6c2,2.4,3.7,5.2,4.9,8.1
	c1.1,3,1.7,6.2,1.5,9.4c-0.1,1.1-0.2,2.3-0.5,3.4l-0.4,1.5c-0.2,0.5-0.3,1.1-0.6,1.6c0,0,0,0.1-0.1,0.1c-0.1,0-0.3,0.1-0.4,0.1
	l-0.5,0.2c-0.5,0.1-1,0.2-1.5,0.3c-0.7,0.1-1.3,0.2-2,0.2c-1.9,0.1-3.8-0.1-5.7-0.5c-3.4-0.8-6.6-2.3-9.3-4.5l-1-0.8
	c-1.5-1.4-2.8-2.9-3.9-4.6c-0.7-1.1-1.3-2.3-1.8-3.4C6.6,19,6.2,13.8,7.2,9c0.3-1.3,0.6-2.6,1.1-3.8c0.5-1.3,1.1-2.5,1.8-3.7l0.6-1
	C10.8,0.3,11,0.1,11-0.1L11-0.1z"/>
<path class="st0" d="M15.9,6.5c0.3,0.1,0.6,0.3,0.8,0.4l1.8,1c4.9,2.9,9.1,7,11.7,12.1c0.3,0.7,0.6,1.3,0.9,2c0.5,1.2,0.8,2.5,1,3.8
	c0.1,0.9,0.2,1.8,0.2,2.6c0,0.6,0,1.3,0,1.9c0,0,0,0,0-0.1c0,0,0-0.1,0-0.2l0-0.5l-0.1-1.5c-0.4-2.9-1.1-5.7-2.4-8.3l-0.3-0.6
	c-0.1-0.2-0.1-0.3-0.3-0.4c-0.2-0.5-0.5-0.9-0.8-1.4c-0.8-1.3-1.7-2.4-2.7-3.5c-0.4-0.5-0.9-1-1.3-1.4l-2.2-1.9
	c-1.1-0.9-2.2-1.7-3.4-2.4c-0.1-0.1-0.3-0.2-0.5-0.3l-1.7-1C16.3,6.7,16.1,6.6,15.9,6.5z"/>
<path class="st2" d="M29.1,18.7c0.1,0.1,0.2,0.3,0.3,0.4l0.3,0.6c1.3,2.6,2.1,5.5,2.4,8.3l0.1,1.5l0,0.5c0,0,0,0.1,0,0.2
	c0,0,0,0,0,0.1c0,0.3,0,0.6,0,0.8c0,0.6-0.1,1.1,0,1.7c0,0,0,0.1,0,0.1l-3.9-3.4c0.1-0.2,0.1-0.5,0.2-0.7l0.4-1.3
	c0.4-1.7,0.7-3.4,0.6-5.1c0-0.4,0-0.8-0.1-1.2c-0.1-0.6-0.2-1.3-0.3-1.9L29.1,18.7z"/>
<path class="st3" d="M18.7,8.2c1.2,0.7,2.3,1.5,3.4,2.4l2.2,1.9c0.5,0.4,0.9,0.9,1.3,1.4c1,1.1,1.9,2.2,2.7,3.5
	c0.3,0.4,0.6,0.9,0.8,1.4l0.2,0.7c0.1,0.6,0.3,1.2,0.3,1.9c0,0.4,0.1,0.8,0.1,1.2c0,1.7-0.2,3.4-0.6,5.1l-0.4,1.3
	c-0.1,0.2-0.1,0.5-0.2,0.7c-0.1-0.1-0.2-0.2-0.3-0.3l-0.7-0.6l-1.3-1.3l-1-1l-3-3.5l-3.2-4.6c0.1-0.1,0.1-0.2,0.1-0.3l0.1-0.6
	c0.2-1,0.3-1.9,0.4-2.9c0.1-1.3,0.1-2.5-0.1-3.7C19.3,10.1,19.2,9.6,19,9C18.9,8.8,18.8,8.5,18.7,8.2L18.7,8.2z"/>
<path class="st1" d="M22.1,22.8c0.3-0.9,0.4-1.8,0.5-2.7c0.4-2.4,0.6-4.9,0-7.3l-0.5-1.6L22,10.6c1.3,1,2.5,2.1,3.6,3.4l0.3,0.3
	c0,0,0.1,0.1,0.1,0.1c0,0.1,0,0.2,0.1,0.3c0.1,0.6,0.3,1.3,0.3,1.9c0.1,0.9,0.2,1.9,0.1,2.8c-0.1,1.8-0.4,3.6-0.9,5.4l-0.3,0.9
	c-0.1,0.2-0.1,0.4-0.2,0.5L22.1,22.8z"/>
<path class="st3" d="M11.6,4.1l-0.2-1.8c0.2,0.4,0.4,0.8,0.7,1.1c0.7,1,1.5,1.8,2.6,2.4c0.1,0,0.2,0.1,0.3,0.2l0.5,0.3
	c0.1,0,0.2,0.1,0.3,0.1c0.1,0,0.2,0.1,0.2,0.1c0.2,0.1,0.4,0.2,0.6,0.4l1.7,1c0.1,0.1,0.4,0.2,0.5,0.3l0,0c0,0.3,0.2,0.5,0.3,0.8
	c0.2,0.6,0.3,1.1,0.4,1.7c0.2,1.2,0.2,2.5,0.1,3.7c-0.1,1-0.2,1.9-0.4,2.9L19,17.9c0,0.1,0,0.2-0.1,0.3l3.2,4.6l3,3.5l1,1l1.3,1.3
	l0.7,0.6c0.1,0.1,0.2,0.2,0.3,0.3l3.9,3.4c0.2,0.2,0.3,0.5,0.4,0.7l0.7,1.2l0.5,0.7c0.1,0.1,0.2,0.2,0.2,0.3l-2.3-1.1
	c-0.2,0-0.4,0-0.6,0l-1.6-0.2c-0.3-0.1-0.7-0.1-1-0.2l0,0l0,0l-0.1,0c-0.1,0-0.1,0-0.2,0l-0.1,0l-0.2,0l-0.1,0L26.5,34l-1.9-0.5
	c-0.7-0.2-1.3-0.4-2-0.7c-0.8-0.3-1.7-0.7-2.5-1.2c-0.1-0.1-0.3-0.2-0.4-0.3c-0.3-0.2-0.6-0.4-0.9-0.6c-1.3-0.9-2.5-2-3.6-3.2
	c-0.8-0.8-1.5-1.8-2.1-2.7c-0.7-1.1-1.2-2.2-1.6-3.3c-1.2-3.1-1.7-6.4-1.5-9.7c0.1-2.3,0.6-4.7,1.2-7l0.1-0.5c0-0.1,0-0.2,0.1-0.2
	L11.6,4.1L11.6,4.1L11.6,4.1z"/>
<path class="st1" d="M11.4,4.2l0.1-0.1l0,0l0.1,0c0.2,1.8,0.6,3.6,1.2,5.3l0.8,2.5c-0.1,0-0.3-0.2-0.4-0.2c-1-0.7-1.8-1.6-2.7-2.5
	c0-0.2,0.1-0.5,0.1-0.8l0.6-2.8l0.2-0.8c0-0.1,0-0.3,0.1-0.4C11.4,4.3,11.4,4.3,11.4,4.2z"/>
<path class="st2" d="M20.6,31.8l-2.9-2l1.6,0.7c0.7,0.3,1.5,0.5,2.2,0.6c1.3,0.2,2.6,0.3,3.9,0.2l1.6-0.1l1.7,1.5c1,0.8,2,1.5,3,2.1
	c-0.2,0-0.4,0-0.6,0l-1.6-0.2c-0.3-0.1-0.7-0.1-1-0.2l-0.8-0.2l-1-0.2c-1.4-0.3-2.8-0.7-4.1-1.2c-0.2-0.1-0.4-0.2-0.6-0.2L20.6,31.8
	z"/>
<path class="st1" d="M18.3,21c-0.6-0.1-1.1-0.3-1.6-0.5C15,20,13.4,19.2,12,18.2l-1.1-0.9c-0.2-0.1-0.3-0.3-0.5-0.4l0,0
	c-0.1-0.4-0.1-0.7-0.2-1.1c-0.1-0.9-0.2-1.7-0.2-2.5l1.7,1.3c1.2,0.8,2.5,1.5,3.8,2.1L18.3,21z"/>
<path class="st2" d="M24.1,28.3c-0.9,0-1.7-0.1-2.6-0.3c-2.4-0.4-4.8-1.1-7-2.1L14,25.6c-0.1,0-0.1-0.1-0.2-0.1
	c-0.1-0.1-0.3-0.4-0.4-0.5c-0.8-1.2-1.4-2.6-1.9-4c0.3,0.2,0.7,0.5,1,0.7c0.9,0.5,1.8,0.9,2.7,1.3c1.3,0.5,2.6,1,4,1.3l1.7,0.3
	L24.1,28.3z"/>
<path class="st4" d="M11.6,4.1l-0.2-1.8c0.2,0.4,0.4,0.8,0.7,1.1c0.7,1,1.5,1.8,2.6,2.4c0.1,0,0.2,0.1,0.3,0.2l0.5,0.3
	c0.1,0,0.2,0.1,0.3,0.1c0.1,0,0.2,0.1,0.2,0.1c0.2,0.1,0.4,0.2,0.6,0.4l1.7,1c0.1,0.1,0.4,0.2,0.5,0.3l0,0c0,0.3,0.2,0.5,0.3,0.8
	c0.2,0.6,0.3,1.1,0.4,1.7c0.2,1.2,0.2,2.5,0.1,3.7c-0.1,1-0.2,1.9-0.4,2.9L19,17.9c0,0.1,0,0.2-0.1,0.3l3.2,4.6l3,3.5l1,1l1.3,1.3
	l0.7,0.6c0.1,0.1,0.2,0.2,0.3,0.3l3.9,3.4c0.2,0.2,0.3,0.5,0.4,0.7l0.7,1.2l0.5,0.7c0.1,0.1,0.2,0.2,0.2,0.3l-2.3-1.1
	c-1-0.6-2.1-1.3-3-2.1L27,31.2l-2.9-2.9l-3.2-3.7L18.3,21l-2.6-4.4l-2.1-4.8l-0.8-2.5C12.2,7.6,11.8,5.9,11.6,4.1z"/>
<path class="st3" d="M15.7,12.6c-0.2-0.3-0.3-0.6-0.5-0.9c-0.9-1.8-1.6-3.6-2.3-5.4l-0.4-1l-0.4-1.1c-0.1-0.4-0.3-0.8-0.4-1.2
	c0.3,0.5,0.6,1,1,1.5c0.4,0.5,1,0.9,1.6,1.3c0.1,0.1,0.2,0.2,0.3,0.2l0,0c0.1,0,0.2,0.1,0.3,0.2l0.5,0.3c0.1,0,0.2,0.1,0.3,0.1
	c0.1,0.5,0.1,1,0.2,1.5c0.1,1.1,0,2.2,0,3.3C15.8,11.7,15.8,12.1,15.7,12.6z"/>
<path class="st1" d="M15.7,6.4c0.1,0,0.2,0.1,0.2,0.1c0.2,0.1,0.4,0.2,0.6,0.4l1.7,1c0.1,0.1,0.4,0.2,0.5,0.3l0,0
	c0,0.3,0.2,0.5,0.3,0.8c0.2,0.6,0.3,1.1,0.4,1.7c0.2,1.2,0.2,2.5,0.1,3.7c-0.1,1-0.2,1.9-0.4,2.9L19,17.9c0,0.1,0,0.2-0.1,0.3
	l-3.2-5.7c0.1-0.4,0.1-0.9,0.1-1.4c0.1-1.1,0.1-2.2,0-3.3C15.8,7.4,15.8,6.9,15.7,6.4z"/>
</svg>
