<?xml version="1.0" encoding="utf-8"?>
<!-- Generator: Adobe Illustrator 26.1.0, SVG Export Plug-In . SVG Version: 6.00 Build 0)  -->
<svg version="1.1" id="Layer_1" xmlns="http://www.w3.org/2000/svg" xmlns:xlink="http://www.w3.org/1999/xlink" x="0px" y="0px"
	 viewBox="0 0 30 30" style="enable-background:new 0 0 30 30;" xml:space="preserve">
<style type="text/css">
	.st0{fill:#C2C1C1;}
	.st1{fill:#E5E5E4;}
	.st2{fill:#616161;}
	.st3{fill:#313131;}
	.st4{fill:#8A8988;}
</style>
<path class="st0" d="M14.7,4C14.8,4,14.9,4,15,4l1.1-0.3l3.7-1l1.7-0.4c0.3-0.1,0.5-0.1,0.8-0.2l-0.1,0.2l-2.7,4.7l0,0
	c-0.2-0.2-0.4-0.3-0.6-0.4L18,6L14.7,4z"/>
<path class="st1" d="M6.5,7.3c0.1-0.1,0.6-0.2,0.8-0.2l1.9-0.4l1.6-0.4l1-0.2C11.9,6.1,12,6,12.2,6c0.2-0.1,0.4-0.3,0.5-0.4L14,4.5
	c0.2-0.2,0.4-0.3,0.6-0.5l0,0L18,6l0.9,0.6c0.2,0.1,0.4,0.2,0.6,0.4C19.4,7,19.3,7,19.2,7l-0.7,0.2l-1.9,0.4l-4.1,0.9l-2.2,0.5
	C9.9,9,9.6,8.9,9.3,8.7C8.4,8.3,7.4,7.8,6.5,7.3z"/>
<path class="st0" d="M6.5,7.3c0.9,0.5,1.9,1,2.9,1.4C9.6,8.9,9.9,9,10.2,9.1c0,0,0,0,0,0c0,0,0,0.1-0.1,0.2L9.9,9.8
	c-0.2,0.5-0.4,1-0.6,1.5L9,12c-0.1,0.1-0.1,0.3-0.2,0.4l0,0c0,0,0,0.1-0.1,0.1L7.5,12l-6.2,5.3l-0.6,0.5c-0.1,0.1-0.2,0.2-0.3,0.3
	c0,0-0.1,0-0.1,0L6.5,7.3z"/>
<path class="st2" d="M22.3,2.1c0.2,0.2,0.3,0.4,0.4,0.6l1,1.4L26.9,9l2.4,3.6l0.7,1.1c0.1,0.2,0.2,0.3,0.3,0.5l-5.5,7l-2.7,3.5
	c0,0,0,0-0.1,0.1c-0.2,0.1-0.3,0.1-0.5,0.2L20,25.6l-3.4,1.2l-1.8,0.6l-0.6,0.2c-0.1,0.1-0.3,0.1-0.4,0.1l5.2-5.9l1.2-1.4
	c0.2-0.2,0.4-0.4,0.6-0.7l0,0l4.3-5.8c-0.1-0.1-0.2-0.2-0.3-0.3l-0.5-0.4L22.9,12l-1-1l0,0c-0.1,0-0.1-0.1-0.1-0.2l-0.2-0.4
	l-0.9-1.6l-0.8-1.3c-0.1-0.2-0.2-0.4-0.3-0.5l2.7-4.7L22.3,2.1z"/>
<path class="st3" d="M22.2,2.3c0.1,0.1,0.1,0.2,0.1,0.4l0,0.6l0.2,1.9l0.1,1.4l0.1,1c0,0.1,0,0.3,0,0.3c0,0,0.1,0.1,0.2,0.2l1.2,1
	l5.5,4.8l0,0l-4.7-3.2l-1.6,0.2l-0.8,0.1c-0.2,0-0.4,0-0.5,0.1c-0.1,0-0.1-0.1-0.1-0.2l-0.2-0.4l-0.9-1.6l-0.8-1.3
	c-0.1-0.2-0.2-0.4-0.3-0.5L22.2,2.3z"/>
<path class="st3" d="M25.1,14L25.1,14c0.4,0.1,0.7,0.1,1.1,0.1l3.2,0.2l0.6,0c0.1,0,0.2,0,0.3,0L29,15.1l-2.4,1.6L26.1,17
	c-0.1,0.1-0.2,0.1-0.3,0.2c-0.1,0.1-0.1,0.3-0.2,0.4L25,18.8l-1.2,2.4l-1,2c-0.2,0.5-0.4,1-0.7,1.5l0,0c0,0,0,0.1,0,0.1
	c0,0,0,0-0.1,0.1c-0.2,0.1-0.3,0.1-0.5,0.2L20,25.6l-3.4,1.2l-1.8,0.6l-0.6,0.2c-0.1,0.1-0.3,0.1-0.4,0.1l5.2-5.9l1.2-1.4
	c0.2-0.2,0.4-0.4,0.6-0.7l0,0L25.1,14z"/>
<path class="st4" d="M19.6,6.9L19.6,6.9c0.1,0.2,0.2,0.4,0.3,0.5l0.8,1.3l0.9,1.6l0.2,0.4c0,0.1,0.1,0.1,0.1,0.2l0,0l1,1l1.4,1.3
	l0.5,0.4c0.1,0.1,0.2,0.2,0.3,0.3l-4.3,5.8l0,0c-0.2,0.2-0.4,0.5-0.6,0.7l-1.2,1.4l-5.2,5.9l0,0c0,0-0.1,0-0.1,0l-1.4-0.6l-2.9-1.4
	l-0.8-0.4c-0.1-0.1-0.3-0.1-0.4-0.2c-0.1-0.1-0.2-0.2-0.4-0.3L7,24.3l-2.7-2.4c-0.3-0.3-0.7-0.6-1-0.9L1.2,19
	c-0.1-0.1-0.8-0.7-0.9-0.8l0.1-0.1c0,0,0.1,0,0.1,0c0.1-0.1,0.2-0.2,0.3-0.3l0.6-0.5L7.5,12l1.2,0.6c0,0,0.1,0,0.1-0.1l0,0
	c0-0.2,0.1-0.3,0.2-0.4l0.3-0.7c0.2-0.5,0.4-1,0.6-1.5l0.2-0.6c0,0,0-0.1,0.1-0.2c0,0,0,0,0,0l2.2-0.5l4.1-0.9l1.9-0.4L19.2,7
	C19.3,7,19.4,7,19.6,6.9z"/>
<path class="st0" d="M10.6,10.6c0.2,0,0.4,0.1,0.6,0.1l1.7,0.3l1.8,0.4c0.3,0.1,0.6,0.1,0.9,0.2l-7.3,6.9c0.1-0.6,0.3-1.2,0.5-1.8
	L9.3,15l0.8-2.7l0.3-1.2C10.5,10.9,10.6,10.7,10.6,10.6z"/>
<path class="st1" d="M10.6,10.6c0,0.2-0.1,0.4-0.1,0.5l-0.3,1.2L9.3,15l-0.5,1.7c-0.2,0.6-0.4,1.2-0.5,1.8l-0.1,0.1
	c-0.2,0-0.3,0-0.5,0l-1.4-0.1l-3.5-0.1l-2.5-0.1l0.1-0.1c0,0,0.1,0,0.1,0c0.1-0.1,0.2-0.2,0.3-0.3l0.6-0.5L7.5,12l1.2,0.6
	c0,0,0.1,0,0.1-0.1C9,12.3,9.1,12.1,9.3,12C9.7,11.5,10.1,11,10.6,10.6z"/>
<path class="st0" d="M20.7,19.8l-6-1.4l1.1-4l2.4-1.4l2.8-1.6l0.6-0.3c0.1-0.1,0.2-0.1,0.3-0.2l1,1l1.4,1.3l0.5,0.4
	c0.1,0.1,0.2,0.2,0.3,0.3L20.7,19.8L20.7,19.8z"/>
</svg>
