<?xml version="1.0" encoding="utf-8"?>
<!-- Generator: Adobe Illustrator 26.1.0, SVG Export Plug-In . SVG Version: 6.00 Build 0)  -->
<svg version="1.1" id="Layer_1" xmlns="http://www.w3.org/2000/svg" xmlns:xlink="http://www.w3.org/1999/xlink" x="0px" y="0px"
	 viewBox="0 0 30 30" style="enable-background:new 0 0 30 30;" xml:space="preserve">
<style type="text/css">
	.st0{fill:#129595;}
	.st1{fill:url(#SVGID_1_);}
	.st2{fill:#9EF4EE;}
	.st3{fill:#041C28;}
	.st4{fill:url(#SVGID_00000080180343115798218480000009482912270409088677_);}
	.st5{fill:#053239;}
	.st6{fill:#FDEACF;}
	.st7{fill:url(#SVGID_00000054225063383534660290000012951608646612357275_);}
	.st8{fill:#C04917;}
	.st9{fill:#F7CB9B;}
	.st10{fill:url(#SVGID_00000125565891780535014480000006046322616295680395_);}
	.st11{fill:url(#SVGID_00000130632994325677222540000012834374945843399346_);}
	.st12{fill:#F89F67;}
</style>
<path class="st0" d="M26.3,13.1l0.2-0.1c-0.1,0.3-0.2,0.6-0.3,0.9c-0.1,0.3-0.3,0.6-0.4,0.9c-0.2,0.4-0.4,0.9-0.7,1.3
	c-0.5,0.8-1.1,1.5-1.8,2.1c-0.2,0.2-0.5,0.4-0.7,0.6c-0.1,0.1-0.3,0.2-0.4,0.3l0.2-0.1l0.1,0c-1,0.4-2.1,0.7-3.2,0.9L18.4,20
	c-0.1,0-0.2,0-0.2,0c-0.2,0-0.4,0-0.6,0l0.7-1.1l-0.2,0.1l0,0l0,0c-0.5,0.1-0.9,0.3-1.4,0.4c0.1-0.1,0.1-0.1,0.2-0.1
	c0.1,0,0.2-0.1,0.3-0.1l1.1-0.7c1.1-0.7,2.1-1.5,2.9-2.5c0.2-0.3,0.3-0.5,0.5-0.8l0.1,0l1.1-0.3l0,0c0.1-0.1,0.2-0.1,0.3-0.1
	l0.7-0.3l0.7-0.3c0.2-0.1,0.4-0.2,0.6-0.3L26.3,13.1z"/>
<linearGradient id="SVGID_1_" gradientUnits="userSpaceOnUse" x1="22.4768" y1="13.5012" x2="23.6288" y2="12.1681" gradientTransform="matrix(1 0 0 -1 0 30)">
	<stop  offset="0" style="stop-color:#082936"/>
	<stop  offset="1" style="stop-color:#00363B"/>
</linearGradient>
<path class="st1" d="M26.3,13.1l0.2-0.1c-0.1,0.3-0.2,0.6-0.3,0.9c-0.1,0.3-0.3,0.6-0.4,0.9c-0.2,0.4-0.4,0.9-0.7,1.3
	c-0.5,0.8-1.1,1.5-1.8,2.1c-0.2,0.2-0.5,0.4-0.7,0.6c-0.1,0.1-0.3,0.2-0.4,0.3l0.2-0.1l0.1,0c-1,0.4-2.1,0.7-3.2,0.9L18.4,20l0,0
	c0.2-0.1,0.5-0.1,0.7-0.2c0.3-0.1,0.6-0.2,0.9-0.3c1-0.4,1.9-0.9,2.7-1.6c1-0.8,1.9-1.9,2.6-3l0.5-0.9c0.1-0.2,0.2-0.3,0.2-0.5
	C26.2,13.4,26.3,13.2,26.3,13.1L26.3,13.1z"/>
<path class="st2" d="M26.3,13.1L26.3,13.1c0,0.1-0.1,0.4-0.2,0.4c-0.1,0-0.1,0.1-0.1,0.2l-0.2,0.3L25,14.8c-1.4,1.4-3,2.5-4.9,3.2
	c-0.6,0.2-1.2,0.5-1.8,0.6l0,0c1.1-0.7,2.1-1.5,2.9-2.5c0.2-0.3,0.3-0.5,0.5-0.8l0.1,0l1.1-0.3l0,0c0.1-0.1,0.2-0.1,0.3-0.1l0.7-0.3
	l0.7-0.3c0.2-0.1,0.4-0.2,0.6-0.3L26.3,13.1z"/>
<path class="st3" d="M26.3,13.1L26.3,13.1l-0.9,0.7c-0.5,0.3-1.1,0.6-1.7,0.8c-0.3,0.1-0.5,0.2-0.8,0.3l0,0c0.1-0.1,0.2-0.1,0.3-0.1
	l0.7-0.3l0.7-0.3c0.2-0.1,0.4-0.2,0.6-0.3L26.3,13.1z"/>
<path class="st2" d="M28.9,0.6c-0.1,0.2-0.1,0.5-0.2,0.7l-0.5,1.5c-0.8,2.3-2.1,4.6-3.9,6.2l0.3-0.8c0.1-0.4,0.2-0.8,0.3-1.2
	c0-0.2,0.1-0.5,0.1-0.7l0-0.1l0.1-0.3l-0.7,0.7c-0.2,0.1-0.3,0.3-0.4,0.4l-0.6,0.5l-1.8,1.5c-1.8,1.4-3.7,2.6-5.6,3.8
	c-1,0.6-2,1.2-3,1.7c0,0,0,0-0.1,0.1c0,0.1,0,0.1,0,0.2L12.8,15c-0.1,0.5-0.3,1.1-0.5,1.6c-0.8,2.2-1.9,4.2-3.4,5.9
	c-1,1.1-2.2,2-3.4,2.7c-0.6,0.4-1.3,0.7-1.9,1c-0.3,0.2-0.6,0.2-0.9,0.3c-0.1,0-0.3,0.1-0.4,0.1c0.1-0.1,0.1-0.1,0.2-0.2l0.7-0.7
	L5.1,24c2.4-2.5,4.3-5.6,5.1-9c0.2-0.7,0.3-1.4,0.4-2.1L28.9,0.6z"/>
<linearGradient id="SVGID_00000077291444491587194960000014752994800631762107_" gradientUnits="userSpaceOnUse" x1="17.831" y1="14.2419" x2="12.6601" y2="19.2093" gradientTransform="matrix(1 0 0 -1 0 30)">
	<stop  offset="0" style="stop-color:#109394"/>
	<stop  offset="1" style="stop-color:#2AB6BA"/>
</linearGradient>
<path style="fill:url(#SVGID_00000077291444491587194960000014752994800631762107_);" d="M28.9,0.6c-0.1,0.2-0.1,0.5-0.2,0.7
	l-0.5,1.5c-0.8,2.3-2.1,4.6-3.9,6.2l0.3-0.8c0.1-0.4,0.2-0.8,0.3-1.2c0-0.2,0.1-0.5,0.1-0.7l0-0.1l0.1-0.3c0.5-0.6,1-1.1,1.4-1.7
	l1-1.4l0.6-0.9l-0.5,0.3l-0.9,0.6L24,4.6l-11.1,7.5l-1.2,0.8l-0.4,0.3c0,0-0.1,0-0.1,0.1c0,0,0,0.1,0,0.1l0,0.2
	c-0.1,0.9-0.3,1.7-0.6,2.6c-0.9,3-2.7,5.8-4.9,8.1c-0.6,0.6-1.2,1.2-1.8,1.7c-0.1,0.1-0.3,0.2-0.3,0.3c-0.3,0.2-0.6,0.2-0.9,0.3
	c-0.1,0-0.3,0.1-0.4,0.1c0.1-0.1,0.1-0.1,0.2-0.2l0.7-0.7L5.1,24c2.4-2.5,4.3-5.6,5.1-9c0.2-0.7,0.3-1.4,0.4-2.1L28.9,0.6z"/>
<path class="st5" d="M13,14.4C13,14.4,13,14.5,13,14.4c0,0.1,0,0.1,0,0.2c0,0.1,0,0.2,0,0.4c0,0.3-0.1,0.5-0.1,0.8
	c-0.1,0.5-0.2,0.9-0.4,1.4l-0.3,0.7c0,0.1-0.1,0.2-0.1,0.3c0.1-0.1,0.2-0.3,0.3-0.5c0.3-0.6,0.5-1.2,0.7-1.9l0.1-0.6
	c0,0.2-0.1,0.5-0.1,0.7c-0.1,0.3-0.1,0.7-0.2,1l0,0.1c-0.1,0.2-0.1,0.5-0.2,0.7L12,18.9c-0.1,0.3-0.2,0.6-0.4,0.8
	c0,0.1-0.1,0.1-0.1,0.2l0.1,0C11.8,20,12,20,12.2,20c0.8,0.1,1.5,0,2.3-0.1c0.7-0.1,1.4-0.2,2.1-0.4c0.5-0.1,0.9-0.3,1.4-0.4l0,0
	l0,0l0.2-0.1l-0.7,1.1c0.2,0,0.4,0,0.6,0c0.1,0,0.2,0,0.2,0l0.9-0.1c1.1-0.2,2.1-0.5,3.2-0.9l-0.1,0l1.3-0.7
	c-0.3,0.4-0.5,0.9-0.8,1.3c-0.8,1.1-1.7,2.1-2.8,2.9c-0.4,0.3-0.9,0.6-1.4,0.9c-0.2,0.1-0.4,0.2-0.6,0.2l1.4-0.2
	c-1.1,1.4-2.6,2.5-4.3,3.1l-0.9,0.3c-0.2,0-0.4,0.1-0.5,0.1c-0.1,0.1-0.2,0.2-0.3,0.2l-0.6,0.5c-1.1,0.7-2.4,1.3-3.8,1.4
	c-1.4,0.2-2.9,0-4.2-0.6c-0.7-0.3-1.4-0.7-2.1-1.2c-0.2-0.1-0.4-0.2-0.5-0.4c0,0,0,0,0-0.1l0,0c0.1,0,0.3-0.1,0.4-0.1
	c0.3-0.1,0.6-0.2,0.9-0.3c0.7-0.3,1.3-0.6,1.9-1c1.2-0.7,2.4-1.7,3.4-2.7c1.6-1.7,2.7-3.8,3.4-5.9c0.2-0.5,0.4-1,0.5-1.6l0.1-0.3
	C12.9,14.6,12.9,14.5,13,14.4C12.9,14.5,13,14.4,13,14.4z"/>
<path class="st6" d="M9,23.4l0.9-1c0.2,0.1,0.4,0.2,0.7,0.3c0.4,0.1,0.7,0.1,1.1,0.1c0.4,0,0.8,0,1.2,0c0.1,0,0.2,0,0.4,0
	c0.1,0,0.2,0,0.3,0l-0.1,0l0,0C13.3,22.8,13,23,12.8,23c-1,0.3-2.1,0.6-3.2,0.5C9.4,23.5,9.1,23.5,9,23.4z"/>
<linearGradient id="SVGID_00000018210477377849259120000016260865463444012478_" gradientUnits="userSpaceOnUse" x1="11.568" y1="8.0382" x2="9.9829" y2="4.8309" gradientTransform="matrix(1 0 0 -1 0 30)">
	<stop  offset="0" style="stop-color:#CA451B"/>
	<stop  offset="1" style="stop-color:#DB7233"/>
</linearGradient>
<path style="fill:url(#SVGID_00000018210477377849259120000016260865463444012478_);" d="M9,23.4c0.2,0.1,0.4,0.1,0.6,0.1
	c1.1,0.1,2.2-0.2,3.2-0.5c0.3-0.1,0.5-0.2,0.8-0.3l0,0c-0.1,0.2-0.3,0.3-0.5,0.4c-0.5,0.3-1,0.5-1.5,0.7c-0.3,0.1-0.7,0.2-1,0.3
	c-0.5,0.1-1,0.2-1.5,0.2l-1,0L9,23.4z"/>
<path class="st8" d="M16.7,19.5c0.5-0.1,0.9-0.3,1.4-0.4l0,0c-0.1,0.2-0.4,0.4-0.6,0.6c-0.6,0.6-1.4,1.1-2.1,1.5
	c-0.9,0.5-1.8,0.9-2.7,1.2c-0.6,0.1-1.1,0.2-1.7,0.1c-0.3-0.1-0.6-0.2-0.9-0.3l0.3-0.4l0.7-1l0.6-1l0.1,0C11.8,20,12,20,12.2,20
	c0.8,0.1,1.5,0,2.3-0.1C15.3,19.8,16,19.7,16.7,19.5z"/>
<path class="st9" d="M10.9,21c0.2,0.1,0.4,0.1,0.6,0.1c0.5,0.1,0.9,0.1,1.4,0.1c0.2,0,0.4,0,0.6,0l-1,0.3c-0.7,0.2-1.5,0.4-2.3,0.4
	L10.9,21z"/>
<path class="st6" d="M16.7,19.5c0.5-0.1,0.9-0.3,1.4-0.4l0,0c-0.2,0.1-0.3,0.2-0.5,0.3c-0.1,0.1-0.3,0.2-0.4,0.3
	c-0.7,0.4-1.5,0.8-2.3,1.1c-0.4,0.2-0.9,0.4-1.3,0.5c-0.2-0.1-0.4,0-0.6,0c-0.5,0-1-0.1-1.4-0.1c-0.2,0-0.4-0.1-0.6-0.1l0.6-1l0.1,0
	C11.8,20,12,20,12.2,20c0.8,0.1,1.5,0,2.3-0.1C15.3,19.8,16,19.7,16.7,19.5z"/>
<linearGradient id="SVGID_00000129165279977899620050000017255971349475228086_" gradientUnits="userSpaceOnUse" x1="13.7137" y1="8.8258" x2="8.5738" y2="0.2251" gradientTransform="matrix(1 0 0 -1 0 30)">
	<stop  offset="0" style="stop-color:#03676F"/>
	<stop  offset="1" style="stop-color:#199997"/>
</linearGradient>
<path style="fill:url(#SVGID_00000129165279977899620050000017255971349475228086_);" d="M7.4,24.8c0.1,0,0.2,0,0.2,0.1
	C8.1,25,8.5,25.2,9,25.2c2,0.4,4.1,0.5,6.1,0c0.5-0.1,1-0.3,1.5-0.5l0.9-0.4l0.9-0.4c0.1,0,0.2-0.1,0.3-0.1
	c-0.3,0.2-0.5,0.4-0.8,0.6c-1.1,0.7-2.2,1.3-3.4,1.6c-1.2,0.3-2.4,0.4-3.6,0.2C10,26.1,9,25.8,8.1,25.4c-0.2-0.1-0.5-0.3-0.7-0.4
	c0.2,0.2,0.5,0.4,0.7,0.6c1.1,0.8,2.5,1.2,3.8,1.3l0.6,0c-0.4,0.2-0.7,0.4-1.1,0.6c-1.6,0.8-3.5,1-5.2,0.5c-0.9-0.2-1.8-0.7-2.5-1.2
	c1-0.4,1.9-0.9,2.8-1.4L7.4,24.8z"/>
<linearGradient id="SVGID_00000060023120553978079890000004142139722565949602_" gradientUnits="userSpaceOnUse" x1="18.1324" y1="13.7852" x2="12.5232" y2="2.6624" gradientTransform="matrix(1 0 0 -1 0 30)">
	<stop  offset="0" style="stop-color:#09787D"/>
	<stop  offset="1" style="stop-color:#1FA2A2"/>
</linearGradient>
<path style="fill:url(#SVGID_00000060023120553978079890000004142139722565949602_);" d="M22.5,19l0.9-0.5l-0.1,0.1
	c-0.5,0.7-1.1,1.2-1.6,1.8l-1,0.9c-0.3,0.2-0.5,0.5-0.8,0.7c-1.2,0.8-2.5,1.3-3.9,1.5c-0.6,0.1-1.2,0.1-1.8,0
	c0.1,0.1,0.3,0.1,0.5,0.1c1.2,0.3,2.4,0.3,3.6,0.1c0.2,0,0.4-0.1,0.6-0.1c0.1,0,0.3-0.1,0.4-0.1c-0.1,0.1-0.3,0.2-0.4,0.3
	c-0.1,0-0.2,0.1-0.3,0.1l-0.9,0.4l-0.9,0.4c-0.5,0.2-1,0.4-1.5,0.5c-2,0.5-4.1,0.5-6.1,0c-0.5-0.1-0.9-0.2-1.3-0.4
	c-0.1,0-0.2,0-0.2-0.1l0.2-0.1c0.2,0,0.4,0.1,0.6,0.1c0.9,0.1,1.8,0,2.7-0.2c0.8-0.2,1.5-0.5,2.2-0.9c0.5-0.3,1-0.6,1.4-0.9l1.1-0.8
	c0.7-0.6,1.4-1.2,2-2c0.2,0,0.4,0,0.6,0c0.1,0,0.2,0,0.2,0l0.9-0.1C20.4,19.7,21.5,19.4,22.5,19z"/>
<path class="st2" d="M22.5,19l0.9-0.5l-0.1,0.1c0,0-0.1,0-0.1,0.1c-0.2,0.2-0.4,0.3-0.6,0.5l-0.8,0.7c-1.6,1.1-3.3,1.8-5.2,2.1
	L16,22c-0.1,0-0.2,0-0.3,0c0.7-0.6,1.4-1.2,2-2c0.2,0,0.4,0,0.6,0c0.1,0,0.2,0,0.2,0l0.9-0.1C20.4,19.7,21.5,19.4,22.5,19z"/>
<path class="st5" d="M28.9,0.6L28.9,0.6c0,0,0,0.1,0,0.1l0,0.5c-0.2,1.9-0.8,3.8-1.8,5.5l-0.6,1c-0.1,0.2-0.3,0.3-0.4,0.5
	c0.2-0.1,0.5-0.3,0.7-0.4c0.4-0.3,0.8-0.5,1.2-0.8l0.5-0.4c0.1-0.1,0.2-0.2,0.3-0.2l0,0l0,0c0,0.1,0,0.2,0,0.3l-0.1,0.5
	c-0.3,1.5-0.9,3-1.8,4.3c-0.4,0.6-0.8,1.2-1.3,1.8l-0.4,0.4c-0.1,0.1-0.3,0.2-0.3,0.3c-0.2,0.1-0.4,0.2-0.6,0.3l-0.7,0.3l-0.7,0.3
	c-0.1,0-0.2,0.1-0.3,0.1l0,0l-1.1,0.3l-0.1,0c-0.2,0.3-0.3,0.5-0.5,0.8c-0.8,1.1-1.8,1.9-2.9,2.5l-1.1,0.7c-0.1,0-0.2,0.1-0.3,0.1
	c-0.1,0-0.2,0-0.2,0.1c-0.7,0.2-1.4,0.3-2.1,0.4C13.8,20,13,20.1,12.2,20c-0.2,0-0.4,0-0.6-0.1l-0.1,0c0-0.1,0.1-0.1,0.1-0.2
	c0.2-0.3,0.3-0.6,0.4-0.8l0.5-1.3c0.1-0.2,0.2-0.5,0.2-0.7l0-0.1c0.1-0.3,0.2-0.7,0.2-1c0-0.2,0.1-0.5,0.1-0.7L13,15.7
	c-0.2,0.6-0.4,1.3-0.7,1.9c-0.1,0.2-0.2,0.3-0.3,0.5c0-0.1,0.1-0.2,0.1-0.3l0.3-0.7c0.2-0.5,0.3-0.9,0.4-1.4
	c0.1-0.3,0.1-0.5,0.1-0.8c0-0.1,0.1-0.2,0-0.4c0,0,0,0,0-0.1c0,0,0-0.1,0-0.1c1-0.5,2-1.1,3-1.7c1.9-1.2,3.8-2.4,5.6-3.8l1.8-1.5
	L24,6.9c0.1-0.1,0.3-0.3,0.4-0.4l0.7-0.7L25,6.1l0,0.1c0,0.2,0,0.5-0.1,0.7c-0.1,0.4-0.2,0.8-0.3,1.2L24.3,9
	c1.8-1.7,3.1-3.9,3.9-6.2l0.5-1.5C28.8,1,28.8,0.8,28.9,0.6z"/>
<path class="st2" d="M28.8,6.3L28.8,6.3l-0.1,0.4l0,0c-0.1,0.2-0.2,0.4-0.3,0.6c-0.3,0.5-0.6,1-0.9,1.4c-0.8,1-1.7,2-2.7,2.8
	c-0.8,0.7-1.7,1.3-2.6,1.9l-0.7,0.4c-0.1,0-0.2,0.1-0.2,0.1c0,0,0,0,0,0c0.9-0.9,1.7-1.9,2.3-3c0.2-0.3,0.3-0.7,0.5-1
	c0-0.1,0.2-0.5,0.2-0.5c0,0,0.1-0.1,0.2-0.1L24.8,9l1-0.6c0.9-0.5,1.8-1.2,2.6-1.9L28.8,6.3z"/>
<path class="st8" d="M12.8,16.8c0.1,0,0.1-0.1,0.2-0.1l0.5-0.3l1.7-0.9c2.3-1.2,4.5-2.8,6.3-4.7l0.6-0.7c0.7-0.8,1.4-1.7,2-2.6
	l0.6-0.9c0.1-0.2,0.2-0.3,0.2-0.5l0,0l0,0.1c-0.1,0.5-0.3,0.9-0.4,1.4c-0.4,1-0.8,1.9-1.4,2.8c-0.3,0.4-0.5,0.8-0.8,1.2
	c-1,1.3-2.2,2.5-3.6,3.4c-0.7,0.5-1.5,0.9-2.3,1.2c-0.8,0.3-1.7,0.5-2.6,0.7c-0.1,0-0.4,0.1-0.4,0.1l-0.6,0.1L12.8,16.8z"/>
<path class="st0" d="M28.8,6.3c0,0.1,0,0.2,0,0.3l-0.1,0.5c-0.3,1.5-0.9,3-1.8,4.3c-0.4,0.6-0.8,1.2-1.3,1.8l-0.4,0.4
	c-0.1,0.1-0.3,0.2-0.3,0.3c-0.2,0.1-0.4,0.2-0.6,0.3l-0.7,0.3l-0.7,0.3c-0.1,0-0.2,0.1-0.3,0.1l0,0l-1.1,0.3l-0.1,0l0.9-2l-0.4,0.6
	l-0.8,0.5c-0.4,0.2-0.7,0.4-1.1,0.6c-0.2,0.1-0.3,0.2-0.5,0.2c0-0.1,0.1-0.1,0.2-0.2l0.4-0.4c0.3-0.2,0.5-0.5,0.8-0.7c0,0,0,0,0,0
	c0.1,0,0.2-0.1,0.2-0.1l0.7-0.4c0.9-0.5,1.8-1.2,2.6-1.9c1-0.8,1.9-1.8,2.7-2.8c0.3-0.4,0.7-0.9,0.9-1.4c0.1-0.2,0.2-0.4,0.3-0.6
	l0,0L28.8,6.3z"/>
<path class="st5" d="M28.8,6.3c0,0.1,0,0.2,0,0.3l-0.1,0.5c-0.3,1.5-0.9,3-1.8,4.3c-0.4,0.6-0.8,1.2-1.3,1.8l-0.4,0.4
	c-0.1,0.1-0.3,0.2-0.3,0.3c-0.2,0.1-0.4,0.2-0.6,0.3l-0.7,0.3l-0.7,0.3c-0.1,0-0.2,0.1-0.3,0.1l0,0l-1.1,0.3c0,0,0.1-0.1,0.2-0.1
	c0.3-0.1,0.5-0.3,0.8-0.5c0.9-0.7,1.9-1.5,2.7-2.3c1.1-1.2,2-2.6,2.7-4c0.2-0.4,0.4-0.8,0.5-1.3c0.1-0.2,0.1-0.3,0.1-0.5L28.8,6.3z"
	/>
<path class="st12" d="M25.1,5.8L25,6.1l0,0c-0.1,0.2-0.2,0.3-0.2,0.5l-0.6,0.9c-0.6,0.9-1.3,1.8-2,2.6l-0.6,0.7
	c-1.8,1.9-4,3.4-6.3,4.7l-1.7,0.9L13,16.7c-0.1,0-0.1,0.1-0.2,0.1c0.1-0.3,0.2-0.7,0.2-1c0-0.2,0.1-0.5,0.1-0.7L13,15.7
	c-0.2,0.6-0.4,1.3-0.7,1.9c-0.1,0.2-0.2,0.3-0.3,0.5c0-0.1,0.1-0.2,0.1-0.3l0.3-0.7c0.2-0.5,0.3-0.9,0.4-1.4
	c0.1-0.3,0.1-0.5,0.1-0.8c0-0.1,0.1-0.2,0-0.4c0,0,0,0,0-0.1c0,0,0-0.1,0-0.1c1-0.5,2-1.1,3-1.7c1.9-1.2,3.8-2.4,5.6-3.8l1.8-1.5
	L24,6.9c0.1-0.1,0.3-0.3,0.4-0.4L25.1,5.8z"/>
<path class="st0" d="M13,14.4c1-0.5,2-1.1,3-1.7c1.9-1.2,3.8-2.4,5.6-3.8l1.8-1.5L24,6.9c0.1-0.1,0.3-0.3,0.4-0.4
	c-0.1,0.2-0.2,0.3-0.3,0.4l-0.5,0.7c-0.6,0.8-1.3,1.5-2,2.1c-1.7,1.6-3.6,2.9-5.7,4l-1.3,0.6l-1.3,0.5c0,0,0,0,0,0
	c0,0.1,0,0.2,0,0.3L13,15.7c-0.2,0.6-0.4,1.3-0.7,1.9c-0.1,0.2-0.2,0.3-0.3,0.5c0-0.1,0.1-0.2,0.1-0.3l0.3-0.7
	c0.2-0.5,0.3-0.9,0.4-1.4c0.1-0.3,0.1-0.5,0.1-0.8c0-0.1,0.1-0.2,0-0.4C13,14.5,13,14.5,13,14.4C13,14.5,13,14.4,13,14.4z"/>
<path class="st12" d="M22.1,13.9l0.4-0.6l-0.9,2c-0.2,0.3-0.3,0.5-0.5,0.8c-0.8,1.1-1.8,1.9-2.9,2.5l-1.1,0.7
	c-0.1,0-0.2,0.1-0.3,0.1c-0.1,0-0.2,0-0.2,0.1c-0.7,0.2-1.4,0.3-2.1,0.4C13.8,20,13,20.1,12.2,20c-0.2,0-0.4,0-0.6-0.1l-0.1,0
	c0-0.1,0.1-0.1,0.1-0.2c0.2-0.3,0.3-0.6,0.4-0.8l0.5-1.3c0.1-0.2,0.2-0.5,0.2-0.7l0.6-0.1c0.3,0,0.6-0.1,0.9-0.1
	c1.2-0.1,2.4-0.4,3.6-0.8c0.7-0.2,1.4-0.5,2-0.8c0.2-0.1,0.3-0.1,0.5-0.2c0.4-0.2,0.7-0.4,1.1-0.6L22.1,13.9z"/>
<path class="st8" d="M22.1,13.9l0.4-0.6l-0.9,2c-0.2,0.3-0.3,0.5-0.5,0.8c-0.8,1.1-1.8,1.9-2.9,2.5l-1.1,0.7c-0.1,0-0.2,0.1-0.3,0.1
	c-0.1,0-0.2,0-0.2,0.1c-0.7,0.2-1.4,0.3-2.1,0.4C13.8,20,13,20.1,12.2,20c-0.2,0-0.4,0-0.6-0.1l-0.1,0c0-0.1,0.1-0.1,0.1-0.2
	c2.6-0.8,5.1-1.8,7.3-3.3c0.8-0.5,1.6-1.1,2.2-1.7c0.1-0.1,0.3-0.2,0.4-0.4l0.3-0.3c0,0,0.1-0.1,0.1-0.1c0,0,0,0,0.1,0
	C22,14,22.1,13.9,22.1,13.9z"/>
<path class="st5" d="M22.1,13.9l0.4-0.6l-0.9,2c-0.2,0.3-0.3,0.5-0.5,0.8c-0.8,1.1-1.8,1.9-2.9,2.5l-1.1,0.7c-0.1,0-0.2,0.1-0.3,0.1
	c-0.1,0-0.2,0-0.2,0.1c-0.7,0.2-1.4,0.3-2.1,0.4C13.8,20,13,20.1,12.2,20c-0.2,0-0.4,0-0.6-0.1c0.1,0,0.2,0,0.3,0c0.1,0,0.3,0,0.4,0
	c0.7,0,1.3-0.1,2-0.3c0.6-0.2,1.2-0.4,1.7-0.6l0.9-0.4c1.7-0.9,3.3-2.2,4.5-3.7c0.2-0.3,0.4-0.6,0.6-0.9C22,14,22.1,13.9,22.1,13.9z
	"/>
</svg>
