<svg xmlns="http://www.w3.org/2000/svg" xml:space="preserve" id="Layer_1" x="0" y="0" version="1.1" viewBox="0 0 30 30"><style>.st0{fill:#044182}.st2{fill:#69d5f4}.st3{fill:#1078b1}.st5{fill:#2eb6e7}</style><path d="M2.1 9.1c.2.1.3.4.5.5l.6.3v11.2c0 .2.1.4.2.7-.1 0-.3-.2-.4-.2-.2-.1-.4-.3-.6-.4-.1-.1-.2-.2-.2-.3v.2-3.2z" class="st0"/><path d="M3.2 12.5c.2.2.3.5.4.7.4.6.8 1.1 1.4 1.6v5.4c.1.2.2.4.3.5-.1 0-.3.2-.4.3-.4.3-.9.6-1.3 1-.1-.1-.2-.1-.3-.2-.1-.2-.2-.4-.2-.7v-8c.1-.2 0-.4.1-.6" style="fill:#0a85d1"/><path d="M5 14.8c.2.1.3.2.4.3l.8.5c.6.3 1.2.6 1.9.8.5.2 1.1.2 1.7.4-.6.7-1.2 1.4-1.9 2-.6.6-1.2 1.1-1.9 1.6l-.4.3c-.1.1-.1.1-.2.1-.2-.2-.2-.3-.3-.5s0-.5 0-.7v-1.1z" class="st2"/><path d="M2.1 9.1c0-.4.1-.8.3-1.1.1-.2.3-.4.5-.5.3-.2.6-.4.8-.5L5 6.1 8.3 4l3.9-2.5L14 .3c.2-.1.4-.2.6-.2.3-.1.8-.1 1.1 0l.6.3.7.5 1.3.8 6.8 4.4-.9.6L22 5.3l-4-2.6-1.7-1.1-.9-.6h-.8c-.3.1-.5.3-.8.5l-.9.6-2.6 1.7-2.1 1.4-3.3 2.1-.8.5c-.2.1-.4.2-.6.4-.1.1-.3.3-.3.5v1.2l-.6-.3c-.2-.2-.3-.4-.5-.5" class="st3"/><path d="M14.7 28.8h.3l.9-.3 1-.6 1.7-1.1 2.4-1.6 1.9-1.2 1.2-.7 2.1-1.4.5-.3.1-.1V9.8h.1c.1 0 .2-.1.2-.1.2-.1.4-.3.5-.5 0-.1.1-.2.1-.2v12.3c-.1.4-.2.8-.5 1-.3.3-.8.6-1.2.8l-2.3 1.5-5 3.2-2 1.3c-.3.2-.5.4-.8.5s-.5.2-.8.3c-.4.1-.9 0-1.2-.2l-.6-.3-.6-.4-2.7-1.8-4.3-2.8-1.5-1c-.4-.3-.9-.5-1.3-.9-.5-.4-.8-1-.9-1.6v-.3c.1.1.1.2.2.3.2.2.4.3.6.4.1.1.2.2.4.2.1.1.2.1.3.2l2.7 1.7L9.9 26l2.5 1.6c.4.3.9.6 1.3.9.3.1.7.3 1 .3" style="fill:#001c47"/><path d="m12 14.6 1 .7.7.5c.2.2.5.3.8.4.1 0 .3.1.4.1h.2-.2v12.6h-.4c-.4 0-.7-.1-1-.3-.5-.3-.9-.6-1.3-.9L9.9 26l-3.6-2.4-2.7-1.7c.4-.3.8-.7 1.3-1 .1-.1.3-.2.4-.3.1 0 .1-.1.2-.1l.4-.3c.7-.5 1.3-1 1.9-1.6.7-.6 1.3-1.3 1.9-2l.9-1 .6-.6z" class="st5"/><path d="m11.2 15.1 1.2.7.9.6c-.2.1-.5.1-.8.2-.9.1-1.9.2-2.8.1l.9-1z" class="st2"/><path d="m12 14.6 1 .7.7.5c.2.2.5.3.8.4.1 0 .3.1.4.1h.2-.2v12.6h-.4c-.4 0-.7-.1-1-.3-.5-.3-.9-.6-1.3-.9L9.9 26l-3.6-2.4-2.7-1.7c.4-.3.8-.7 1.3-1 .1-.1.3-.2.4-.3.3.3.7.5 1.1.7l2 1.3 1.5.9 1 .7 2.7 1.8c.1.1.2.1.3.1s.1-.1.2-.1v-8.2c-.1-.5-.4-.9-.8-1.2l-.9-.6-1.2-.7z" class="st3"/><path d="M10 6.4c.3-.1.5-.3.8-.5l1.2-.8 2-1.3 1-.6 7.3 4.7-.9.6c-.2.1-.5.3-.7.4l-.8.5-1.2.8-3.4 2.2-1.4.9c-.1.1-.3.2-.5.3l-1.4 1-.8.5-.6.6-.9 1c-.6-.1-1.1-.2-1.7-.4s-1.3-.4-1.9-.8l-.8-.5s-.1-.1-.3-.2c-.5-.4-1-1-1.4-1.6-.1-.2-.3-.5-.4-.7V8.6c0-.2.2-.4.3-.5l.6-.3.8-.5 3.3-2.1 1.4.9c.1.1.3.2.4.3" class="st2"/><path d="m3.2 8.9.9.6 1.7 1.1 2.6 1.7 2.1 1.3 1.2.8c.1.1.3.2.4.3l-.8.5c-.2-.1-.4-.2-.5-.3L9.4 14l-1.8-1.1-1.7-1.1c-.1 0-.2-.1-.3-.1s-.3.1-.4.2c-.1-.1-.2 0-.2.1v2.7c-.5-.4-1-1-1.4-1.6-.1-.2-.3-.5-.4-.7V8.9" class="st5"/><path d="M5 14.8v-2.7c0-.1.1-.2.1-.3.1-.1.2-.2.4-.2.1 0 .2 0 .3.1l1.7 1.1 1.8 1.1 1.4.9c.2.1.4.2.5.3l-.6.6-.9 1c-.6-.1-1.1-.2-1.7-.4s-1.3-.4-1.9-.8l-.8-.5s-.1-.1-.3-.2" style="fill:#65e5fb"/><path d="M10 6.4c.2.1.4.2.5.3l1.2.7c1.2.6 2.4 1.1 3.7 1.4q1.5.3 3 .3c.5 0 1 0 1.6-.1.2 0 .4-.1.7-.1l-.8.5-1.2.8-3.4 2.2-1.4.9c-.1.1-.3.2-.5.3l-2-1.3-2.3-1.5-1.4-.9c-.2-.1-.5-.3-.7-.5l-.3-.3v-.3c0-.1.1-.3.3-.4.3-.3.7-.5 1-.7z" class="st5"/><path d="m25.1 6.1 1.1.7c.4.3.9.5 1.2.9.2.3.4.6.5.9V9c-.1.1-.1.1-.1.2-.1.2-.3.4-.5.5-.1 0-.2.1-.2.1H27v11.7l-.1.1-.5.3-2.1 1.4-1.3.6-1.9 1.2-2.4 1.6-1.7 1.1-1 .6q-.45.3-.9.3h-.3.4V16.1h.2-.2c-.1 0-.3 0-.4-.1-.3-.1-.5-.2-.8-.4l-.7-.5-1-.7 1.4-1c.1-.1.3-.2.5-.3l1.4-.9L19 10l1.2-.8.8-.5c.2-.1.5-.3.7-.4l.9-.6 1.8-1.2z" class="st0"/><path d="m24.1 6.7 1.5 1c.3.2.6.3.8.6.1.1.2.2.2.3 0 .2 0 .3-.1.4 0 .1-.1.1-.2.1L25 10l-4.5 3-3.1 2-1.5 1c-.2.1-.5.2-.7.3H15c-.1 0-.3 0-.4-.1-.3-.1-.5-.2-.8-.4l-.7-.5-1-.7 1.4-1c.1-.1.3-.2.5-.3l1.4-.9 3.4-2.2 1.2-.8.8-.5c.2-.1.5-.3.7-.4l.9-.6z" class="st5"/><path d="M22.3 7.9c.2.2.4.3.6.4.1.1.2.1.3.2s.1.2.1.3v.3c0 .1-.1.2-.2.3-.3.3-.7.5-1.1.7l-2.5 1.6-2.5 1.8-.8.5c-.2.1-.4.3-.7.4q-.45.15-.9 0c-.2-.1-.3-.2-.5-.3l-.7-.5c.1-.1.3-.2.5-.3l1.4-.9 3.4-2.2 1.2-.8.8-.5c.2-.1.5-.3.7-.4zM15.9 18.1c0-.2 0-.5.1-.7q.15-.45.6-.9c.2-.1.3-.2.5-.4l.7-.4 2.5-1.6 2.9-1.9.9-.6c.1-.1.3-.2.4-.3.2.1.2.2.3.3s.1.3.1.4v8.2c-.1.2-.2.3-.3.5l-.9.6-.7.5-2.2 1.5-1.3.9-2.3 1.5-.4.3c-.1.1-.2.2-.3.2s-.2.1-.4 0c-.1 0-.1-.1-.2-.2v-7.8999999999999995" class="st3"/><path d="M15.9 18.1c0-.2 0-.5.1-.7q.15-.45.6-.9c.2-.1.3-.2.5-.4l.7-.4 2.5-1.6 2.9-1.9.9-.6c.1-.1.3-.2.4-.3.2.1.2.2.3.3-.8.5-1.6 1.2-2.3 1.8-2.1 1.8-4 3.9-5.3 6.4-.2.3-.3.7-.5 1-.3.6-.5 1.2-.7 1.9v1.4-5.5c-.1-.1-.1-.3-.1-.5" class="st5"/></svg>