<svg xmlns="http://www.w3.org/2000/svg" xml:space="preserve" id="Layer_1" x="0" y="0" version="1.1" viewBox="0 0 30 30"><style>.st0{fill:#8e6323}</style><path d="M25.7 9.5v4.1c0 .1-3.8 3.8-4.1 4.1L19.3 20l-6.5 6.6-2.4 2.4-1 1v-3.8l.1-.2c.1-.1.2-.2.3-.2l.4-.4 2.2-2.3 8.2-8.4 3.7-3.7.9-.9c.2-.3.4-.4.5-.6" class="st0"/><path d="M17.6 10.5q-.15 0 0 0c-.1-.1 0-.1 0-.1l.2-.3.8-1.1 3-4.2.4-.5c0-.1.1-.1.2-.2V0c-.2 0-.4 0-.6.1l-1.1.1-4.8.7-1.4.2-.7.1c-.1 0-.2 0-.3.1-.2.6-.6 1.1-.8 1.6L11 5.7l-5 9.1v3.4c0 .1 6.9-.7 6.9-.7h.3c.3 0-2.5 5.6-2.5 5.7v.1c0 .1-.1.1-.1.2-.1.2-.1.3-.2.5-.1.3-.3.6-.4.9 0 .1-.1.1-.1.2-.2.4-.4.8-.5 1.2l.1-.3c.1-.1.2-.2.3-.2l.4-.4 2.2-2.3 8.2-8.4 3.7-3.7.9-.9c.2-.2.4-.3.5-.5z" style="fill:#f4b227"/><path d="m15.5 12.3 2.9-.4-2.7 4.2-1.7 2.8-2.7 4.3-1.2 2-.3.5c-.1.1-.2.2-.2.4l-.1.1c.1-.4.3-.8.5-1.2l.8-1.9 2.5-5.7c.1-.1.1-.2.2-.3l.3-.8.6-1.3.6-1.3c.1-.1.2-.3.2-.5 0-.3.2-.6.3-.9" style="fill:#fbf0a8"/><path d="M22.2.1v4c0 .1-.1.2-.2.2l-.4.5-3 4.2-.8 1.1-.2.3s0 .1-.1.1h-.2l-.6.1-2.2.3z" class="st0"/><path d="M6 14.8v3.4l7.2-.9c.1-.1 1.7-3.8 1.7-3.8S6.3 14.8 6 14.8" style="fill:#b8812a"/><path d="m6 14.8 5-9.1 1.6-2.9c.3-.5.6-1.1.8-1.6.1.2.3.3.5.4l1.1 1 4.7-.6-1.1 1.2-1.9 2-1.4 1.4-2.9 3.1-2 2.2-.6.7c-.1.1-.2.3-.4.4l-.1.1 6.1-.9c-.1.3-.3.6-.4.9-.1.1-.1.4-.2.5l-2.4.4-3.5.5-1.9.2c-.4.1-.7.1-1 .1" style="fill:#fece40"/></svg>