<svg xmlns="http://www.w3.org/2000/svg" xml:space="preserve" id="Layer_1" x="0" y="0" version="1.1" viewBox="0 0 30 30"><style>.st0{fill:#c2c1c1}.st1{fill:#e5e5e4}.st3{fill:#313131}</style><path d="M14.7 4h.3l1.1-.3 3.7-1 1.7-.4c.3-.1.5-.1.8-.2l-.1.2L19.5 7c-.2-.2-.4-.3-.6-.4L18 6z" class="st0"/><path d="M6.5 7.3c.1-.1.6-.2.8-.2l1.9-.4 1.6-.4 1-.2c.1 0 .2-.1.4-.1.2-.1.4-.3.5-.4L14 4.5c.2-.2.4-.3.6-.5L18 6l.9.6c.2.1.4.2.6.4h-.3l-.7.2-1.9.4-4.1.9-2.2.5c-.4 0-.7-.1-1-.3-.9-.4-1.9-.9-2.8-1.4" class="st1"/><path d="M6.5 7.3c.9.5 1.9 1 2.9 1.4.2.2.5.3.8.4 0 0 0 .1-.1.2l-.2.5-.6 1.5-.3.7c-.1.1-.1.3-.2.4 0 0 0 .1-.1.1L7.5 12l-6.2 5.3-.6.5-.3.3H.3z" class="st0"/><path d="M22.3 2.1c.2.2.3.4.4.6l1 1.4L26.9 9l2.4 3.6.7 1.1c.1.2.2.3.3.5l-5.5 7-2.7 3.5-.1.1c-.2.1-.3.1-.5.2l-1.5.6-3.4 1.2-1.8.6-.6.2c-.1.1-.3.1-.4.1l5.2-5.9 1.2-1.4c.2-.2.4-.4.6-.7l4.3-5.8-.3-.3-.5-.4-1.4-1.2-1-1c-.1 0-.1-.1-.1-.2l-.2-.4-.9-1.6-.8-1.3c-.1-.2-.2-.4-.3-.5l2.7-4.7z" style="fill:#616161"/><path d="M22.2 2.3c.1.1.1.2.1.4v.6l.2 1.9.1 1.4.1 1v.3l.2.2 1.2 1 5.5 4.8-4.7-3.2-1.6.2-.8.1c-.2 0-.4 0-.5.1-.1 0-.1-.1-.1-.2l-.2-.4-.9-1.6-.8-1.3c-.1-.2-.2-.4-.3-.5zM25.1 14c.4.1.7.1 1.1.1l3.2.2h.8999999999999999l-1.3.8-2.4 1.6-.5.3c-.1.1-.2.1-.3.2s-.1.3-.2.4l-.6 1.2-1.2 2.4-1 2c-.2.5-.4 1-.7 1.5v.1l-.1.1c-.2.1-.3.1-.5.2l-1.5.5-3.4 1.2-1.8.6-.6.2c-.1.1-.3.1-.4.1l5.2-5.9 1.2-1.4c.2-.2.4-.4.6-.7z" class="st3"/><path d="M19.6 6.9c.1.2.2.4.3.5l.8 1.3.9 1.6.2.4c0 .1.1.1.1.2l1 1 1.4 1.3.5.4.3.3-4.3 5.8c-.2.2-.4.5-.6.7L19 21.8l-5.2 5.9h-.1l-1.4-.6-2.9-1.4-.8-.4c-.1-.1-.3-.1-.4-.2s-.2-.2-.4-.3l-.8-.5-2.7-2.4c-.3-.3-.7-.6-1-.9l-2.1-2c-.1-.1-.8-.7-.9-.8l.1-.1h.1l.3-.3.6-.5L7.5 12l1.2.6s.1 0 .1-.1c0-.2.1-.3.2-.4l.3-.7.6-1.5.2-.6s0-.1.1-.2l2.2-.5 4.1-.9 1.9-.4.8-.3c.1 0 .2 0 .4-.1" style="fill:#8a8988"/><path d="M10.6 10.6c.2 0 .4.1.6.1l1.7.3 1.8.4c.3.1.6.1.9.2l-7.3 6.9c.1-.6.3-1.2.5-1.8l.5-1.7.8-2.7.3-1.2c.1-.2.2-.4.2-.5" class="st0"/><path d="M10.6 10.6c0 .2-.1.4-.1.5l-.3 1.2-.9 2.7-.5 1.7c-.2.6-.4 1.2-.5 1.8l-.1.1h-.5l-1.4-.1-3.5-.1-2.5-.1.1-.1h.1l.3-.3.6-.5L7.5 12l1.2.6s.1 0 .1-.1c.2-.2.3-.4.5-.5.4-.5.8-1 1.3-1.4" class="st1"/><path d="m20.7 19.8-6-1.4 1.1-4 2.4-1.4 2.8-1.6.6-.3c.1-.1.2-.1.3-.2l1 1 1.4 1.3.5.4.3.3z" class="st0"/></svg>