<svg xmlns="http://www.w3.org/2000/svg" xml:space="preserve" id="Layer_1" x="0" y="0" version="1.1" viewBox="0 0 30 30"><style>.st0{fill:#129595}.st2{fill:#9ef4ee}.st5{fill:#053239}.st6{fill:#fdeacf}.st8{fill:#c04917}.st12{fill:#f89f67}</style><path d="m26.3 13.1.2-.1-.3.9c-.1.3-.3.6-.4.9-.2.4-.4.9-.7 1.3q-.75 1.2-1.8 2.1c-.2.2-.5.4-.7.6-.1.1-.3.2-.4.3l.2-.1h.1c-1 .4-2.1.7-3.2.9l-.9.1h-.8l.7-1.1-.2.1c-.5.1-.9.3-1.4.4.1-.1.1-.1.2-.1s.2-.1.3-.1l1.1-.7c1.1-.7 2.1-1.5 2.9-2.5.2-.3.3-.5.5-.8h.1l1.1-.3c.1-.1.2-.1.3-.1l.7-.3.7-.3.6-.3z" class="st0"/><linearGradient id="SVGID_1_" x1="22.477" x2="23.629" y1="13.501" y2="12.168" gradientTransform="matrix(1 0 0 -1 0 30)" gradientUnits="userSpaceOnUse"><stop offset="0" style="stop-color:#082936"/><stop offset="1" style="stop-color:#00363b"/></linearGradient><path d="m26.3 13.1.2-.1-.3.9c-.1.3-.3.6-.4.9-.2.4-.4.9-.7 1.3q-.75 1.2-1.8 2.1c-.2.2-.5.4-.7.6-.1.1-.3.2-.4.3l.2-.1h.1c-1 .4-2.1.7-3.2.9l-.9.1c.2-.1.5-.1.7-.2l.9-.3c1-.4 1.9-.9 2.7-1.6 1-.8 1.9-1.9 2.6-3l.5-.9c.1-.2.2-.3.2-.5.2-.1.3-.3.3-.4" style="fill:url(#SVGID_1_)"/><path d="M26.3 13.1c0 .1-.1.4-.2.4s-.1.1-.1.2l-.2.3-.8.8c-1.4 1.4-3 2.5-4.9 3.2-.6.2-1.2.5-1.8.6 1.1-.7 2.1-1.5 2.9-2.5.2-.3.3-.5.5-.8h.1l1.1-.3c.1-.1.2-.1.3-.1l.7-.3.7-.3.6-.3z" class="st2"/><path d="m26.3 13.1-.9.7c-.5.3-1.1.6-1.7.8-.3.1-.5.2-.8.3.1-.1.2-.1.3-.1l.7-.3.7-.3.6-.3z" style="fill:#041c28"/><path d="M28.9.6c-.1.2-.1.5-.2.7l-.5 1.5c-.8 2.3-2.1 4.6-3.9 6.2l.3-.8.3-1.2c0-.2.1-.5.1-.7v-.1l.1-.3-.7.7c-.2.1-.3.3-.4.4l-.6.5L21.6 9c-1.8 1.4-3.7 2.6-5.6 3.8-1 .6-2 1.2-3 1.7l-.1.1v.2l-.1.2c-.1.5-.3 1.1-.5 1.6-.8 2.2-1.9 4.2-3.4 5.9-1 1.1-2.2 2-3.4 2.7-.6.4-1.3.7-1.9 1-.3.2-.6.2-.9.3-.1 0-.3.1-.4.1l.2-.2.7-.7L5.1 24c2.4-2.5 4.3-5.6 5.1-9 .2-.7.3-1.4.4-2.1z" class="st2"/><linearGradient id="SVGID_00000077291444491587194960000014752994800631762107_" x1="17.831" x2="12.66" y1="14.242" y2="19.209" gradientTransform="matrix(1 0 0 -1 0 30)" gradientUnits="userSpaceOnUse"><stop offset="0" style="stop-color:#109394"/><stop offset="1" style="stop-color:#2ab6ba"/></linearGradient><path d="M28.9.6c-.1.2-.1.5-.2.7l-.5 1.5c-.8 2.3-2.1 4.6-3.9 6.2l.3-.8.3-1.2c0-.2.1-.5.1-.7v-.1l.1-.3c.5-.6 1-1.1 1.4-1.7l1-1.4.6-.9-.5.3-.9.6L24 4.6l-11.1 7.5-1.2.8-.4.3s-.1 0-.1.1v.3c-.1.9-.3 1.7-.6 2.6-.9 3-2.7 5.8-4.9 8.1-.6.6-1.2 1.2-1.8 1.7-.1.1-.3.2-.3.3-.3.2-.6.2-.9.3-.1 0-.3.1-.4.1l.2-.2.7-.7L5.1 24c2.4-2.5 4.3-5.6 5.1-9 .2-.7.3-1.4.4-2.1z" style="fill:url(#SVGID_00000077291444491587194960000014752994800631762107_)"/><path d="M13 14.4s0 .1 0 0v.6c0 .3-.1.5-.1.8-.1.5-.2.9-.4 1.4l-.3.7c0 .1-.1.2-.1.3.1-.1.2-.3.3-.5.3-.6.5-1.2.7-1.9l.1-.6c0 .2-.1.5-.1.7-.1.3-.1.7-.2 1v.1c-.1.2-.1.5-.2.7l-.7 1.2c-.1.3-.2.6-.4.8 0 .1-.1.1-.1.2h.1c.2.1.4.1.6.1.8.1 1.5 0 2.3-.1.7-.1 1.4-.2 2.1-.4.5-.1.9-.3 1.4-.4l.2-.1-.7 1.1h.8l.9-.1c1.1-.2 2.1-.5 3.2-.9h-.1l1.3-.7c-.3.4-.5.9-.8 1.3-.8 1.1-1.7 2.1-2.8 2.9-.4.3-.9.6-1.4.9-.2.1-.4.2-.6.2l1.4-.2c-1.1 1.4-2.6 2.5-4.3 3.1l-.9.3c-.2 0-.4.1-.5.1-.1.1-.2.2-.3.2l-.6.5c-1.1.7-2.4 1.3-3.8 1.4-1.4.2-2.9 0-4.2-.6q-1.05-.45-2.1-1.2c-.2-.1-.4-.2-.5-.4v-.1c.1 0 .3-.1.4-.1l.9-.3c.7-.3 1.3-.6 1.9-1 1.2-.7 2.4-1.7 3.4-2.7 1.6-1.7 2.7-3.8 3.4-5.9.2-.5.4-1 .5-1.6l.1-.3c.1-.3.1-.4.2-.5-.1.1 0 0 0 0" class="st5"/><path d="m9 23.4.9-1c.2.1.4.2.7.3.4.1.7.1 1.1.1h1.9-.1c-.2 0-.5.2-.7.2-1 .3-2.1.6-3.2.5-.2 0-.5 0-.6-.1" class="st6"/><linearGradient id="SVGID_00000018210477377849259120000016260865463444012478_" x1="11.568" x2="9.983" y1="8.038" y2="4.831" gradientTransform="matrix(1 0 0 -1 0 30)" gradientUnits="userSpaceOnUse"><stop offset="0" style="stop-color:#ca451b"/><stop offset="1" style="stop-color:#db7233"/></linearGradient><path d="M9 23.4c.2.1.4.1.6.1 1.1.1 2.2-.2 3.2-.5.3-.1.5-.2.8-.3-.1.2-.3.3-.5.4-.5.3-1 .5-1.5.7-.3.1-.7.2-1 .3-.5.1-1 .2-1.5.2h-1z" style="fill:url(#SVGID_00000018210477377849259120000016260865463444012478_)"/><path d="M16.7 19.5c.5-.1.9-.3 1.4-.4-.1.2-.4.4-.6.6-.6.6-1.4 1.1-2.1 1.5q-1.35.75-2.7 1.2c-.6.1-1.1.2-1.7.1l-.9-.3.3-.4.7-1 .6-1h.1c0 .2.2.2.4.2.8.1 1.5 0 2.3-.1s1.5-.2 2.2-.4" class="st8"/><path d="M10.9 21c.2.1.4.1.6.1.5.1.9.1 1.4.1h.6l-1 .3c-.7.2-1.5.4-2.3.4z" style="fill:#f7cb9b"/><path d="M16.7 19.5c.5-.1.9-.3 1.4-.4-.2.1-.3.2-.5.3-.1.1-.3.2-.4.3-.7.4-1.5.8-2.3 1.1-.4.2-.9.4-1.3.5-.2-.1-.4 0-.6 0-.5 0-1-.1-1.4-.1-.2 0-.4-.1-.6-.1l.6-1h.1c.1-.1.3-.1.5-.1.8.1 1.5 0 2.3-.1s1.5-.2 2.2-.4" class="st6"/><linearGradient id="SVGID_00000129165279977899620050000017255971349475228086_" x1="13.714" x2="8.574" y1="8.826" y2=".225" gradientTransform="matrix(1 0 0 -1 0 30)" gradientUnits="userSpaceOnUse"><stop offset="0" style="stop-color:#03676f"/><stop offset="1" style="stop-color:#199997"/></linearGradient><path d="M7.4 24.8c.1 0 .2 0 .2.1.5.1.9.3 1.4.3 2 .4 4.1.5 6.1 0 .5-.1 1-.3 1.5-.5l.9-.4.9-.4c.1 0 .2-.1.3-.1-.3.2-.5.4-.8.6-1.1.7-2.2 1.3-3.4 1.6s-2.4.4-3.6.2c-.9-.1-1.9-.4-2.8-.8-.2-.1-.5-.3-.7-.4.2.2.5.4.7.6 1.1.8 2.5 1.2 3.8 1.3h.6c-.4.2-.7.4-1.1.6-1.6.8-3.5 1-5.2.5-.9-.2-1.8-.7-2.5-1.2 1-.4 1.9-.9 2.8-1.4z" style="fill:url(#SVGID_00000129165279977899620050000017255971349475228086_)"/><linearGradient id="SVGID_00000060023120553978079890000004142139722565949602_" x1="18.132" x2="12.523" y1="13.785" y2="2.662" gradientTransform="matrix(1 0 0 -1 0 30)" gradientUnits="userSpaceOnUse"><stop offset="0" style="stop-color:#09787d"/><stop offset="1" style="stop-color:#1fa2a2"/></linearGradient><path d="m22.5 19 .9-.5-.1.1c-.5.7-1.1 1.2-1.6 1.8l-1 .9c-.3.2-.5.5-.8.7q-1.8 1.2-3.9 1.5-.9.15-1.8 0c.1.1.3.1.5.1 1.2.3 2.4.3 3.6.1.2 0 .4-.1.6-.1.1 0 .3-.1.4-.1-.1.1-.3.2-.4.3-.1 0-.2.1-.3.1l-.9.4-.9.4c-.5.2-1 .4-1.5.5-2 .5-4.1.5-6.1 0-.5-.1-.9-.2-1.3-.4-.1 0-.2 0-.2-.1l.2-.1c.2 0 .4.1.6.1.9.1 1.8 0 2.7-.2.8-.2 1.5-.5 2.2-.9.5-.3 1-.6 1.4-.9l1.1-.8c.7-.6 1.4-1.2 2-2h.8l.9-.1c.8-.1 1.9-.4 2.9-.8" style="fill:url(#SVGID_00000060023120553978079890000004142139722565949602_)"/><path d="m22.5 19 .9-.5-.1.1s-.1 0-.1.1c-.2.2-.4.3-.6.5l-.8.7c-1.6 1.1-3.3 1.8-5.2 2.1h-.9c.7-.6 1.4-1.2 2-2h.8l.9-.1c1-.2 2.1-.5 3.1-.9" class="st2"/><path d="M28.9.6v.6c-.2 1.9-.8 3.8-1.8 5.5l-.6 1c-.1.2-.3.3-.4.5.2-.1.5-.3.7-.4.4-.3.8-.5 1.2-.8l.5-.4c.1-.1.2-.2.3-.2v.3l-.1.5c-.3 1.5-.9 3-1.8 4.3-.4.6-.8 1.2-1.3 1.8l-.4.4c-.1.1-.3.2-.3.3l-.6.3-.7.3-.7.3c-.1 0-.2.1-.3.1l-1.1.3h-.1c-.2.3-.3.5-.5.8-.8 1.1-1.8 1.9-2.9 2.5l-1.1.7c-.1 0-.2.1-.3.1s-.2 0-.2.1c-.7.2-1.4.3-2.1.4-.5.1-1.3.2-2.1.1-.2 0-.4 0-.6-.1h-.1c0-.1.1-.1.1-.2.2-.3.3-.6.4-.8l.5-1.3c.1-.2.2-.5.2-.7v-.1c.1-.3.2-.7.2-1 0-.2.1-.5.1-.7v.6c-.2.6-.4 1.3-.7 1.9-.1.2-.2.3-.3.5 0-.1.1-.2.1-.3l.3-.7c.2-.5.3-.9.4-1.4.1-.3.1-.5.1-.8 0-.1.1-.2 0-.4v-.2c1-.5 2-1.1 3-1.7 1.9-1.2 3.8-2.4 5.6-3.8l1.8-1.5.7-.4.4-.4.7-.7-.1.3v.1c0 .2 0 .5-.1.7l-.3 1.2-.3.9c1.8-1.7 3.1-3.9 3.9-6.2l.5-1.5c.1-.3.1-.5.2-.7" class="st5"/><path d="m28.8 6.3-.1.4-.3.6c-.3.5-.6 1-.9 1.4-.8 1-1.7 2-2.7 2.8-.8.7-1.7 1.3-2.6 1.9l-.7.4c-.1 0-.2.1-.2.1.9-.9 1.7-1.9 2.3-3 .2-.3.3-.7.5-1 0-.1.2-.5.2-.5s.1-.1.2-.1l.3-.3 1-.6c.9-.5 1.8-1.2 2.6-1.9z" class="st2"/><path d="M12.8 16.8c.1 0 .1-.1.2-.1l.5-.3 1.7-.9c2.3-1.2 4.5-2.8 6.3-4.7l.6-.7c.7-.8 1.4-1.7 2-2.6l.6-.9c.1-.2.2-.3.2-.5v.1c-.1.5-.3.9-.4 1.4-.4 1-.8 1.9-1.4 2.8-.3.4-.5.8-.8 1.2-1 1.3-2.2 2.5-3.6 3.4-.7.5-1.5.9-2.3 1.2s-1.7.5-2.6.7c-.1 0-.4.1-.4.1l-.6.1z" class="st8"/><path d="M28.8 6.3v.3l-.1.5c-.3 1.5-.9 3-1.8 4.3-.4.6-.8 1.2-1.3 1.8l-.4.4c-.1.1-.3.2-.3.3l-.6.3-.7.3-.7.3c-.1 0-.2.1-.3.1l-1.1.3h-.1l.9-2-.4.6-.8.5c-.4.2-.7.4-1.1.6-.2.1-.3.2-.5.2 0-.1.1-.1.2-.2l.4-.4c.3-.2.5-.5.8-.7.1 0 .2-.1.2-.1l.7-.4c.9-.5 1.8-1.2 2.6-1.9 1-.8 1.9-1.8 2.7-2.8.3-.4.7-.9.9-1.4l.3-.6z" class="st0"/><path d="M28.8 6.3v.3l-.1.5c-.3 1.5-.9 3-1.8 4.3-.4.6-.8 1.2-1.3 1.8l-.4.4c-.1.1-.3.2-.3.3l-.6.3-.7.3-.7.3c-.1 0-.2.1-.3.1l-1.1.3s.1-.1.2-.1c.3-.1.5-.3.8-.5.9-.7 1.9-1.5 2.7-2.3 1.1-1.2 2-2.6 2.7-4 .2-.4.4-.8.5-1.3.1-.2.1-.3.1-.5z" class="st5"/><path d="m25.1 5.8-.1.3c-.1.2-.2.3-.2.5l-.6.9c-.6.9-1.3 1.8-2 2.6l-.6.7c-1.8 1.9-4 3.4-6.3 4.7l-1.7.9-.6.3c-.1 0-.1.1-.2.1.1-.3.2-.7.2-1 0-.2.1-.5.1-.7l-.1.6c-.2.6-.4 1.3-.7 1.9-.1.2-.2.3-.3.5 0-.1.1-.2.1-.3l.3-.7c.2-.5.3-.9.4-1.4.1-.3.1-.5.1-.8 0-.1.1-.2 0-.4v-.2c1-.5 2-1.1 3-1.7 1.9-1.2 3.8-2.4 5.6-3.8l1.8-1.5.7-.4.4-.4z" class="st12"/><path d="M13 14.4c1-.5 2-1.1 3-1.7 1.9-1.2 3.8-2.4 5.6-3.8l1.8-1.5.6-.5.4-.4c-.1.2-.2.3-.3.4l-.5.7c-.6.8-1.3 1.5-2 2.1-1.7 1.6-3.6 2.9-5.7 4l-1.3.6-1.3.5v.3l-.3.6c-.2.6-.4 1.3-.7 1.9-.1.2-.2.3-.3.5 0-.1.1-.2.1-.3l.3-.7c.2-.5.3-.9.4-1.4.1-.3.1-.5.1-.8 0-.1.1-.2 0-.4.1 0 .1 0 .1-.1 0 .1 0 0 0 0" class="st0"/><path d="m22.1 13.9.4-.6-.9 2c-.2.3-.3.5-.5.8-.8 1.1-1.8 1.9-2.9 2.5l-1.1.7c-.1 0-.2.1-.3.1s-.2 0-.2.1c-.7.2-1.4.3-2.1.4s-1.5.2-2.3.1c-.2 0-.4 0-.6-.1h-.1c0-.1.1-.1.1-.2.2-.3.3-.6.4-.8l.5-1.3c.1-.2.2-.5.2-.7l.6-.1c.3 0 .6-.1.9-.1 1.2-.1 2.4-.4 3.6-.8.7-.2 1.4-.5 2-.8.2-.1.3-.1.5-.2.4-.2.7-.4 1.1-.6z" class="st12"/><path d="m22.1 13.9.4-.6-.9 2c-.2.3-.3.5-.5.8-.8 1.1-1.8 1.9-2.9 2.5l-1.1.7c-.1 0-.2.1-.3.1s-.2 0-.2.1c-.7.2-1.4.3-2.1.4s-1.5.2-2.3.1c-.2 0-.4 0-.6-.1h-.1c0-.1.1-.1.1-.2 2.6-.8 5.1-1.8 7.3-3.3.8-.5 1.6-1.1 2.2-1.7.1-.1.3-.2.4-.4l.3-.3.1-.1h.1c0 .1.1 0 .1 0" class="st8"/><path d="m22.1 13.9.4-.6-.9 2c-.2.3-.3.5-.5.8-.8 1.1-1.8 1.9-2.9 2.5l-1.1.7c-.1 0-.2.1-.3.1s-.2 0-.2.1c-.7.2-1.4.3-2.1.4s-1.5.2-2.3.1c-.2 0-.4 0-.6-.1h.7c.7 0 1.3-.1 2-.3.6-.2 1.2-.4 1.7-.6l.9-.4c1.7-.9 3.3-2.2 4.5-3.7l.6-.9z" class="st5"/></svg>