<?xml version="1.0" encoding="utf-8"?>
<!-- Generator: Adobe Illustrator 26.1.0, SVG Export Plug-In . SVG Version: 6.00 Build 0)  -->
<svg version="1.1" id="Layer_1" xmlns="http://www.w3.org/2000/svg" xmlns:xlink="http://www.w3.org/1999/xlink" x="0px" y="0px"
	 viewBox="0 0 30 30" style="enable-background:new 0 0 30 30;" xml:space="preserve">
<style type="text/css">
	.st0{fill:#240015;}
	.st1{fill:#E399CF;}
	.st2{fill:#4B004C;}
	.st3{fill:#86146C;}
	.st4{fill:#28616E;}
	.st5{fill:url(#SVGID_1_);}
	.st6{fill:url(#SVGID_00000075146107112787619320000001280961431756316060_);}
</style>
<path class="st0" d="M2,12c0,0.8,0,1.6,0.2,2.3c0.4,2.3,1.6,4.5,3.2,6.2c1.5,1.5,3.4,2.7,5.4,3.3c0.7,0.2,1.3,0.3,2,0.4
	c0.1,0,0.2,0,0.4,0l0.7,0.1c0.6,0.1,1.2,0.1,1.9,0c1.6-0.1,3.2-0.4,4.7-1c0.7-0.3,1.3-0.6,1.9-1c0.8-0.5,1.6-1.1,2.2-1.7
	c0.4-0.4,0.8-0.8,1.1-1.2l0.3-0.3c0-0.1,0.1-0.2,0.2-0.2l0,0c0.1-0.1,0.2-0.3,0.3-0.4l0.4-0.7c0.9-1.7,1.3-3.5,1.3-5.4l0,0
	c0,0.1,0.1,0.2,0.1,0.4l0.2,1.1c0.2,1.5,0.3,3,0.1,4.4c-0.1,0.8-0.3,1.5-0.6,2.3c-0.1,0.5-0.4,0.9-0.6,1.4c-1.2,2.6-3.3,4.8-5.9,6.1
	c-2.6,1.3-5.5,1.8-8.4,1.4c-0.7-0.1-1.4-0.2-2.1-0.5c-1.1-0.3-2.1-0.8-3-1.4c-2.1-1.3-3.9-3.2-5-5.4c-1.4-2.8-1.8-6.1-1.1-9.2
	c0-0.2,0.1-0.3,0.1-0.5C1.9,12.3,1.9,12.2,2,12z"/>
<path class="st1" d="M2,12l0-0.6c0-0.5,0.1-0.9,0.2-1.4c0.6-2.5,2.1-4.9,4.1-6.5c0.5-0.4,1.1-0.8,1.6-1.2c2.5-1.5,5.6-2.2,8.5-1.9
	c3.5,0.4,6.9,2.1,9.1,4.8c1.3,1.6,2.1,3.3,2.4,5.3c0.1,0.3,0.1,0.7,0.1,1l0,0.4c0,0.1,0,0.1,0,0.2c0,1.9-0.4,3.7-1.3,5.4l-0.4,0.7
	c-0.1,0.1-0.2,0.3-0.3,0.4l0,0c-0.1,0.1-0.1,0.1-0.2,0.2l-0.3,0.3c-0.3,0.4-0.7,0.8-1.1,1.2c-0.7,0.7-1.4,1.2-2.2,1.7
	c-0.6,0.4-1.3,0.7-1.9,1c-1.5,0.6-3.1,0.9-4.7,1c-0.6,0-1.3,0-1.9,0l-0.7-0.1c-0.1,0-0.2,0-0.4,0c-0.7-0.1-1.4-0.2-2-0.4
	c-2-0.6-4-1.8-5.4-3.3c-1.6-1.7-2.8-3.9-3.2-6.2C2,13.6,2,12.8,2,12z"/>
<path class="st2" d="M3.9,14.4c-0.3-1.2-0.3-2.5,0-3.7c0.5-2.6,2.1-5,4.2-6.5c1.3-0.9,2.7-1.5,4.2-1.9c0.7-0.2,1.4-0.2,2.1-0.3
	c0.4,0,0.8,0,1.2,0c0.2,0,0.5,0,0.7,0.1c0.5,0,0.9,0.1,1.4,0.2c1.9,0.4,3.6,1.3,5.1,2.5c0.3,0.3,0.7,0.6,1,0.9
	c1,1.1,1.8,2.4,2.2,3.8c0.2,0.6,0.3,1.3,0.4,2c0,0.4,0.1,0.8,0,1.2l-0.2,1.6c-0.1,0.6-0.3,1.2-0.5,1.8c-0.5,1.3-1.3,2.4-2.3,3.3
	L22.9,20c-0.1,0.1-0.1,0.1-0.2,0.2l0,0c0-0.1,0.1-0.1,0.1-0.2l0.2-0.4c0.3-0.5,0.5-1,0.7-1.5c0.1-0.3,0.2-0.6,0.2-0.9
	c0.1-0.6,0.3-1.2,0.3-1.8l0-1.2l0-0.3c0-0.1,0-0.1,0-0.2l0.1-0.9c0.1-1.9-0.6-3.8-1.7-5.3c-0.3-0.4-0.6-0.7-0.9-1
	c-0.3-0.3-0.7-0.6-1.1-0.9c-0.7-0.4-1.4-0.8-2.2-1c-0.5-0.2-1-0.3-1.5-0.5c-0.9-0.2-1.7-0.3-2.6-0.2c-2,0.1-4,0.8-5.6,2
	c-0.3,0.3-0.6,0.5-1,0.8C7.7,6.8,7.7,6.9,7.6,7L7.3,7.2c-0.9,0.9-1.8,1.9-2.4,3.1c-0.3,0.6-0.6,1.3-0.7,1.9L4,12.9L3.9,14.4z"/>
<path class="st3" d="M4,12.9l0-0.1l0,0c0,0,0,0,0-0.1l0,0l0,0v-0.1l0,0c0,0,0,0,0-0.1c0,0,0,0,0-0.1l0,0c0,0,0-0.1,0-0.1
	c0,0,0,0,0-0.1l0,0c0-0.1,0-0.1,0-0.1c-0.1-0.1,0-0.3-0.1-0.4c0,0,0-0.1,0-0.1l0,0l0,0c0,0,0,0,0-0.1l0,0l0,0c0,0,0-0.1,0-0.1l0,0
	c0,0,0,0,0-0.1l0,0l0,0l0,0l0-0.1c0,0,0-0.1,0-0.1l0,0l0,0c0,0,0-0.1,0-0.1c0,0,0,0,0-0.1c0,0,0,0,0,0l0,0h0c0,0,0,0,0-0.1
	c0,0,0,0,0,0c0,0,0,0,0-0.1l0,0c0-0.1,0,0,0-0.1l0,0l0,0c0,0,0-0.1,0-0.1c0,0,0-0.1,0-0.1l0,0l0,0l0,0l0,0l0-0.1l0,0l0,0l0,0l0,0
	c0,0,0,0,0-0.1l0,0l0,0c0,0,0,0,0-0.1l0,0l0,0l0.1-0.1l0,0l0,0l0,0l0,0l0,0c0,0,0,0.1,0,0.1l0,0l0,0l0,0h0C4.1,10.5,4,10.9,4,11.4
	c0,0.1,0,0.2,0,0.2c0,0,0.1,0,0.1,0c0,0,0,0,0.1,0c0,0.2-0.1,0.4,0,0.6l0,0c0,0,0,0.1,0,0.1l0,0.1l0-0.1l0,0L4,12.9z"/>
<path class="st1" d="M7.8,6.8c0.3-0.3,0.6-0.6,1-0.8c1.6-1.2,3.6-1.9,5.6-2c0.9,0,1.8,0,2.6,0.2c0.5,0.1,1,0.3,1.5,0.5
	c0.8,0.3,1.5,0.6,2.2,1c0.4,0.3,0.7,0.6,1.1,0.9c0.3,0.3,0.6,0.6,0.9,1c1.2,1.5,1.8,3.4,1.7,5.3l-0.1,0.9c0,0.1,0,0.1,0,0.2l0,0.3
	l0,1.2c-0.1,0.6-0.2,1.2-0.3,1.8c-0.1,0.3-0.1,0.6-0.2,0.9c-0.2,0.5-0.4,1-0.7,1.5L22.8,20c0,0.1-0.1,0.1-0.1,0.2
	c-0.3,0.3-0.7,0.6-1.1,0.8c-2.1,1.4-4.5,2.1-7,2c-1.6-0.1-3.3-0.4-4.8-1.1l-0.4-0.2c-0.1,0-0.1-0.1-0.2-0.1l0,0l-0.3-0.2l-0.1-0.1
	c-1.9-1.2-3.6-3-4.4-5.2C4.1,15.5,4,15,3.9,14.4L4,12.9l0.1-0.6c0.2-0.7,0.4-1.3,0.7-1.9c0.6-1.2,1.5-2.2,2.4-3.1L7.6,7
	C7.7,6.9,7.7,6.8,7.8,6.8z"/>
<path class="st4" d="M10.6,18.2c-0.1,0-0.2-0.1-0.3-0.2l-0.6-0.4c-1.3-1-2.3-2.6-2.5-4.2c-0.2-1.3,0-2.5,0.6-3.6
	C7.9,9.5,8,9.3,8.2,9.1c0,0.1-0.1,0.2-0.1,0.3L8,9.8c-0.1,0.4-0.1,0.8-0.1,1.3c-0.1,0.5-0.1,1.1,0,1.6c0,0.8,0.1,1.7,0.3,2.5
	c0.2,0.6,0.5,1.1,0.8,1.6c0.3,0.4,0.7,0.7,1.1,1l0.4,0.3C10.5,18.1,10.6,18.1,10.6,18.2z"/>
<path class="st4" d="M10,11c0.4-0.7,1-1.3,1.6-1.8C11.8,9,12,8.9,12.2,8.8c-0.3,0.4-0.5,0.8-0.6,1.3c0,0.1,0,0.2,0,0.3
	c0,0,0,0.1,0,0.1l0-0.1l0,0c-0.1,0.6,0,1.2,0,1.8l0,0.9c0,0.2,0,0.5,0,0.7c0.1,0.3,0.2,0.6,0.4,0.8c0.1,0.1,0.2,0.3,0.4,0.4
	c0.1,0.1,0.1,0.1,0.2,0.2c-0.1,0-0.2-0.1-0.3-0.2c-0.2-0.1-0.5-0.3-0.7-0.4c-0.8-0.5-1.4-1.4-1.7-2.2c-0.1-0.2-0.1-0.4-0.2-0.6
	c0-0.1,0.1-0.2,0.1-0.2l0.1-0.4L10,11z"/>
<path class="st4" d="M20,9.6c0.2,0.1,0.3,0.2,0.4,0.3c0.5,0.5,1,1,1.3,1.7c0.3,0.5,0.5,1,0.7,1.5c0.1,0.2,0.1,0.4,0.1,0.6l0,0
	c-0.1,0.4-0.2,0.8-0.4,1.2c-0.4,0.9-1,1.7-1.7,2.4c-0.3,0.3-0.7,0.5-1,0.8c-0.7,0.4-1.5,0.8-2.2,1c-0.1,0-0.3,0.1-0.4,0.1
	c0.2-0.1,0.5-0.2,0.7-0.3c0.8-0.3,1.6-0.8,2.1-1.5c0.4-0.6,0.7-1.4,0.8-2.2c0.1-0.5,0.1-1,0.1-1.5l0-0.6c0-0.1,0-0.2,0-0.3
	c0-0.2,0-0.4,0-0.6c0-0.6-0.1-1.3-0.3-1.8C20.2,10,20.1,9.8,20,9.6z"/>
<path class="st2" d="M14.5,8.9c0.7-0.4,1.6-0.4,2.3-0.1c0.8,0.3,1.5,0.9,1.9,1.7c0.4,0.8,0.4,1.8,0.1,2.6l-0.1,0.3
	c-0.1-0.2-0.1-0.3-0.2-0.5c-0.2-0.3-0.4-0.6-0.6-0.8c-0.1-0.1-0.2-0.2-0.4-0.3c0-0.1,0-0.2-0.1-0.4c-0.1-0.5-0.4-1-0.8-1.3
	c-0.3-0.2-0.7-0.4-1.1-0.3c-0.3,0-0.6,0.2-0.8,0.4c-0.1,0.1-0.1,0.3-0.1,0.4c0,0.2,0.1,0.3,0.3,0.3c0.3,0.2,0.8,0.4,0.9,0.8
	c0,0.1,0,0.3-0.1,0.4c-0.1,0.2-0.3,0.3-0.5,0.3l0,0c-0.1,0-0.3,0-0.4,0c-0.4-0.1-0.7-0.2-1-0.5c-0.1-0.1-0.3-0.3-0.3-0.5l0,0
	c-0.2-0.4-0.2-1-0.1-1.4C13.5,9.6,13.9,9.2,14.5,8.9z"/>
<path class="st4" d="M13.7,12.1c0.1-0.4,0.5-0.7,0.8-0.9l0.1,1.4C14.3,12.5,14,12.4,13.7,12.1z"/>
<path class="st2" d="M12.5,15.3c-0.1-0.1-0.1-0.1-0.2-0.2c-0.1-0.1-0.3-0.3-0.4-0.4c-0.2-0.2-0.3-0.5-0.4-0.8c0-0.2,0-0.5,0-0.7
	l0-0.9c0-0.6-0.1-1.2,0-1.8l0,0l0,0.1c0,0.9,0.3,1.7,0.9,2.4c0.6,0.6,1.4,1.1,2.3,1.1c0.8,0,1.5-0.2,2-0.7c0.4-0.4,0.6-0.8,0.7-1.4
	l0-0.2c0.1,0.1,0.3,0.2,0.4,0.3c0.3,0.2,0.5,0.5,0.6,0.8c0.1,0.2,0.1,0.3,0.2,0.5c-0.2,0.5-0.6,1.1-1.1,1.4
	c-0.1,0.1-0.2,0.1-0.3,0.2l0,0c-0.1,0.1-0.3,0.2-0.5,0.3c-0.7,0.4-1.6,0.5-2.4,0.5C13.8,15.8,13.1,15.6,12.5,15.3z"/>
<path class="st4" d="M17.5,11.8c0.1,0.1,0.3,0.2,0.4,0.3c0.3,0.2,0.5,0.5,0.6,0.8c0.1,0.2,0.1,0.3,0.2,0.5c-0.2,0.5-0.6,1.1-1.1,1.4
	c-0.1,0.1-0.2,0.1-0.3,0.2l0,0c0.1-0.1,0.1-0.3,0.1-0.4l0,0c0-0.2,0-0.3,0-0.5l0-0.8l0-0.9c0-0.2,0-0.3,0-0.5L17.5,11.8z"/>
<path class="st2" d="M10.3,8.4c0.2-0.3,0.4-0.6,0.6-0.8c0.8-0.8,1.8-1.4,2.9-1.7c1.9-0.5,3.9-0.2,5.6,0.7c1.5,0.9,2.7,2.4,3.2,4.1
	c0.3,1,0.3,2,0.1,3l0,0c-0.1-0.2-0.1-0.4-0.1-0.6c-0.2-0.6-0.4-1-0.7-1.5c-0.4-0.6-0.8-1.2-1.3-1.7c-0.1-0.1-0.3-0.3-0.4-0.3
	c-0.1-0.1-0.2-0.2-0.2-0.4c-0.2-0.3-0.4-0.5-0.6-0.7c-1-0.9-2.3-1.4-3.6-1.3c-1,0-2,0.4-2.8,1.1c-0.2,0.2-0.4,0.4-0.6,0.6
	C12,8.9,11.8,9,11.6,9.2c-0.7,0.5-1.2,1.1-1.6,1.8l-0.1,0.3l-0.1,0.4c0,0.1,0,0.2-0.1,0.2l0-0.2c0-0.3-0.1-0.7-0.1-1
	C9.6,9.9,9.9,9,10.3,8.4z"/>
<path class="st3" d="M9.6,11.7c0.1-0.1,0-0.2,0.1-0.3c0-0.2,0.1-0.3,0.1-0.5c0-0.1,0-0.2,0.1-0.3c0,0,0,0,0,0c0,0.1,0,0.1,0,0.2
	l0,0.5l-0.1,0.4c0,0.1,0,0.2-0.1,0.2L9.6,11.7z"/>
<linearGradient id="SVGID_1_" gradientUnits="userSpaceOnUse" x1="7.5678" y1="15.1303" x2="20.4385" y2="14.0371" gradientTransform="matrix(1 0 0 -1 0 30)">
	<stop  offset="0" style="stop-color:#4B004C"/>
	<stop  offset="1" style="stop-color:#86146C"/>
</linearGradient>
<path class="st5" d="M7.9,11c0,0.5,0.1,0.9,0.2,1.3c0.3,1.2,1,2.3,2,3.2c1.3,1.2,3.2,1.9,5,1.8c0.4,0,0.8-0.1,1.2-0.2
	c0.2,0,0.3-0.1,0.5-0.1c0.3-0.1,0.6-0.2,0.8-0.3c0.8-0.4,1.6-1,2.1-1.7c0.2-0.2,0.3-0.5,0.5-0.7c0.1-0.2,0.2-0.3,0.2-0.5
	c0.1-0.3,0.2-0.7,0.3-1c0,0.1,0,0.2,0,0.3l0,0.6c0,0.5,0,1-0.1,1.5c-0.1,0.8-0.4,1.6-0.8,2.2c-0.5,0.7-1.3,1.2-2.1,1.5
	c-0.2,0.1-0.5,0.2-0.7,0.3c0,0,0,0,0,0c-0.7,0.2-1.5,0.2-2.2,0.2c-1.4-0.1-2.8-0.4-3.9-1.1c-0.1-0.1-0.1-0.1-0.2-0.2l-0.4-0.3
	c-0.4-0.3-0.8-0.7-1.1-1c-0.4-0.5-0.7-1-0.8-1.6c-0.2-0.8-0.3-1.7-0.3-2.5C7.8,12.1,7.8,11.5,7.9,11z"/>
<linearGradient id="SVGID_00000000911581208579297680000011563552525584066729_" gradientUnits="userSpaceOnUse" x1="5.0983" y1="16.7144" x2="23.5653" y2="11.188" gradientTransform="matrix(1 0 0 -1 0 30)">
	<stop  offset="0" style="stop-color:#4B004C"/>
	<stop  offset="1" style="stop-color:#86146C"/>
</linearGradient>
<path style="fill:url(#SVGID_00000000911581208579297680000011563552525584066729_);" d="M7.8,6.8L7.8,6.8C7.6,7,7.5,7.2,7.3,7.4
	C7.1,7.6,6.9,7.9,6.8,8.2c-0.5,0.8-0.8,1.7-1,2.6c-0.1,0.2-0.1,0.5-0.1,0.7c0,0.1,0,0.3,0,0.4c-0.1,1.4,0.2,2.9,0.8,4.2l0.3,0.6
	C6.8,16.7,6.9,16.8,7,17c0.1,0.1,0.2,0.3,0.3,0.4c0.2,0.2,0.4,0.5,0.6,0.7c1.1,1,2.4,1.8,3.8,2.2c0.4,0.1,0.9,0.3,1.4,0.4
	c0.5,0.1,1.1,0.2,1.7,0.2c1.8,0.1,3.7-0.3,5.2-1.1c0.4-0.2,0.8-0.5,1.1-0.7c1.7-1.2,3-3.1,3.3-5.2c0,0.1,0,0.1,0,0.2l0,0.3l0,1.2
	c-0.1,0.6-0.2,1.2-0.3,1.8c-0.1,0.3-0.1,0.6-0.2,0.9c-0.2,0.5-0.4,1-0.7,1.5L22.8,20c0,0.1-0.1,0.1-0.1,0.2
	c-0.3,0.3-0.7,0.6-1.1,0.8c-2.1,1.4-4.5,2.1-7,2c-1.6-0.1-3.3-0.4-4.8-1.1l-0.4-0.2c-0.1,0-0.1-0.1-0.2-0.1l0,0l-0.3-0.2l-0.1-0.1
	c-1.9-1.2-3.6-3-4.4-5.2C4.1,15.5,4,15,3.9,14.4L4,12.9l0.1-0.6c0.2-0.7,0.4-1.3,0.7-1.9c0.6-1.2,1.5-2.2,2.4-3.1L7.6,7
	C7.7,6.9,7.7,6.8,7.8,6.8z"/>
<path class="st4" d="M7.8,6.8L7.8,6.8C7.6,7,7.5,7.2,7.3,7.4C7.1,7.6,6.9,7.9,6.8,8.2c-0.5,0.8-0.8,1.7-1,2.6
	c-0.1,0.2-0.1,0.5-0.1,0.7c0,0.1,0,0.3,0,0.4c0,0.1,0,0.1,0,0.2c-0.1,0.5-0.1,1-0.1,1.5c0,0.7,0,1.5,0.1,2.3
	c0.1,0.7,0.3,1.3,0.5,1.9c0.4,1.1,1.1,2.1,2,2.9L8.5,21c0.1,0.1,0.3,0.2,0.4,0.3l-0.1-0.1c-1.9-1.2-3.6-3-4.4-5.2
	C4.1,15.5,4,15,3.9,14.4L4,12.9l0.1-0.6c0.2-0.7,0.4-1.3,0.7-1.9c0.6-1.2,1.5-2.2,2.4-3.1L7.6,7C7.7,6.9,7.7,6.8,7.8,6.8z"/>
</svg>
