<?xml version="1.0" encoding="utf-8"?>
<!-- Generator: Adobe Illustrator 26.1.0, SVG Export Plug-In . SVG Version: 6.00 Build 0)  -->
<svg version="1.1" id="Layer_1" xmlns="http://www.w3.org/2000/svg" xmlns:xlink="http://www.w3.org/1999/xlink" x="0px" y="0px"
	 viewBox="0 0 30 30" style="enable-background:new 0 0 30 30;" xml:space="preserve">
<style type="text/css">
	.st0{fill:#8E6323;}
	.st1{fill:#F4B227;}
	.st2{fill:#FBF0A8;}
	.st3{fill:#B8812A;}
	.st4{fill:#FECE40;}
</style>
<path class="st0" d="M25.7,9.5l0,3.3l0,0.6c0,0,0,0.1,0,0.2c0,0.1-3.8,3.8-4.1,4.1L19.3,20l-6.5,6.6L10.4,29l-1,1c0-0.2,0-0.5,0-0.7
	l0-1.3l0-1.1c0-0.2,0-0.5,0-0.7L9.5,26c0.1-0.1,0.2-0.2,0.3-0.2l0.4-0.4l2.2-2.3l8.2-8.4l3.7-3.7l0.9-0.9
	C25.4,9.8,25.6,9.7,25.7,9.5z"/>
<path class="st1" d="M17.6,10.5L17.6,10.5C17.5,10.5,17.5,10.5,17.6,10.5c-0.1-0.1,0-0.1,0-0.1l0.2-0.3L18.6,9l3-4.2l0.4-0.5
	c0-0.1,0.1-0.1,0.2-0.2c0,0,0-0.1,0-0.2l0-0.7l0-2l0-1.1l0-0.1c-0.2,0-0.4,0-0.6,0.1l-1.1,0.1l-4.8,0.7l-1.4,0.2l-0.7,0.1
	c-0.1,0-0.2,0-0.3,0.1c-0.2,0.6-0.6,1.1-0.8,1.6L11,5.7l-5,9.1c0,0.1,0,0.3,0,0.5c0,0,0,2.5,0,2.7c0,0.1,0,0.1,0,0.2
	c0,0.1,6.9-0.7,6.9-0.7c0.1,0,0.2,0,0.3,0c0.3,0-2.5,5.6-2.5,5.7c0,0,0,0,0,0.1c0,0.1-0.1,0.1-0.1,0.2c-0.1,0.2-0.1,0.3-0.2,0.5
	c-0.1,0.3-0.3,0.6-0.4,0.9c0,0.1-0.1,0.1-0.1,0.2c-0.2,0.4-0.4,0.8-0.5,1.2L9.5,26c0.1-0.1,0.2-0.2,0.3-0.2l0.4-0.4l2.2-2.3l8.2-8.4
	l3.7-3.7l0.9-0.9c0.2-0.2,0.4-0.3,0.5-0.5L17.6,10.5z"/>
<path class="st2" d="M15.5,12.3l2.9-0.4l-2.7,4.2l-1.7,2.8l-2.7,4.3l-1.2,2l-0.3,0.5c-0.1,0.1-0.2,0.2-0.2,0.4l-0.1,0.1
	c0.1-0.4,0.3-0.8,0.5-1.2l0.8-1.9l2.5-5.7c0.1-0.1,0.1-0.2,0.2-0.3l0.3-0.8l0.6-1.3l0.6-1.3c0.1-0.1,0.2-0.3,0.2-0.5
	C15.2,12.9,15.4,12.6,15.5,12.3z"/>
<path class="st0" d="M22.2,0.1l0,1.1l0,2l0,0.7c0,0,0,0.2,0,0.2c0,0.1-0.1,0.2-0.2,0.2l-0.4,0.5l-3,4.2l-0.8,1.1l-0.2,0.3
	c0,0,0,0.1-0.1,0.1c0,0,0,0,0,0l0,0c0,0-0.1,0-0.2,0l-0.6,0.1l-2.2,0.3L22.2,0.1z"/>
<g>
	<path class="st3" d="M6,14.8c0,0.1,0,3.4,0,3.4l7.2-0.9c0.1-0.1,1.7-3.8,1.7-3.8S6.3,14.8,6,14.8z"/>
</g>
<path class="st4" d="M6,14.8l5-9.1l1.6-2.9c0.3-0.5,0.6-1.1,0.8-1.6c0.1,0.2,0.3,0.3,0.5,0.4l1.1,1L19.7,2l-1.1,1.2l-1.9,2l-1.4,1.4
	l-2.9,3.1l-2,2.2l-0.6,0.7c-0.1,0.1-0.2,0.3-0.4,0.4l-0.1,0.1l0,0l6.1-0.9c-0.1,0.3-0.3,0.6-0.4,0.9c-0.1,0.1-0.1,0.4-0.2,0.5
	L12.4,14l-3.5,0.5L7,14.7C6.6,14.8,6.3,14.8,6,14.8z"/>
</svg>
