<?xml version="1.0" encoding="utf-8"?>
<!-- Generator: Adobe Illustrator 26.1.0, SVG Export Plug-In . SVG Version: 6.00 Build 0)  -->
<svg version="1.1" id="Layer_1" xmlns="http://www.w3.org/2000/svg" xmlns:xlink="http://www.w3.org/1999/xlink" x="0px" y="0px"
	 viewBox="0 0 30 30" style="enable-background:new 0 0 30 30;" xml:space="preserve">
	<style type="text/css">
	.st0{fill:#2B2D42;}
	.st1{fill:#8D99AE;}
	.st2{fill:#6F7171;}
	.st3{fill:#EDF2F4;}
</style>
<path class="st1" d="M11.3,8.1L11.3,8.1c-0.2-1-0.2-1.9-0.1-2.8l0.1-0.6c0-0.3,0.1-0.5,0.2-0.7c0-0.1,0.1-0.2,0.1-0.3
	c0,0.1-0.1,0.3-0.1,0.4c-0.1,0.4-0.1,0.9-0.1,1.3c0,0.6,0.2,1.3,0.4,1.9l0.2,0.4L11.3,8.1z"/>
<path class="st1" d="M6.4,8.3c0,0.2-0.1,0.4-0.1,0.6c0,0.4,0,0.8,0,1.3c0.1,0.6,0.3,1.2,0.6,1.7l-0.6,0.9l0,0c0-0.1-0.1-0.2-0.1-0.3
	l-0.1-0.5C6.1,11.1,6,10.2,6.2,9.3C6.2,9,6.3,8.6,6.4,8.3z"/>
<path class="st1" d="M18.8,3.9c0.2,0.1,0.3,0.4,0.4,0.5c0.8,1.2,1.2,2.7,1.2,4.1l0,0.6l-0.9-0.6c0.1-0.1,0.1-0.4,0.1-0.5
	c0.1-1,0-2.1-0.4-3.1c-0.1-0.2-0.2-0.4-0.3-0.7C18.9,4.2,18.8,4,18.8,3.9L18.8,3.9z"/>
<path class="st2" d="M24,9.2c0,0.1,0.1,0.1,0.1,0.2c0.1,0.3,0.2,0.5,0.3,0.8c0.1,0.3,0.2,0.5,0.2,0.8c0.1,0.4,0.1,0.8,0.1,1.2
	c0,0.6-0.1,1.1-0.2,1.7l-0.1,0.5l-0.1,0.3c0,0,0,0.1,0,0.1c0,0,0,0,0,0l0,0c0,0,0,0,0-0.1c0,0,0,0,0-0.1c0-0.2-0.1-0.3-0.1-0.5
	c-0.1-0.4-0.3-0.9-0.5-1.3l0,0l0,0c0.4-0.6,0.6-1.3,0.7-1.9c0-0.2,0-0.4,0-0.6C24.2,9.9,24.1,9.5,24,9.2z"/>
<path class="st3" d="M22.8,11.7c0,0,0.1-0.1,0.1-0.1c0.2-0.3,0.3-0.6,0.4-0.9c0.1-0.2,0.1-0.4,0.2-0.7c0.1-0.7,0.1-1.4-0.1-2.1
	c0.1,0.1,0.1,0.2,0.2,0.3l0,0L24,9.2c0.1,0.4,0.2,0.8,0.3,1.2c0,0.2,0,0.4,0,0.6c-0.1,0.7-0.3,1.4-0.7,1.9l0,0L22.8,11.7z"/>
<path class="st3" d="M18,7.8l0.2-0.6c0.4-1,0.5-2.2,0.2-3.2c-0.1-0.3-0.2-0.6-0.3-0.9c0.2,0.2,0.4,0.4,0.5,0.7l0.2,0.2l0,0
	c0,0.1,0.1,0.2,0.2,0.3c0.1,0.2,0.2,0.4,0.3,0.7c0.3,1,0.5,2.1,0.4,3.1c0,0.2,0,0.4-0.1,0.5C19,8.2,18.5,7.9,18,7.8z"/>
<path class="st3" d="M5.7,14.9c0-0.1-0.1-0.2-0.1-0.3c-0.1-0.3-0.2-0.6-0.2-0.9c-0.1-0.5-0.1-1-0.1-1.4c0-1.6,0.5-3.1,1.4-4.4
	L6.4,8.3C6.3,8.6,6.2,9,6.2,9.3c-0.2,0.9-0.1,1.8,0.1,2.6l0.1,0.5c0,0.1,0,0.2,0.1,0.3l0,0c-0.2,0.4-0.4,0.7-0.5,1.1
	C5.9,14.2,5.8,14.5,5.7,14.9z"/>
<path class="st3" d="M9.6,9.1c0-0.1,0-0.1,0-0.2l0-0.4c0-0.4,0-0.7,0.1-1.1c0.3-1.6,1.1-3.1,2.2-4.3l-0.3,0.6
	c-0.1,0.1-0.1,0.2-0.1,0.3c-0.1,0.2-0.2,0.5-0.2,0.7l-0.1,0.6C11,6.2,11.1,7.1,11.2,8l0,0.1C10.7,8.4,10.2,8.7,9.6,9.1z"/>
<path class="st3" d="M19.5,18.7c-0.2-0.3-0.3-0.6-0.3-1c-0.1-1.2,0.2-2.6,0.9-3.5c0.4-0.4,0.9-0.9,1.5-0.9c0.4,0,0.7,0.1,1,0.3
	c0.5,0.4,0.8,1.2,0.8,1.8c-0.2-0.1-0.4-0.2-0.7-0.3l0,0c-0.6-0.1-1.4,0.2-1.9,0.6c-0.7,0.5-1.3,1.4-1.4,2.2c0,0.1,0,0.3,0,0.5
	C19.5,18.5,19.5,18.6,19.5,18.7z"/>
<path class="st3" d="M16.3,15c-0.4-0.4-0.6-1-0.7-1.6c-0.2-1.2,0-2.5,0.7-3.5c0.3-0.5,0.7-0.8,1.3-1c0.3-0.1,0.6,0,0.9,0.2
	c0.6,0.3,1,1.1,1.2,1.7c-0.4-0.2-0.8-0.3-1.3-0.2c-0.8,0.2-1.4,0.9-1.8,1.6c-0.4,0.7-0.6,1.5-0.4,2.3c0,0.1,0,0.1,0.1,0.2
	C16.2,14.9,16.3,14.9,16.3,15z"/>
<path class="st3" d="M11.6,15.2c-0.3-0.2-0.6-0.6-0.8-0.9c-0.6-1-0.8-2.4-0.5-3.5c0.2-0.6,0.6-1.3,1.1-1.6c0.4-0.2,0.8-0.2,1.2-0.1
	c0.6,0.2,1.1,0.7,1.4,1.3l0,0c-0.1,0-0.2,0-0.2,0c-0.1,0-0.3,0-0.4,0.1c-0.8,0.3-1.5,1-1.9,1.7c-0.4,0.7-0.6,1.5-0.3,2.3
	c0,0.1,0.1,0.3,0.2,0.4c0,0.1,0.1,0.1,0.1,0.2C11.6,15.1,11.6,15.1,11.6,15.2z"/>
<path class="st3" d="M8.7,19.3c-0.5-0.1-0.9-0.5-1.2-0.9c-0.5-0.7-0.9-1.5-1-2.4c0-0.2,0-0.5,0-0.8c0.1-0.6,0.3-1.3,0.8-1.7
	c0.3-0.2,0.7-0.4,1.1-0.3c0.6,0.1,1.2,0.5,1.5,1l0,0c-0.2,0.1-0.3,0.1-0.5,0.2c-0.6,0.3-1,0.9-1.2,1.4c-0.3,0.8-0.4,1.8-0.1,2.6
	c0.1,0.2,0.2,0.5,0.4,0.7C8.6,19.2,8.7,19.2,8.7,19.3z"/>
<path class="st1" d="M10,14.3c0.7,0.9,1,2,0.9,3c-0.1,0.6-0.3,1.3-0.9,1.7c-0.3,0.2-0.6,0.3-1,0.3c-0.1,0-0.2,0-0.2-0.1
	c-0.1-0.1-0.1-0.1-0.2-0.1c-0.2-0.2-0.3-0.4-0.4-0.7c-0.3-0.8-0.2-1.8,0.1-2.6c0.2-0.6,0.7-1.1,1.2-1.4C9.6,14.4,9.8,14.3,10,14.3
	L10,14.3z"/>
<path class="st1" d="M19.5,18.7c0-0.1,0-0.1,0-0.2c0-0.2,0-0.3,0-0.5c0.1-0.9,0.7-1.7,1.4-2.2c0.5-0.4,1.2-0.7,1.9-0.6l0,0
	c0.2,0,0.5,0.1,0.7,0.3c0.1,1.1-0.3,2.3-1.1,3.1c-0.4,0.5-1,0.9-1.6,0.9c-0.1,0-0.2,0-0.4,0l0,0C20,19.3,19.7,19,19.5,18.7
	C19.5,18.7,19.5,18.7,19.5,18.7z"/>
<path class="st1" d="M16.3,15c0-0.1-0.1-0.2-0.1-0.2c0-0.1,0-0.1-0.1-0.2c-0.2-0.8,0-1.6,0.4-2.3c0.4-0.7,1-1.3,1.8-1.6
	c0.5-0.1,0.9-0.1,1.3,0.2c0.3,1.2,0.2,2.4-0.5,3.4c-0.3,0.5-0.8,1-1.4,1.2c-0.2,0-0.4,0.1-0.6,0l0,0C16.8,15.4,16.4,15.2,16.3,15z"
	/>
<path class="st1" d="M14.1,10.3c0.6,1,0.7,2.2,0.4,3.3c-0.2,0.6-0.5,1.3-1.1,1.7c-0.4,0.2-0.8,0.3-1.2,0.2c-0.2-0.1-0.5-0.2-0.6-0.3
	c0,0-0.1-0.1-0.1-0.1c-0.1-0.1-0.1-0.1-0.1-0.2c-0.1-0.1-0.1-0.3-0.2-0.4c-0.2-0.8,0-1.6,0.3-2.3c0.4-0.7,1.1-1.4,1.9-1.7
	c0.1,0,0.3-0.1,0.4-0.1C13.9,10.3,14,10.3,14.1,10.3L14.1,10.3z"/>
<path class="st3" d="M9.9,24.3c-0.2-0.2-0.4-0.4-0.5-0.5c-0.1-0.1-0.2-0.2-0.3-0.4c0-0.1,0-0.2,0-0.3c0.1-0.6,0.2-1.2,0.4-1.8
	c0.5-1.9,1.7-4,3.5-5c0.9-0.5,2-0.7,3-0.4c1.2,0.3,2.1,1.1,2.9,2.1c0.1,0.2,0.3,0.4,0.4,0.5l0,0c-0.1,0-0.2-0.1-0.2-0.1
	c-0.2-0.1-0.4-0.2-0.6-0.3c-0.4-0.1-0.7-0.2-1.1-0.2c-0.7,0-1.5,0.1-2.2,0.4c-2.1,0.8-3.8,2.6-4.7,4.7L9.9,24.3z"/>
<path class="st1" d="M9.9,24.3l0.5-1.4c0.9-2,2.6-3.9,4.7-4.7c0.7-0.3,1.4-0.4,2.2-0.4c0.4,0,0.8,0,1.1,0.2c0.2,0.1,0.4,0.2,0.6,0.3
	c0.1,0,0.1,0.1,0.2,0.1l0,0c0.1,0.1,0.2,0.3,0.3,0.4c0.7,1.1,1.1,2.4,1.2,3.7l0,0.5c0,0.1,0,0.2,0,0.2c0,0-0.1,0.2-0.1,0.2
	c-0.4,0.5-0.8,0.9-1.3,1.3c-1.1,0.8-2.3,1.2-3.7,1.4c-0.6,0.1-1.3,0.1-1.9,0c-1-0.2-2-0.5-2.9-1C10.6,24.9,10.2,24.6,9.9,24.3z"/>
</svg>
