<?xml version="1.0" encoding="utf-8"?>
<!-- Generator: Adobe Illustrator 26.1.0, SVG Export Plug-In . SVG Version: 6.00 Build 0)  -->
<svg version="1.1" id="Layer_1" xmlns="http://www.w3.org/2000/svg" xmlns:xlink="http://www.w3.org/1999/xlink" x="0px" y="0px"
	 viewBox="0 0 40 40" style="enable-background:new 0 0 40 40;" xml:space="preserve">
<style type="text/css">
	.st0{fill:#FDC94D;}
	.st1{fill:#FDD56E;}
	.st2{fill:#F8AE26;}
	.st3{fill:#A34101;}
	.st4{fill:#C15D07;}
	.st5{fill:#E28415;}
</style>
<path class="st0" d="M3.9,23c0.4,0.4,0.8,0.7,1.3,0.9c-0.2,0.2-0.3,0.5-0.4,0.7c-0.3,0.6-0.6,1.2-0.8,1.9c-0.1,0.4-0.2,0.8-0.3,1.1
	L2.5,27c0.1-1,0.4-2,0.8-2.9C3.5,23.7,3.7,23.3,3.9,23z"/>
<path class="st1" d="M3.9,23c0.1-0.3,0.3-0.5,0.5-0.7c0.6-0.7,1.2-1.4,1.9-1.9L6.8,20l0.3-0.2c0,0,0.1,0,0.1-0.1c0,0,0-0.1,0-0.1
	l0.1-0.4l0.3-0.8c0.3-0.8,0.7-1.6,1.2-2.4c0.8-1.2,1.9-2.3,3.1-3.2l0.7-0.5c0.1-0.1,0.3-0.2,0.5-0.3c0.1-0.1,0.2-0.3,0.3-0.4
	l0.6-0.7l3.2-3.8c0.4-0.5,0.8-1,1.3-1.4c0.3-0.3,0.7-0.4,1.1-0.5c0.6-0.1,1.2,0,1.7,0.3C21.2,5.8,21.1,5.9,21,6l-0.5,0.5L17.9,9
	l-0.7,0.7c-0.1,0.1-0.3,0.2-0.3,0.4l-0.3,0.3c-0.2,0.1-0.3,0.3-0.4,0.5c-0.9,1-1.6,2.1-2.1,3.3c-0.3,0.7-0.5,1.4-0.8,2.1
	c-0.1,0.1-0.1,0.2-0.2,0.3l0,0l0,0c-0.1,0.1-0.2,0.3-0.3,0.4c-0.3,0.5-0.6,0.9-1,1.4c-0.1,0.1-0.6,0.6-0.6,0.6c0,0,0,0,0,0l0,0
	c0,0,0,0-0.1,0c-0.8,0.7-1.7,1.2-2.6,1.8c-1,0.6-1.9,1.4-2.6,2.3c-0.2,0.2-0.4,0.4-0.5,0.7l0,0C4.7,23.7,4.3,23.4,3.9,23z"/>
<path class="st2" d="M11,19.1c-0.2-0.1-0.3-0.2-0.5-0.3c-0.1-0.1-0.3-0.2-0.4-0.4l0,0c-0.2-0.3-0.3-0.7-0.3-1.1
	c0-0.5,0.3-0.9,0.7-1.1c0.3-0.3,0.8-0.4,1.2-0.3c0.5,0.1,0.9,0.3,1.2,0.7l0,0l0,0c-0.1,0.1-0.2,0.3-0.3,0.4c-0.3,0.5-0.6,0.9-1,1.4
	C11.6,18.6,11,19.1,11,19.1C11,19.1,11,19.1,11,19.1L11,19.1C11,19.2,11,19.1,11,19.1z"/>
<path class="st3" d="M3.1,32l36.3,0c0,0.8,0.1,1.6-0.5,2.2c-0.2,0.2-0.5,0.4-0.8,0.5c-0.4,0.1-0.8,0-1.2,0l-2.1,0l-22.8,0l-6.8,0
	l-2.1,0c-0.4,0-0.7,0-1.1,0c-0.4,0-0.8-0.2-1-0.5l-0.1-0.1c-0.2-0.2-0.3-0.5-0.4-0.7c-0.1-0.3,0-0.7,0-1.1c0-0.1,0-0.2,0-0.2
	c0.1,0,0.3,0,0.4,0l0.6,0C2.1,32,2.6,32,3.1,32L3.1,32z"/>
<path class="st4" d="M0.5,32.2c0-0.1,0-0.2,0-0.2c0.1,0,0.3,0,0.4,0l0.6,0c0.5,0,1.1,0,1.6,0l-2.2,2.1c-0.2-0.2-0.3-0.5-0.4-0.7
	C0.5,33,0.5,32.6,0.5,32.2z"/>
<path class="st0" d="M21.3,5.7c0.2,0.1,0.4,0.3,0.6,0.4c0.3,0.3,0.5,0.5,0.7,0.8L24,8.6l1,1.1c0.1,0.1,0.3,0.3,0.4,0.4
	c-0.1,0.1-0.2,0.3-0.4,0.4l-0.6,0.6l-2.1,2.1L17.4,18l-3,2.9l-1.8,1.8l-1.1,1.1c-0.1,0.1-0.3,0.3-0.4,0.4l0,0c-0.1,0-0.3,0-0.5,0
	l-1.5,0.1c-0.1,0-0.3,0-0.4,0c-0.1,0.2-0.2,0.3-0.4,0.4c-0.2,0.1-0.4,0.1-0.6,0c-0.2-0.1-0.3-0.2-0.4-0.4c-0.1,0-0.2,0-0.3,0
	c-0.6,0-1.2-0.1-1.7-0.3c0.1-0.2,0.3-0.5,0.5-0.7c0.7-0.9,1.7-1.7,2.6-2.3c0.9-0.6,1.8-1.1,2.6-1.8c0,0,0,0,0.1,0l0,0c0,0,0,0,0,0
	c0,0,0.6-0.5,0.6-0.6c0.4-0.4,0.7-0.9,1-1.4c0.1-0.1,0.2-0.3,0.3-0.4l0,0l0,0c0.1-0.1,0.1-0.2,0.2-0.3c0.4-0.7,0.6-1.4,0.8-2.1
	c0.5-1.2,1.2-2.3,2.1-3.3c0.1-0.2,0.3-0.3,0.4-0.5l0.3-0.3c0.1-0.1,0.2-0.3,0.3-0.4L17.9,9l2.6-2.6L21,6C21.1,5.9,21.2,5.8,21.3,5.7
	z"/>
<path class="st5" d="M7.3,24.2c-0.1-0.2-0.1-0.4,0-0.6c0.1-0.2,0.3-0.3,0.5-0.4c0.2-0.1,0.4,0,0.6,0.1c0.2,0.1,0.3,0.3,0.4,0.5
	c0,0.1,0,0.3,0,0.5c-0.1,0.2-0.2,0.3-0.4,0.4c-0.2,0.1-0.4,0.1-0.6,0C7.5,24.6,7.4,24.4,7.3,24.2z"/>
<path class="st5" d="M11,19.2L11,19.2C11,19.1,11,19.1,11,19.2c0-0.1,0.5-0.6,0.6-0.6c0.4-0.4,0.7-0.9,1-1.4
	c0.1-0.1,0.2-0.3,0.3-0.4l0,0c0.2,0.4,0.3,0.8,0.2,1.3c-0.1,0.3-0.3,0.6-0.5,0.8l0,0c-0.4,0.3-0.8,0.4-1.3,0.4L11,19.2z"/>
<path class="st5" d="M16.8,10.1c0.3-0.2,0.6-0.3,0.9-0.3c0.4,0,0.8,0.2,1.1,0.5c0.2,0.2,0.3,0.5,0.4,0.8l0,0c0.1,0.4,0,0.8-0.3,1.1
	c-0.2,0.3-0.6,0.5-1,0.6l-0.1,0l0,0c-0.4,0-0.8-0.1-1.1-0.3c-0.4-0.3-0.6-0.7-0.6-1.2c0-0.3,0.1-0.7,0.3-1L16.8,10.1z"/>
<path class="st4" d="M37.6,27l1.9-1l0,6L3.1,32l2.2-2.1c0.2-0.2,0.9-0.9,1-1l1.3,0.5c1.4,0.4,2.9,0.6,4.4,0.4
	c0.8-0.1,1.6-0.3,2.3-0.6c0.6-0.3,1.1-0.7,1.7-1c2.3-1.2,5.3-1.2,7.6,0c0.4,0.2,0.7,0.5,1.1,0.7c0.5,0.3,1,0.5,1.5,0.7
	c2.6,0.8,5.2,0.1,7.6-0.9C35.2,28.2,36.4,27.6,37.6,27z"/>
<path class="st2" d="M25.3,10.1l1.2,1.4l0.4,0.5c0.1,0.1,0.2,0.2,0.2,0.3c0.1,0.1,0.3,0.2,0.5,0.3l0.8,0.5c1.3,0.9,2.4,2.1,3.2,3.4
	c0.4,0.7,0.8,1.4,1,2.2l0.2,0.7c0,0.1,0,0.2,0.1,0.3c0,0.1,0.3,0.2,0.3,0.3l0.8,0.6c0.5,0.4,1,0.9,1.4,1.4c0.4,0.5,0.7,0.9,1,1.5
	c0.1,0.2,0.2,0.4,0.3,0.6c-0.9,0-1.8-0.1-2.6-0.5c-0.4-0.2-0.7-0.5-1-0.7c-0.9-0.6-2-1-3.1-0.9c-0.9,0-1.8,0.3-2.5,0.8
	c-0.4,0.3-0.7,0.5-1.1,0.8c-0.9,0.6-2.2,0.8-3.3,0.7c-0.8-0.1-1.6-0.3-2.3-0.7c-0.3-0.2-0.6-0.4-1-0.7c-0.9-0.6-1.8-0.9-2.8-0.9
	c-0.8,0-1.6,0.2-2.3,0.5c-0.5,0.2-0.9,0.6-1.3,0.9c-0.5,0.3-1.1,0.5-1.7,0.7c-0.2,0-0.5,0.1-0.7,0.1c0.1-0.1,0.3-0.3,0.4-0.4
	l1.1-1.1l1.8-1.8l3-2.9l4.8-4.8l2.1-2.1l0.6-0.6C25.1,10.4,25.2,10.3,25.3,10.1z"/>
<path class="st5" d="M21.2,17.8c0.2,0,0.3,0,0.5,0.1c0.2,0.1,0.3,0.3,0.3,0.5c0,0.2,0,0.4-0.1,0.6c-0.1,0.2-0.3,0.3-0.5,0.3
	c-0.1,0-0.2,0-0.4-0.1c-0.2-0.1-0.3-0.2-0.4-0.4l0,0l0-0.1c0-0.2,0-0.4,0.1-0.6C20.8,17.9,21,17.8,21.2,17.8z"/>
<path class="st5" d="M28.1,17.9c0.2,0,0.3,0,0.5,0.1c0.2,0.1,0.3,0.3,0.3,0.5c0,0.2,0,0.4-0.1,0.6c-0.1,0.2-0.3,0.3-0.6,0.3
	c-0.2,0-0.3,0-0.5-0.1c-0.2-0.1-0.3-0.3-0.3-0.5c0-0.2,0-0.4,0.1-0.5C27.7,18.1,27.9,18,28.1,17.9z"/>
<path class="st5" d="M24.8,13.3c0.4,0,0.9,0.1,1.2,0.3c0.3,0.2,0.5,0.7,0.6,1.1c0,0.4-0.1,0.8-0.3,1.2c-0.3,0.4-0.6,0.6-1.1,0.6
	c-0.4,0-0.8-0.1-1.1-0.3c-0.3-0.2-0.6-0.6-0.6-1c-0.1-0.4,0-0.8,0.3-1.2C23.9,13.6,24.3,13.3,24.8,13.3z"/>
<path class="st5" d="M11.2,24.2c0.2,0,0.5,0,0.7-0.1c0.6-0.1,1.2-0.3,1.7-0.7c0.5-0.3,0.9-0.6,1.3-0.9c0.7-0.4,1.5-0.5,2.3-0.5
	c1,0,2,0.3,2.8,0.9c0.3,0.2,0.6,0.5,1,0.7c0.7,0.4,1.5,0.6,2.3,0.7c1.1,0.1,2.4-0.1,3.3-0.7c0.4-0.2,0.7-0.5,1.1-0.8
	c0.7-0.5,1.7-0.8,2.5-0.8c1.1,0,2.2,0.3,3.1,0.9c0.3,0.2,0.7,0.5,1,0.7c0.8,0.4,1.7,0.5,2.6,0.5c0.3,0.7,0.5,1.3,0.7,2.1l0.1,0.5
	c0,0.1,0,0.2,0,0.3c-1.2,0.6-2.4,1.2-3.6,1.7c-2.4,1-5,1.7-7.6,0.9c-0.5-0.2-1-0.4-1.5-0.7c-0.4-0.2-0.7-0.5-1.1-0.7
	c-2.3-1.2-5.3-1.2-7.6,0c-0.6,0.3-1.1,0.7-1.7,1c-0.7,0.3-1.5,0.5-2.3,0.6c-1.5,0.2-3,0-4.4-0.4l-1.3-0.5c-0.2,0-0.9,0.8-1,1L3.1,32
	l0,0c-0.5,0-1.1,0-1.6,0l-0.6,0c-0.1,0-0.3,0-0.4,0c0,0.1,0,0.2,0,0.2l0-6.3l2,1.1l1.2,0.6c0.1-0.4,0.2-0.8,0.3-1.1
	c0.2-0.6,0.5-1.3,0.8-1.9c0.1-0.2,0.3-0.5,0.4-0.7l0,0c0.5,0.2,1.2,0.3,1.7,0.3c0.1,0,0.2,0,0.3,0c0.1,0.2,0.2,0.3,0.4,0.4
	c0.2,0.1,0.4,0.1,0.6,0c0.2-0.1,0.3-0.2,0.4-0.4c0.1,0,0.3,0,0.4,0l1.5-0.1C10.8,24.2,11,24.1,11.2,24.2L11.2,24.2z"/>
<path class="st4" d="M30,24c0.2,0,0.4,0,0.5,0l0,0c0.1,0,0.2,0.1,0.4,0.1c0.3,0.2,0.5,0.5,0.6,0.8c0.1,0.4,0,0.7-0.2,1
	c-0.2,0.3-0.5,0.5-0.9,0.6c-0.2,0-0.4,0-0.6,0l0,0c-0.3-0.1-0.6-0.3-0.8-0.6c-0.2-0.3-0.2-0.7-0.1-1l0,0c0-0.1,0.1-0.2,0.2-0.3
	C29.3,24.3,29.6,24.1,30,24z"/>
<path class="st4" d="M15.7,24c0.2,0,0.3,0,0.5,0l0,0c0.1,0,0.3,0.1,0.4,0.2c0.3,0.2,0.5,0.5,0.5,0.9c0.1,0.3-0.1,0.7-0.3,1
	c-0.2,0.3-0.6,0.4-0.9,0.5c-0.3,0-0.7-0.1-0.9-0.3c-0.3-0.2-0.5-0.5-0.5-0.8c0-0.3,0-0.7,0.3-0.9C15,24.2,15.3,24,15.7,24z"/>
<path class="st2" d="M5.2,23.9c0.5,0.2,1.2,0.3,1.7,0.3c0.1,0,0.2,0,0.3,0c0.1,0.2,0.2,0.3,0.4,0.4c0.2,0.1,0.4,0.1,0.6,0
	c0.2-0.1,0.3-0.2,0.4-0.4c0.1,0,0.3,0,0.4,0l1.5-0.1c0.2,0,0.3,0,0.5,0l-4.8,4.7c-0.2-0.1-0.4-0.2-0.6-0.3l-2-1
	c0.1-0.4,0.2-0.8,0.3-1.1c0.2-0.6,0.5-1.3,0.8-1.9C4.9,24.4,5.1,24.1,5.2,23.9L5.2,23.9z"/>
</svg>
