<?xml version="1.0" encoding="utf-8" ?>
<svg xmlns="http://www.w3.org/2000/svg" xmlns:xlink="http://www.w3.org/1999/xlink" width="654" height="654">
	<path fill="#FDFDFD" transform="scale(0.639256 0.639256)" d="M0 -0L1024 0L1024 1024L-0 1024L0 -0Z"/>
	<path fill="#116635" transform="scale(0.639256 0.639256)" d="M829.805 880.079C829.054 881.575 828.253 882.942 827.128 884.19C817.539 894.826 803.415 902.746 790.865 909.415C744.534 934.037 692.104 950.056 639.535 952.566C622.67 953.372 605.605 953.504 588.769 952.154C491.735 944.377 395.177 900.287 323.431 834.828C308.705 821.391 294.279 807.355 281.169 792.328C229.252 732.816 193.027 661.364 174.663 584.655C167.838 556.151 162.973 526.09 161.65 496.767L160.593 444.42C161.609 408.059 165.867 371.44 173.809 335.932C189.78 264.518 220.547 196.738 260.742 135.757L286.533 98.6856C293.631 88.8678 300.992 78.5984 309.17 69.6634L309.032 70.6379C308.452 73.8823 304.401 78.8139 302.661 81.7736L289.547 104.621C274.992 130.667 262.016 157.992 250.803 185.627C239.796 212.75 232.109 241.717 226.178 270.331C204.267 376.026 212.251 490.392 253.015 590.766C263.698 617.071 277.179 642.751 292.178 666.833C315.604 704.447 344.717 739.66 377.5 769.509L400.041 788.173C459.87 836.049 531.694 870.624 606.33 887.946C647.306 897.456 689.747 901.579 731.75 899.129C746.534 898.266 761.747 896.977 776.301 894.127C787.414 891.95 798.626 889.792 809.514 886.64L821.138 882.958C823.983 881.909 826.784 880.454 829.805 880.079Z"/>
	<path fill="#3BA964" transform="scale(0.639256 0.639256)" d="M309.17 69.6634L408 117.064L500.97 165.783C561.233 200.536 618.342 241.584 668.579 289.81C687.231 307.715 704.674 326.849 721.4 346.554C766.478 399.661 804.019 460.837 828.637 526.116C853.631 592.394 866.099 663.878 862.325 734.75C860.974 760.121 857.276 784.785 851.978 809.603L843.654 841.793C840.211 853.853 836.551 865.909 831.25 877.31C830.824 878.225 830.381 879.244 829.805 880.079C826.784 880.454 823.983 881.909 821.138 882.958L809.514 886.64C798.626 889.792 787.414 891.95 776.301 894.127C761.747 896.977 746.534 898.266 731.75 899.129C689.747 901.579 647.306 897.456 606.33 887.946C531.694 870.624 459.87 836.049 400.041 788.173L377.5 769.509C344.717 739.66 315.604 704.447 292.178 666.833C277.179 642.751 263.698 617.071 253.015 590.766C212.251 490.392 204.267 376.026 226.178 270.331C232.109 241.717 239.796 212.75 250.803 185.627C262.016 157.992 274.992 130.667 289.547 104.621L302.661 81.7736C304.401 78.8139 308.452 73.8823 309.032 70.6379L309.17 69.6634Z"/>
	<path fill="#116635" transform="scale(0.639256 0.639256)" d="M418.373 214.75C424.469 216.78 430.734 220.58 436.472 223.551L476.45 245.349C585.629 308.375 678.355 399.99 734.713 513.395C741.943 527.944 747.925 542.776 753.544 558.003C763.593 585.233 771.408 613.116 775.774 641.854C778.714 661.199 779.846 680.841 780.271 700.385C780.575 714.342 780.659 728.843 779.512 742.758C779.159 742.256 778.696 741.814 778.451 741.25C778.171 740.604 778.39 738.31 778.372 737.531L778.053 726.932L775.067 693.235C767.297 629.692 750.035 566.484 721.62 509L714.45 494.652C712.769 491.32 711.406 488.167 708.902 485.354C704.38 474.942 697.468 464.811 691.546 455.112C674.541 427.257 654.486 402.125 632.76 377.891C623.224 367.254 613.547 356.544 603.208 346.675L555.045 305.067C531.382 285.869 506.589 267.612 480.272 252.17C477.981 249.541 472.991 247.358 470 245.542L431.393 222.57C427.157 220.052 422.033 217.995 418.373 214.75Z"/>
	<path fill="#338E3F" transform="scale(0.639256 0.639256)" d="M708.902 485.354C711.406 488.167 712.769 491.32 714.45 494.652L721.62 509C750.035 566.484 767.297 629.692 775.067 693.235L778.053 726.932L778.372 737.531C778.39 738.31 778.171 740.604 778.451 741.25C778.696 741.814 779.159 742.256 779.512 742.758C779.724 748.806 779.029 754.962 778.616 761C777.738 773.861 776.966 786.243 779.385 799.007C779.521 799.727 779.516 800.211 779.416 800.928L694.125 725.548C696.229 721.073 697.4 715.323 698.793 710.523L707.123 680.741C716.333 643.933 722.178 606.039 721.323 568.005C721.125 559.167 720.917 550.146 719.857 541.366C718.185 527.516 715.677 513.668 712.638 500.057L708.902 485.354Z"/>
	<path fill="#7DCA7B" transform="scale(0.639256 0.639256)" d="M480.272 252.17C506.589 267.612 531.382 285.869 555.045 305.067L603.208 346.675C613.547 356.544 623.224 367.254 632.76 377.891C654.486 402.125 674.541 427.257 691.546 455.112C697.468 464.811 704.38 474.942 708.902 485.354L712.638 500.057C715.677 513.668 718.185 527.516 719.857 541.366C720.917 550.146 721.125 559.167 721.323 568.005C722.178 606.039 716.333 643.933 707.123 680.741L698.793 710.523C697.4 715.323 696.229 721.073 694.125 725.548C691.61 723.691 689.304 721.17 687 719.039L672.039 704.817L642.479 675.127L620.872 652.02L554.147 575.568L483.378 475.002C484.529 472.764 484.935 469.807 485.525 467.356L488.772 453.479C493.291 432.455 495.931 411.293 497.615 389.868C499.794 362.154 500.384 335.459 495.591 307.946C493.384 295.281 489.959 282.66 486.091 270.403C484.359 264.916 481.282 258.594 480.39 252.992L480.272 252.17Z"/>
	<path fill="#3BA964" transform="scale(0.639256 0.639256)" d="M554.147 575.568C560.449 556.247 562.839 535.015 566.093 514.962C574.714 461.834 579.034 407.486 566.502 354.578L556.291 319.232L551.612 306.091C579.991 329.053 606.888 353.125 630.767 380.832L636.837 387.678C637.551 388.461 638.893 389.587 639.374 390.453C640.12 391.795 640.2 395.585 640.529 397.269C643.252 411.216 646.325 425.097 647.851 439.25C650.07 459.831 651.24 480.736 650.455 501.437C648.942 541.319 641.429 581.7 630.962 620.142L625.06 640.236C623.892 644.066 622.904 648.584 620.872 652.02L554.147 575.568Z"/>
	<path fill="#7DCA7B" transform="scale(0.639256 0.639256)" d="M322.024 160.969L317.803 121.235C323.219 129.285 327.357 138.207 332.584 146.413C346.999 169.046 366.799 186.378 389.549 200.231C392.077 201.042 394.327 202.591 396.641 203.87L407.586 209.687C409.45 210.683 411.441 211.994 413.459 212.598C414.72 213.169 417.125 214.622 418.373 214.75C422.033 217.995 427.157 220.052 431.393 222.57L470 245.542C472.991 247.358 477.981 249.541 480.272 252.17L480.39 252.992C481.282 258.594 484.359 264.916 486.091 270.403C489.959 282.66 493.384 295.281 495.591 307.946C500.384 335.459 499.794 362.154 497.615 389.868C495.931 411.293 493.291 432.455 488.772 453.479L485.525 467.356C484.935 469.807 484.529 472.764 483.378 475.002L554.147 575.568L620.872 652.02L642.479 675.127L672.039 704.817L687 719.039C689.304 721.17 691.61 723.691 694.125 725.548L779.416 800.928C783.029 805.349 785.369 811.36 788.188 816.372L803.456 842.103L813.821 857.487C815.22 859.358 817.138 861.064 818.343 863.028L767.533 839.335C763.522 840.162 758.177 838.957 754.09 838.564L718.857 834.207C711.438 833.078 703.81 831.469 696.352 830.827L696.008 831.086L695 830.971L693.25 830.814C691.71 830.468 690.025 830.242 688.5 829.82L687.25 829.482L683.143 828.732L681 828.355L651.43 822.141L610.276 811.441C595.384 807.226 580.783 802.826 566.438 796.967C547.676 789.48 529.417 780.913 511.863 770.903C508.781 769.146 504.512 767.236 501.942 764.816C494.954 761.482 488.394 756.291 482.036 751.878C452.714 731.53 426.172 708.272 402.384 681.699C385.659 663.015 369.629 642.368 356.491 621C342.133 597.649 330.684 573.181 320.819 547.648C294.574 479.713 283.433 406.424 287.615 333.782C290.599 281.948 300.595 230.042 314.106 180.002L317.084 169.002C317.461 167.491 317.505 165.665 318.722 164.579L319.998 161.998L320 161.25L322.024 160.969Z"/>
	<path fill="#3BA964" transform="scale(0.639256 0.639256)" d="M318.722 164.579L319.998 161.998L320 161.25L322.024 160.969C327.037 200.512 336.164 239.691 347.75 277.809L366.341 333.583C363.679 333.437 360.265 330.076 358.14 328.495C336.583 312.449 317.481 292.884 298.2 274.258C297.549 269.488 299.786 262.302 300.659 257.414L313.077 194.5L316.437 177.571C317.006 174.677 317.261 171.566 318.136 168.75C318.588 167.297 318.669 166.088 318.722 164.579Z"/>
	<path fill="#338E3F" transform="scale(0.639256 0.639256)" d="M520.474 773.332L457.222 729.625L493.058 743.989C508.823 749.554 525.203 754.46 541.649 757.521C569.789 762.758 599.667 763.448 628.228 762.347L662.918 759.81L700.972 792.692C722.013 809.669 744.423 825.302 767.533 839.335C763.522 840.162 758.177 838.957 754.09 838.564L718.857 834.207C711.438 833.078 703.81 831.469 696.352 830.827L679.543 827.34L658.029 822.335C627.23 815.244 596.142 806.751 566.8 794.933C562.541 793.565 558.336 791.518 554.222 789.731L520.474 773.332Z"/>
	<path fill="#3BA964" transform="scale(0.639256 0.639256)" d="M469.487 535.798C457.001 533.833 445.162 529.641 433.337 525.328C397.882 512.398 362.462 494.845 331.807 472.729L307.609 453.457C304.172 450.507 300.958 447.299 297.388 444.507L296.935 444.157C295.298 436.032 294.443 427.72 293.44 419.5C291.141 400.642 289.936 382.245 290.055 363.248L327.939 392.77C354.039 411.333 382.915 426.458 412.41 438.854L469.487 535.798Z"/>
	<path fill="#338E3F" transform="scale(0.639256 0.639256)" d="M598.933 696.386C579.657 695.823 560.354 693.125 541.348 690.012C488.286 681.321 435.329 666.713 387.13 642.647L375.421 636.919C374.004 636.235 372.199 635.744 370.885 634.922C367.81 633 364.279 626.605 362.312 623.575C344.615 596.32 330.997 566.39 320.496 535.695C327.956 540.802 335.17 546.231 342.954 550.861C361.923 562.145 382.46 571.361 402.883 579.676C431.416 591.293 460.461 601.054 490.468 608.156L528.789 615.652L598.933 696.386Z"/>
	<path fill="#FDFDFD" transform="scale(0.639256 0.639256)" d="M322.024 160.969L317.803 121.235C323.219 129.285 327.357 138.207 332.584 146.413C346.999 169.046 366.799 186.378 389.549 200.231C392.077 201.042 394.327 202.591 396.641 203.87L407.586 209.687C409.45 210.683 411.441 211.994 413.459 212.598C414.72 213.169 417.125 214.622 418.373 214.75C422.033 217.995 427.157 220.052 431.393 222.57L470 245.542C472.991 247.358 477.981 249.541 480.272 252.17L480.39 252.992C481.282 258.594 484.359 264.916 486.091 270.403C489.959 282.66 493.384 295.281 495.591 307.946C500.384 335.459 499.794 362.154 497.615 389.868C495.931 411.293 493.291 432.455 488.772 453.479L485.525 467.356C484.935 469.807 484.529 472.764 483.378 475.002L554.147 575.568L620.872 652.02L642.479 675.127L672.039 704.817L687 719.039C689.304 721.17 691.61 723.691 694.125 725.548L779.416 800.928C783.029 805.349 785.369 811.36 788.188 816.372L803.456 842.103L813.821 857.487C815.22 859.358 817.138 861.064 818.343 863.028L767.533 839.335C744.423 825.302 722.013 809.669 700.972 792.692L662.918 759.81L598.933 696.386L528.789 615.652L469.487 535.798L412.41 438.854L366.341 333.583L347.75 277.809C336.164 239.691 327.037 200.512 322.024 160.969Z"/>
	<path fill="#7DCA7B" transform="scale(0.639256 0.639256)" d="M413.123 349.204C409.009 343.469 406.22 335.432 403.042 329.056C383.627 290.099 367.151 249.443 351.146 208.988L342.059 186.102L333.688 161.776C330.717 153.44 327.159 144.869 324.933 136.324C331.757 147.781 338.517 158.485 347.457 168.498C357.208 179.419 369.66 188.942 381.999 196.777C383.764 197.898 386.791 200.321 388.826 200.283L389.549 200.231C392.077 201.042 394.327 202.591 396.641 203.87L407.586 209.687C409.45 210.683 411.441 211.994 413.459 212.598C415.468 223.654 416.218 235.122 416.783 246.344C417.994 270.414 417.156 294.712 415.696 318.75C415.089 328.742 414.923 339.364 413.123 349.204Z"/>
	<path fill="#3BA964" transform="scale(0.639256 0.639256)" d="M413.459 212.598C414.72 213.169 417.125 214.622 418.373 214.75C422.033 217.995 427.157 220.052 431.393 222.57L470 245.542C472.991 247.358 477.981 249.541 480.272 252.17L480.39 252.992C481.282 258.594 484.359 264.916 486.091 270.403C489.959 282.66 493.384 295.281 495.591 307.946C500.384 335.459 499.794 362.154 497.615 389.868C495.931 411.293 493.291 432.455 488.772 453.479L485.525 467.356C484.935 469.807 484.529 472.764 483.378 475.002L413.123 349.204C414.923 339.364 415.089 328.742 415.696 318.75C417.156 294.712 417.994 270.414 416.783 246.344C416.218 235.122 415.468 223.654 413.459 212.598Z"/>
</svg>
