<?xml version="1.0" encoding="utf-8"?>
<!-- Generator: Adobe Illustrator 26.1.0, SVG Export Plug-In . SVG Version: 6.00 Build 0)  -->
<svg version="1.1" id="Layer_1" xmlns="http://www.w3.org/2000/svg" xmlns:xlink="http://www.w3.org/1999/xlink" x="0px" y="0px"
	 viewBox="0 0 40 40" style="enable-background:new 0 0 40 40;" xml:space="preserve">
<style type="text/css">
	.st0{fill:#10153B;}
	.st1{fill:#837C87;}
	.st2{fill:#B7AAAC;}
	.st3{fill:#FEC302;}
	.st4{fill:#FB7D5F;}
	.st5{fill:#E59002;}
	.st6{fill:#BC5701;}
	.st7{fill:#D46F04;}
	.st8{fill:#770B16;}
	.st9{fill:#931017;}
	.st10{fill:#C71418;}
	.st11{fill:#FEFEFD;}
	.st12{fill:#FAE38A;}
	.st13{fill:url(#SVGID_1_);}
	.st14{fill:#FA3D3A;}
</style>
<path class="st0" d="M17.6,32.2c-0.1-0.1-0.1-0.3-0.2-0.4c0,0-0.1-0.1-0.2-0.1l-0.6-0.3l-1.8-0.9l-2.1-1.1
	c-4.9-2.9-9.9-7.5-10.3-13.5c-0.1-1.3,0.1-2.5,0.4-3.7C3,11.5,3.2,11,3.4,10.5c0.5-1,1.1-2,1.8-2.8C6.7,6,8.6,4.8,10.6,3.8l2.1-1.1
	c1-0.5,1.9-1.1,3-1.4c1.3-0.4,2.8-0.3,4.1,0.1c1.1,0.3,2.2,0.8,3.1,1.6l0.5,0.5c0.1,0.1,0.2,0.2,0.3,0.3c0,0,0.1,0,0.1,0
	c0.2-0.1,0.3-0.2,0.5-0.2C25,3,26,2.9,27,2.9c0.5,0,1,0,1.4,0.1c2.2,0.5,4.1,1.8,5.2,3.8c1.6,2.9,1.3,6.5,0.4,9.6
	c-0.4,1.4-1,2.8-1.7,4l1.2,2.1l1.3,2.1l0.9,1.4l0.5,0.7c0.2,0.3,0.3,0.6,0.4,0.9c0.2,0.6,0.2,1.3,0.1,1.9c-0.4,1.4-1.7,2.4-2.8,3.3
	c-1,0.9-2.1,1.6-3.2,2.4l-2.9,1.8l-1.7,1c-0.7,0.3-1.3,0.7-2.1,0.9c-0.4,0.1-0.9,0-1.3-0.1c-0.7-0.2-1.3-0.6-1.8-1.1
	c-0.5-0.6-0.9-1.4-1.3-2L17.6,32.2z"/>
<path class="st1" d="M18.6,32.2l-0.2-0.3l2.1-0.6c0.1,0.1,0.1,0.2,0.2,0.4C20.1,31.9,19.3,32.1,18.6,32.2z"/>
<path class="st1" d="M20.3,35.2c0.7-0.1,1.4-0.3,2.1-0.5c0.1,0.1,0.2,0.3,0.2,0.4l-2,0.5L20.3,35.2z"/>
<path class="st2" d="M22.1,30.6l0.8-0.4c0.1,0.1,0.1,0.3,0.2,0.4l0,0L22.4,31l0,0l-1.6,0.7l0,0c-0.1-0.1-0.1-0.2-0.2-0.4L22.1,30.6z
	"/>
<path class="st2" d="M24.9,33.6c0.1,0.1,0.1,0.3,0.3,0.4l-2.5,1.1c0-0.1-0.1-0.3-0.2-0.4l0,0l1.7-0.7L24.9,33.6z"/>
<path class="st3" d="M25.6,7.2c0.6-0.5,1.3-0.9,2-1.2c0.5-0.2,1-0.3,1.5-0.4c-0.1,0.1-0.3,0.1-0.4,0.2l-0.6,0.3
	c-0.1,0-0.2,0.1-0.3,0.1c-0.1,0.1-0.4,0.2-0.5,0.4c-0.6,0.4-1.1,1-1.5,1.6C25.7,7.9,25.7,7.5,25.6,7.2z"/>
<path class="st4" d="M31.1,22.4l0.7-1l0.8,1.3c-0.3,0.4-0.6,0.8-1,1.1c-0.1-0.2-0.1-0.4-0.2-0.6L31.1,22.4z"/>
<path class="st5" d="M25.6,7.2c0.1,0.3,0.1,0.7,0.2,1c-0.5,0.9-0.9,1.9-1,2.9l0,0c-0.1-0.1-0.1-0.2-0.1-0.3
	c-0.1-0.4-0.2-0.8-0.3-1.2c0-0.2,0-0.4-0.1-0.5C24.5,8.3,25,7.8,25.6,7.2z"/>
<path class="st4" d="M34.4,28c0.2-0.2,0.4-0.4,0.5-0.7c0.1-0.1,0.1-0.3,0.2-0.4c0.5,0.6,0.8,1.3,0.7,2.1l0,0.1
	c-0.2,0.8-0.8,1.5-1.4,2l-1.3,1.1c0.1-0.1,0.3-0.3,0.4-0.4c0.5-0.5,1-1.1,1.2-1.7C35,29.5,34.7,28.7,34.4,28z"/>
<path class="st5" d="M29.5,5.6c-0.2,0-0.4,0-0.6-0.1c-1.2-0.1-2.3,0.2-3.4,0.8c-0.4-0.7-0.9-1.3-1.4-1.9l0.4-0.2
	c0.4-0.1,0.7-0.2,1.1-0.3c0.2,0.3,0.4,0.6,0.7,0.8l0,0c0.5,0.4,1.1,0.3,1.7,0.4c0.6,0,1.3,0.1,1.8,0.4C29.8,5.6,29.7,5.6,29.5,5.6z"
	/>
<path class="st6" d="M20.7,31.7L20.7,31.7l1.2,2.2l0.3,0.5c0,0.1,0.1,0.2,0.2,0.3l0,0c-0.7,0.2-1.4,0.4-2.1,0.5l-1.7-3
	C19.3,32.1,20.1,31.9,20.7,31.7z"/>
<path class="st7" d="M22.4,31l0.8-0.4l1.7,2.9L24.1,34l-1.7,0.7c-0.1-0.1-0.1-0.2-0.2-0.3L22,33.9l-1.2-2.2L22.4,31L22.4,31z"/>
<path class="st5" d="M22.4,31l0.8-0.4l1.7,2.9L24.1,34l-1.3-2.2C22.6,31.5,22.5,31.3,22.4,31z"/>
<path class="st8" d="M24.8,17.7c1,2,2.2,3.8,3.6,5.4c0.2,0.3,0.5,0.7,0.8,0.8c0.4,0.1,0.6-0.1,0.9-0.2c-0.2,0.4-0.5,0.8-1,1
	c-0.3,0.1-0.6,0.1-1,0c-0.1,0-0.2-0.1-0.3-0.1c-0.1,0-0.3,0.1-0.4,0.1c0-0.2,0.2-0.4,0.3-0.5c0-0.1,0.1-0.1,0.1-0.2l0-0.1
	c-1.2-0.8-2-1.9-2.8-3.1L23.9,19c0-0.2-0.1-0.3-0.1-0.5c0.1-0.1,0.2-0.1,0.3-0.2C24.3,18.1,24.5,17.9,24.8,17.7z"/>
<path class="st7" d="M24.2,9.1c0.1,0.1,0.1,0.3,0.1,0.5c0.1,0.4,0.2,0.8,0.3,1.2c0,0.1,0.1,0.2,0.1,0.3l0,0
	c-0.1,1.2,0.2,2.4,0.5,3.5c0.6,1.8,1.5,3.5,2.6,5.2c0.4,0.6,0.8,1.2,1.2,1.8c0.2,0.2,0.3,0.4,0.5,0.5l0.6-0.7c0,0.2,0,0.5,0.1,0.7
	c-0.2,0.4-0.5,0.7-0.8,1.1l-1.1-1.3c-1-1.3-1.9-2.6-2.6-4c-0.5-1-1-1.9-1.4-2.9l-0.5-1.6c-0.1-0.5-0.3-1.1-0.3-1.7
	C23.6,10.6,23.8,9.8,24.2,9.1z"/>
<path class="st8" d="M27.7,35.9l1.3-0.7l0.9-0.5c0.1-0.1,0.3-0.2,0.4-0.2c0,0,0.1,0,0.1,0c-0.3,0.3-0.7,0.5-1,0.7l-2.8,1.7
	c-0.7,0.4-1.5,0.9-2.3,1.2C24.2,38,24,38,23.8,38.1l0,0c-0.7,0.1-1.3-0.1-1.9-0.6c-0.5-0.4-0.8-1-1.1-1.5c0.7-0.1,1.3-0.3,2-0.5
	l2.4-1l0.5,0.5c0.4,0.3,0.9,0.6,1.3,0.8C27.3,35.8,27.5,35.8,27.7,35.9z"/>
<path class="st9" d="M25.2,34.5l0.5,0.5c0.4,0.3,0.9,0.6,1.3,0.8c0.2,0.1,0.4,0.1,0.6,0.2l0,0c-0.2,0.2-0.5,0.3-0.7,0.4
	c-0.7,0.4-1.5,0.8-2.3,0.7l0,0c-0.3,0-0.6-0.2-0.9-0.4c-0.4-0.3-0.7-0.7-0.9-1.2L25.2,34.5z"/>
<path class="st10" d="M31.1,22.4l0.2,0.8c0.1,0.2,0.1,0.4,0.2,0.6c-0.6,0.6-1.2,1.1-1.8,1.6c-0.9,0.7-1.9,1.4-2.9,2l-2.3,1.3l-2,1
	c-0.5-0.5-1-0.9-1.7-1.2c0.2,0,0.3,0,0.5-0.1c0.8-0.1,1.5-0.4,2.2-0.7c0.7-0.3,1.3-0.7,1.9-1.1c0.2-0.1,0.4-0.2,0.5-0.4
	c0.1,0,0.2-0.1,0.3-0.2c0.5-0.3,0.8-0.7,1.2-1.2c0.1,0,0.3-0.1,0.4-0.1c0.1,0,0.2,0,0.3,0.1c0.3,0.1,0.7,0.1,1,0
	c0.4-0.2,0.8-0.6,1-1L31.1,22.4z"/>
<path class="st3" d="M25.7,3.9c1.9-0.3,3.8,0.1,5.4,1.3c1.5,1.2,2.5,3,2.7,4.9c0.2,1.6,0.1,3.2-0.3,4.8c-0.2,0.7-0.3,1.4-0.6,2.1
	c-0.2,0.7-0.5,1.3-0.8,2c-0.5,1-1,2.1-1.7,3c-0.1-0.2-0.1-0.5-0.1-0.7c0.1-0.2,0.2-0.4,0.3-0.6l0.6-1.1c0.7-1.5,1.4-3,1.7-4.7
	c0.3-1.5,0.4-3,0.2-4.5C33,9.9,32.9,9.4,32.7,9l-0.1-0.3c-0.5-1.3-1.4-2.6-2.7-3.1c-0.5-0.3-1.2-0.3-1.8-0.4c-0.6,0-1.2,0-1.7-0.4
	l0,0C26.1,4.5,25.8,4.2,25.7,3.9z"/>
<path class="st7" d="M3.4,13.7L3.4,13.7c0.1,0.1,0,0.2,0,0.3l0,0.4l0.2,1c0.2,0.9,0.5,1.8,0.9,2.7c1.6,3.4,4.2,6.1,7.2,8.4
	c1.2,0.9,2.4,1.7,3.7,2.5l2.3,1.3c0.5,0.2,1,0.4,1.4,0.7l-1,0.2c-0.9-0.4-1.8-0.8-2.7-1.3c-1.9-1-3.7-2-5.4-3.3
	c-1.6-1.2-3-2.6-4.2-4.2C5.6,22,5.3,21.6,5,21.1c-1-1.7-1.7-3.6-1.7-5.5C3.3,15,3.4,14.3,3.4,13.7z"/>
<path class="st10" d="M34.4,28c0.3,0.7,0.6,1.5,0.3,2.2c-0.3,0.7-0.7,1.2-1.2,1.7c-0.1,0.1-0.3,0.3-0.4,0.4l-2.7,2c0,0-0.1,0-0.1,0
	c-0.1,0-0.3,0.1-0.4,0.2L29,35.1l-1.3,0.7c-0.2-0.1-0.4-0.1-0.6-0.2c-0.5-0.2-1-0.5-1.3-0.8l-0.5-0.5c1.5-0.7,3-1.5,4.4-2.4l1.6-1.1
	c0.6-0.5,1.2-0.9,1.8-1.5C33.5,29,34,28.5,34.4,28z"/>
<path class="st11" d="M23,30.2c2.9-1.4,5.7-3.1,8.1-5.3c0.6-0.6,1.3-1.2,1.7-1.9l2.4,3.8c-0.6,0.8-1.4,1.4-2.1,2.1
	c-1.4,1.2-2.9,2.3-4.4,3.2c-1.1,0.7-2.2,1.3-3.4,1.9c-0.1-0.1-0.2-0.3-0.3-0.4l-1.7-2.9l0,0C23.1,30.6,23,30.3,23,30.2z"/>
<path class="st3" d="M30.9,25.6c0.5-0.4,1-0.9,1.4-1.4l1.8,2.9l-1.4,1.4c-0.2-0.2-0.3-0.4-0.4-0.6l-1-1.6
	C31.2,26.1,31.1,25.8,30.9,25.6z"/>
<path class="st12" d="M28.3,27.7l2.6-2.1c0.2,0.2,0.3,0.4,0.4,0.6l1,1.6c0.1,0.2,0.3,0.4,0.4,0.6c-0.5,0.5-1.1,0.9-1.7,1.4
	c-0.3,0.2-0.6,0.5-1,0.7L28.3,27.7z"/>
<path class="st3" d="M28.3,27.7l1.8,2.8l-5.2,3l-1.7-2.9l0,0c0.5-0.2,1.1-0.5,1.6-0.8C26,29.2,27.2,28.5,28.3,27.7z"/>
<path class="st8" d="M3.4,13.7c0-0.5,0.2-1.1,0.3-1.6C4.2,10.7,4.9,9.4,6,8.3l0,0c0,0.3-0.2,0.5-0.2,0.8c-0.1,0.5-0.2,1.1-0.3,1.6
	c0,0.4,0,0.7,0,1.1c0,2.8,1.1,5.6,2.9,7.8c0.8,1,1.6,1.9,2.6,2.7c1.5,1.3,3.2,2.4,5,3.3c1.3,0.6,2.7,1.1,4.2,1.3
	c1.1,0.1,2.2-0.1,3.2-0.5l1.1-0.4l0.3,0.7l0.8-0.3c0.2-0.1,0.3-0.2,0.5-0.2c-0.1,0.2-0.3,0.3-0.5,0.4c-0.6,0.4-1.3,0.8-1.9,1.1
	c-0.7,0.3-1.4,0.6-2.2,0.7c-0.2,0-0.3,0-0.5,0.1c0.7,0.3,1.2,0.7,1.7,1.2c-0.2,0.1-0.4,0.2-0.6,0.3l-1.5,0.5
	c-0.4,0.1-0.8,0.3-1.3,0.4c-0.4-0.3-1-0.5-1.4-0.7l-2.3-1.3c-1.3-0.8-2.5-1.6-3.7-2.5c-3-2.3-5.6-4.9-7.2-8.4
	c-0.4-0.8-0.7-1.8-0.9-2.7l-0.2-1l0-0.4C3.5,13.9,3.5,13.8,3.4,13.7L3.4,13.7z"/>
<linearGradient id="SVGID_1_" gradientUnits="userSpaceOnUse" x1="6.7575" y1="47.9768" x2="1.0992" y2="47.1339" gradientTransform="matrix(1.4745 0 0 -1.4745 23.4863 83.9395)">
	<stop  offset="0" style="stop-color:#C00E14"/>
	<stop  offset="1" style="stop-color:#961516"/>
</linearGradient>
<path class="st13" d="M29.5,5.6c0.1,0,0.2,0,0.4,0c1.3,0.6,2.2,1.8,2.7,3.1L32.7,9c0.2,0.5,0.3,0.9,0.3,1.4c0.2,1.5,0.1,3.1-0.2,4.5
	c-0.4,1.6-1,3.2-1.7,4.7l-0.6,1.1c-0.1,0.2-0.3,0.4-0.3,0.6L29.6,22c-0.2-0.2-0.4-0.3-0.5-0.5c-0.5-0.6-0.8-1.2-1.2-1.8
	c-1-1.6-1.9-3.3-2.6-5.2c-0.4-1.1-0.7-2.3-0.5-3.5c0.1-1,0.5-2,1-2.9c0.4-0.6,0.9-1.2,1.5-1.6c0.1-0.1,0.4-0.3,0.5-0.4
	c0.1-0.1,0.2-0.1,0.3-0.1l0.6-0.3c0.1-0.1,0.3-0.1,0.4-0.2C29.2,5.6,29.4,5.6,29.5,5.6z"/>
<path class="st10" d="M27.3,6.6c0.1-0.1,0.4-0.3,0.5-0.4l0,0c-0.1,0.2-0.2,0.4-0.3,0.5c-0.1,0.2-0.2,0.4-0.3,0.6
	c-0.2,0.4-0.4,0.9-0.5,1.4c-0.2,1.3,0.1,2.6,0.6,3.7c0.4,1,1,2,1.8,2.7c0.2,0.2,0.5,0.5,0.8,0.6c0.2,0.1,0.5,0.1,0.7,0
	c0.7-0.3,1.2-1,1.5-1.7c0.2-0.4,0.3-0.9,0.3-1.4c0.1-0.8,0.3-1.6,0.3-2.5l0-0.8c0-0.2,0-0.4,0-0.6c0.2,0.5,0.3,0.9,0.3,1.4
	C33,10.5,33,10.8,33,10.9c0,0.3,0,0.6,0,0.9c-0.1,1.2-0.3,2.4-0.7,3.6c-0.2,0.6-0.5,1.3-0.8,1.8c-0.2,0.4-0.6,0.9-1,1
	c-0.4,0.1-0.7-0.1-1-0.3c-0.4-0.3-0.8-0.6-1.2-1c-1.2-1.3-1.9-2.8-2.3-4.4c-0.3-1.6-0.3-3.3,0.5-4.7c0.1-0.2,0.3-0.5,0.4-0.7
	C27,6.9,27.2,6.8,27.3,6.6L27.3,6.6z"/>
<path class="st14" d="M29.5,5.6c0.1,0,0.2,0,0.4,0c1.3,0.6,2.2,1.8,2.7,3.1L32.7,9c-0.1,0.2,0,0.4,0,0.6l0,0.8
	c0,0.8-0.1,1.7-0.3,2.5c-0.1,0.5-0.2,0.9-0.3,1.4c-0.3,0.7-0.8,1.4-1.5,1.7c-0.2,0.1-0.5,0.1-0.7,0c-0.3-0.1-0.6-0.4-0.8-0.6
	c-0.8-0.8-1.3-1.8-1.8-2.7c-0.5-1.2-0.9-2.5-0.6-3.7c0.1-0.5,0.3-0.9,0.5-1.4c0.1-0.2,0.2-0.4,0.3-0.6c0.1-0.2,0.3-0.4,0.3-0.5l0,0
	c0.1-0.1,0.2-0.1,0.3-0.1l0.6-0.3c0.1-0.1,0.3-0.1,0.4-0.2C29.2,5.6,29.4,5.6,29.5,5.6z"/>
<path class="st11" d="M29.5,7l0.2,0c0.2,0,0.5,0.3,0.6,0.5c0.3,0.4,0.5,0.9,0.6,1.4c0.2,0.5,0.3,1.1,0.4,1.6c0,0.2,0.1,0.5,0,0.7
	c0,0.2-0.1,0.2-0.2,0.3c-0.2-0.1-0.4-0.3-0.5-0.5c-0.2-0.2-0.3-0.5-0.5-0.8c-0.3-0.6-0.6-1.2-0.8-1.9c-0.1-0.3-0.1-0.6-0.1-0.9
	C29.3,7.2,29.4,7.1,29.5,7z"/>
<path class="st10" d="M6,8.3C6.7,7.4,7.7,6.7,8.6,6c0.4-0.2,0.7-0.5,1.1-0.7l0,0C9.6,5.5,9.5,5.7,9.3,5.8C9.2,6,9,6.2,8.9,6.4
	C8,8.1,8,10.2,8.5,12c0.7,2.6,2.5,4.9,4.8,6.2c2.3,1.4,4.9,1.8,7.5,1.3c0.2,0,0.4-0.1,0.7-0.1l0,0c0.3,0.4,0.5,0.9,0.7,1.4
	c0.8,1.7,1.5,3.5,2.2,5.2l-1.1,0.4c-1,0.3-2.1,0.6-3.2,0.5c-1.5-0.2-2.9-0.7-4.2-1.3c-1.8-0.9-3.5-2-5-3.3c-0.9-0.8-1.8-1.7-2.6-2.7
	c-1.8-2.2-2.8-5-2.9-7.8c0-0.4,0-0.7,0-1.1c0-0.5,0.1-1.1,0.3-1.6C5.8,8.8,5.9,8.5,6,8.3L6,8.3z"/>
<path class="st14" d="M9.7,5.3c0.6-0.5,1.4-0.8,2-1.2L13.9,3c0.7-0.4,1.4-0.8,2.1-0.9c0.8-0.2,1.7-0.2,2.6,0
	c2.3,0.3,4.2,1.8,5.5,3.7c0.2,0.3,0.5,0.7,0.7,1.1c0,0.1-0.1,0.1-0.1,0.1l-0.6,0.7c-1,1.4-1.6,3-1.3,4.7c0.1,0.5,0.2,1,0.4,1.6
	c0.4,1.3,0.9,2.6,1.6,3.8c-0.2,0.2-0.5,0.4-0.7,0.6c-0.1,0.1-0.2,0.2-0.3,0.2c0,0.2,0.1,0.3,0.1,0.5l1.2,1.8
	c0.8,1.2,1.6,2.3,2.8,3.1l0,0.1c0,0.1-0.1,0.1-0.1,0.2c-0.1,0.1-0.3,0.3-0.3,0.5c-0.4,0.5-0.7,0.9-1.2,1.2c-0.1,0.1-0.2,0.1-0.3,0.2
	c-0.2,0.1-0.3,0.1-0.5,0.2l-0.8,0.3L24.4,26c-0.6-1.8-1.3-3.5-2.2-5.2c-0.2-0.4-0.4-0.9-0.7-1.4l0,0c-0.2,0.1-0.4,0.1-0.7,0.1
	c-2.6,0.5-5.3,0.1-7.5-1.3C11,16.9,9.1,14.6,8.5,12C8,10.2,8,8.1,8.9,6.4C9,6.2,9.2,6,9.3,5.8C9.5,5.7,9.6,5.5,9.7,5.3L9.7,5.3z"/>
<path class="st11" d="M17.7,2.6c1.2,0,2.3,0.3,3.3,1c0.5,0.4,1,0.8,1.5,1.3C22.7,5.2,23,5.5,23,5.8c0,0.2,0,0.4-0.1,0.6
	c-0.1,0.1-0.3,0.2-0.5,0.2c-0.3,0-0.6-0.2-0.8-0.4c-0.3-0.3-0.6-0.7-0.9-1c-1.1-1-2.3-1.7-3.7-2.2c-0.4-0.1-0.8-0.2-1.2-0.3
	c0,0,0.2,0,0.3-0.1C16.6,2.7,17.2,2.6,17.7,2.6z"/>
<path class="st10" d="M23.5,18.5c-0.2-0.2-0.3-0.4-0.4-0.6c-0.8-1.1-1.4-2.4-1.9-3.7c-0.5-1.5-0.6-3,0.1-4.5
	c0.5-1.1,1.3-1.8,2.3-2.4c0.3-0.2,0.7-0.4,1-0.5l-0.6,0.7c0,0-0.1,0-0.1,0c-0.1,0-0.2,0.1-0.2,0.2c-0.2,0.2-0.4,0.4-0.5,0.5
	c-0.2,0.3-0.5,0.6-0.7,0.9c-0.5,0.9-0.8,2-0.7,3c0.1,1.5,0.6,2.9,1.2,4.2l0.5,1.2c0.1,0.2,0.2,0.4,0.2,0.6l0,0c0,0.1,0,0,0,0.1l0,0
	l0,0l0,0l0,0l0,0l0,0L23.5,18.5z"/>
<path class="st9" d="M23.7,18.3c0-0.2-0.2-0.4-0.2-0.6L23,16.5c-0.6-1.3-1-2.8-1.2-4.2c-0.1-1.1,0.2-2.1,0.7-3
	c0.2-0.3,0.4-0.6,0.7-0.9c0.2-0.2,0.3-0.4,0.5-0.5c0.1-0.1,0.2-0.2,0.2-0.2c0,0,0.1,0,0.1,0c-1,1.4-1.6,3-1.3,4.7
	c0.1,0.5,0.2,1,0.4,1.6c0.4,1.3,0.9,2.6,1.6,3.8c-0.2,0.2-0.5,0.4-0.7,0.6c-0.1,0.1-0.2,0.2-0.3,0.2C23.8,18.5,23.7,18.4,23.7,18.3z
	"/>
<path class="st0" d="M21.6,19.4l-2-3.6l-1.2-2c-0.1-0.2-0.3-0.5-0.3-0.7l4.3,6.1c0.1,0,0.2-0.1,0.3-0.1c0.3-0.1,0.6-0.2,0.8-0.4
	l-0.1-0.1l0.1,0.1l0,0l0,0l0,0l0,0l0,0l0,0c0-0.1,0,0,0-0.1l0,0c0,0.1,0,0.1,0,0.2c0,0.2,0.1,0.3,0.1,0.5l1.2,1.8
	c0.8,1.2,1.6,2.3,2.8,3.1l0,0.1c0,0.1-0.1,0.1-0.1,0.2c-0.1,0.1-0.3,0.3-0.3,0.5c-0.4,0.5-0.7,0.9-1.2,1.2c-0.1,0.1-0.2,0.1-0.3,0.2
	c-0.2,0.1-0.3,0.1-0.5,0.2l-0.8,0.3L24.4,26c-0.6-1.8-1.3-3.5-2.2-5.2C22,20.3,21.8,19.8,21.6,19.4z"/>
<path class="st10" d="M23.7,18.3c0,0.1,0,0.1,0,0.2c0,0.2,0.1,0.3,0.1,0.5l1.2,1.8c0.8,1.2,1.6,2.3,2.8,3.1l0,0.1
	c-0.6,0.4-1.2,0.9-1.9,1.2l-3.5-6.1c0.1,0,0.2-0.1,0.3-0.1c0.3-0.1,0.6-0.2,0.8-0.4l-0.1-0.1l0.1,0.1l0,0l0,0l0,0l0,0l0,0l0,0
	C23.7,18.4,23.7,18.4,23.7,18.3L23.7,18.3z"/>
<path class="st9" d="M23.8,18.5c0,0.2,0.1,0.3,0.1,0.5c-0.1-0.1-0.2-0.3-0.3-0.4L23.8,18.5z"/>
</svg>
