<svg xmlns="http://www.w3.org/2000/svg" xml:space="preserve" id="Layer_1" x="0" y="0" version="1.1" viewBox="0 0 30 30"><style>.st1{fill:#8d99ae}.st3{fill:#edf2f4}</style><path d="M11.3 8.1c-.2-1-.2-1.9-.1-2.8l.1-.6c0-.3.1-.5.2-.7 0-.1.1-.2.1-.3 0 .1-.1.3-.1.4-.1.4-.1.9-.1 1.3 0 .6.2 1.3.4 1.9l.2.4zM6.4 8.3c0 .2-.1.4-.1.6v1.3c.1.6.3 1.2.6 1.7l-.6.9c0-.1-.1-.2-.1-.3l-.1-.5c0-.9-.1-1.8.1-2.7 0-.3.1-.7.2-1M18.8 3.9c.2.1.3.4.4.5.8 1.2 1.2 2.7 1.2 4.1v.6l-.9-.6c.1-.1.1-.4.1-.5.1-1 0-2.1-.4-3.1-.1-.2-.2-.4-.3-.7 0 0-.1-.2-.1-.3" class="st1"/><path d="M24 9.2c0 .1.1.1.1.2.1.3.2.5.3.8s.2.5.2.8c.1.4.1.8.1 1.2 0 .6-.1 1.1-.2 1.7l-.1.5-.1.3v.1-.2c0-.2-.1-.3-.1-.5-.1-.4-.3-.9-.5-1.3.4-.6.6-1.3.7-1.9v-.6c-.2-.4-.3-.8-.4-1.1" style="fill:#6f7171"/><path d="m22.8 11.7.1-.1c.2-.3.3-.6.4-.9.1-.2.1-.4.2-.7.1-.7.1-1.4-.1-2.1.1.1.1.2.2.3l.4 1 .3 1.2v.6c-.1.7-.3 1.4-.7 1.9zM18 7.8l.2-.6c.4-1 .5-2.2.2-3.2l-.3-.9c.2.2.4.4.5.7l.2.2c0 .1.1.2.2.3.1.2.2.4.3.7.3 1 .5 2.1.4 3.1 0 .2 0 .4-.1.5-.6-.4-1.1-.7-1.6-.8M5.7 14.9c0-.1-.1-.2-.1-.3-.1-.3-.2-.6-.2-.9-.1-.5-.1-1-.1-1.4 0-1.6.5-3.1 1.4-4.4l-.3.4c-.1.3-.2.7-.2 1-.2.9-.1 1.8.1 2.6l.1.5c0 .1 0 .2.1.3-.2.4-.4.7-.5 1.1s-.2.7-.3 1.1M9.6 9.1v-.6000000000000001c0-.4 0-.7.1-1.1.3-1.6 1.1-3.1 2.2-4.3l-.3.6c-.1.1-.1.2-.1.3-.1.2-.2.5-.2.7l-.1.6c-.2.9-.1 1.8 0 2.7v.1c-.5.3-1 .6-1.6 1M19.5 18.7c-.2-.3-.3-.6-.3-1-.1-1.2.2-2.6.9-3.5.4-.4.9-.9 1.5-.9.4 0 .7.1 1 .3.5.4.8 1.2.8 1.8-.2-.1-.4-.2-.7-.3-.6-.1-1.4.2-1.9.6-.7.5-1.3 1.4-1.4 2.2v.5c.1.1.1.2.1.3M16.3 15c-.4-.4-.6-1-.7-1.6-.2-1.2 0-2.5.7-3.5.3-.5.7-.8 1.3-1 .3-.1.6 0 .9.2.6.3 1 1.1 1.2 1.7-.4-.2-.8-.3-1.3-.2-.8.2-1.4.9-1.8 1.6s-.6 1.5-.4 2.3c0 .1 0 .1.1.2-.1.2 0 .2 0 .3M11.6 15.2c-.3-.2-.6-.6-.8-.9-.6-1-.8-2.4-.5-3.5.2-.6.6-1.3 1.1-1.6.4-.2.8-.2 1.2-.1.6.2 1.1.7 1.4 1.3h-.2c-.1 0-.3 0-.4.1-.8.3-1.5 1-1.9 1.7s-.6 1.5-.3 2.3c0 .1.1.3.2.4 0 .1.1.1.1.2.1 0 .1 0 .1.1M8.7 19.3c-.5-.1-.9-.5-1.2-.9-.5-.7-.9-1.5-1-2.4v-.8c.1-.6.3-1.3.8-1.7.3-.2.7-.4 1.1-.3.6.1 1.2.5 1.5 1-.2.1-.3.1-.5.2-.6.3-1 .9-1.2 1.4-.3.8-.4 1.8-.1 2.6.1.2.2.5.4.7.1.1.2.1.2.2" class="st3"/><path d="M10 14.3c.7.9 1 2 .9 3-.1.6-.3 1.3-.9 1.7-.3.2-.6.3-1 .3-.1 0-.2 0-.2-.1-.1-.1-.1-.1-.2-.1-.2-.2-.3-.4-.4-.7-.3-.8-.2-1.8.1-2.6.2-.6.7-1.1 1.2-1.4.1 0 .3-.1.5-.1M19.5 18.7V18c.1-.9.7-1.7 1.4-2.2.5-.4 1.2-.7 1.9-.6.2 0 .5.1.7.3.1 1.1-.3 2.3-1.1 3.1-.4.5-1 .9-1.6.9h-.4c-.4-.2-.7-.5-.9-.8M16.3 15c0-.1-.1-.2-.1-.2 0-.1 0-.1-.1-.2-.2-.8 0-1.6.4-2.3s1-1.3 1.8-1.6c.5-.1.9-.1 1.3.2.3 1.2.2 2.4-.5 3.4-.3.5-.8 1-1.4 1.2-.2 0-.4.1-.6 0-.3-.1-.7-.3-.8-.5M14.1 10.3c.6 1 .7 2.2.4 3.3-.2.6-.5 1.3-1.1 1.7-.4.2-.8.3-1.2.2-.2-.1-.5-.2-.6-.3l-.1-.1c-.1-.1-.1-.1-.1-.2-.1-.1-.1-.3-.2-.4-.2-.8 0-1.6.3-2.3.4-.7 1.1-1.4 1.9-1.7.1 0 .3-.1.4-.1.1-.1.2-.1.3-.1" class="st1"/><path d="m9.9 24.3-.5-.5c-.1-.1-.2-.2-.3-.4v-.3c.1-.6.2-1.2.4-1.8.5-1.9 1.7-4 3.5-5 .9-.5 2-.7 3-.4 1.2.3 2.1 1.1 2.9 2.1.1.2.3.4.4.5-.1 0-.2-.1-.2-.1l-.6-.3c-.4-.1-.7-.2-1.1-.2-.7 0-1.5.1-2.2.4-2.1.8-3.8 2.6-4.7 4.7z" class="st3"/><path d="m9.9 24.3.5-1.4c.9-2 2.6-3.9 4.7-4.7.7-.3 1.4-.4 2.2-.4.4 0 .8 0 1.1.2l.6.3c.1 0 .1.1.2.1.1.1.2.3.3.4.7 1.1 1.1 2.4 1.2 3.7v.7l-.1.2c-.4.5-.8.9-1.3 1.3-1.1.8-2.3 1.2-3.7 1.4-.6.1-1.3.1-1.9 0-1-.2-2-.5-2.9-1-.2-.2-.6-.5-.9-.8" class="st1"/></svg>