<svg xmlns="http://www.w3.org/2000/svg" xml:space="preserve" id="Layer_1" x="0" y="0" version="1.1" viewBox="0 0 40 40"><style>.st1{fill:#1198d9}</style><path d="M5.6 24.8c.1.9.2 1.8.3 2.6.3 1.2.7 2.3 1.2 3.4l.5.9c.7 1.2 1.6 2.2 2.6 3.1 2.8 2.5 6.8 3.7 10.6 3.5 2.9-.2 5.8-1.2 8.1-3 .7-.6 1.4-1.2 2-1.9 1.1-1.2 1.9-2.7 2.4-4.3.2-.5.3-1 .4-1.5l.3-1.8c0-.1 0-.1.1-.2v.6c-.1 2.1-.6 4.3-1.6 6.2-.8 1.5-1.9 2.9-3.2 4.1-.5.5-1.1.9-1.7 1.3-2.4 1.6-5.3 2.5-8.2 2.4-1 0-2-.2-2.9-.4-2.7-.7-5.2-2.2-7.1-4.2-.9-.9-1.7-2-2.3-3.1-1-2.5-1.6-5.1-1.5-7.7" style="fill:#044a9a"/><path d="M5.6 24.8c.1-1.4.4-2.7.9-4 .9-2.3 2.2-4.4 3.5-6.5l6.9-9.6c1.1-1.5 2.1-3 3-4.6.7 1.2 1.5 2.4 2.3 3.6l4.9 6.6 2.2 3.2c1.3 2 2.5 4 3.5 6.2.5 1.1.9 2.2 1.1 3.4.2.8.3 1.7.2 2.5 0 .1-.1.1-.1.2l-.3 1.8c-.1.5-.3 1-.4 1.5-.5 1.6-1.3 3-2.4 4.3-.6.7-1.3 1.4-2 1.9-2.3 1.8-5.2 2.9-8.1 3-3.8.3-7.7-1-10.6-3.5-1-.9-1.9-2-2.6-3.1l-.5-.9c-.6-1.1-1-2.2-1.2-3.4-.2-.8-.2-1.7-.3-2.6" class="st1"/><linearGradient id="SVGID_1_" x1="86.169" x2="67.58" y1="-43.246" y2="-33.344" gradientTransform="matrix(.5234 0 0 -.5234 -23.592 -2.134)" gradientUnits="userSpaceOnUse"><stop offset="0" style="stop-color:#d7e9eb"/><stop offset="1" style="stop-color:#fff"/></linearGradient><path d="M13.3 34.6c-1.2-.8-2.2-1.9-3-3-1.2-1.7-1.9-3.9-2-6 0-1.3.2-2.6.5-3.8.2-.6.4-1.3.7-1.9.6-1.3 1.3-2.6 2-3.9l1.8-2.9 3.4-5 1.8-2.9c.5-.9 1-1.8 1.3-2.8l.3-1.2v.6c0 .4.1.7.1 1l.1.5c-.2 1-.8 1.9-1.3 2.8l-1.8 2.8c-1.7 2.5-3.4 5-5 7.7-.9 1.6-1.8 3.2-2.4 4.9-1 3-.8 6.3.9 9.1.7 1.2 1.6 2.1 2.6 3 .3.2.6.5.9.7-.2.1-.6.1-.9.3" style="fill:url(#SVGID_1_)"/><path d="M24.9 10.6c.2.2.4.6.6.9l1.1 1.7c1.5 2.4 3 4.8 4 7.5.3.7.5 1.4.7 2.1s.2 1.4.2 2.1c0 3.1-1.2 6.1-3.4 8.3-2.1 2.1-5.1 3.4-8.1 3.5-1.7 0-3.3-.4-4.8-1.1-.5-.2-1.1-.5-1.6-.9l-.2-.1c.3-.1.7-.2 1-.4.2-.1.5-.2.7-.3l2.2-1c.2-.1.4-.2.5-.3.4.4.8.7 1.3 1 .8.6 1.6 1 2.5 1.5l.9.4.8-.2c.8-.3 1.5-.6 2.2-1.1 2.4-1.5 4.3-3.9 4.9-6.7.3-1.1.3-2.2.2-3.3 0-.3-.1-.7-.1-1-.1-.4-.2-.8-.4-1.2-.6-1.6-1.3-3.1-2.2-4.6l-1.2-2.1c0-.3-.1-.6-.1-.8-.2-.9-.6-1.8-1-2.6l-.5-.9c0-.2-.1-.3-.2-.4" style="fill:#87c1d0"/><path d="m26.6 15.1 1.2 2.1c.8 1.5 1.6 3 2.2 4.6.1.4.3.8.4 1.2.1.3.1.7.1 1 .1 1.1 0 2.3-.2 3.3-.6 2.8-2.5 5.2-4.9 6.7-.7.4-1.4.8-2.2 1.1l-.8.2-.8-.3c-.9-.4-1.7-.9-2.5-1.5-.4-.3-.9-.6-1.3-1l1.2-.8c1-.7 2-1.6 2.9-2.5.6-.6 1.1-1.2 1.5-1.9 1.3-1.8 2.2-3.9 2.8-6.1.3-1 .4-2.1.5-3.1v-1.7z" style="fill:#097c99"/><path d="M20.2 3.3c.1.2.2.5.2.8v1.3c-.1 1.1-.1 2.3-.3 3.4-.3 2-.8 3.9-1.6 5.8-.5 1.3-1.2 2.6-1.9 3.9-.6 1-1.2 2.1-1.6 3.2-.8 1.8-1 3.6-.6 5.5.3 1.7 1.2 3.2 2.3 4.4l1 1c-.1.1-.3.2-.5.3l-2.2 1c-.2.1-.5.2-.7.3-.3-.2-.6-.4-.9-.7-1.1-.8-1.9-1.8-2.6-3-1.7-2.8-1.9-6-.9-9.1.6-1.7 1.5-3.3 2.4-4.9 1.5-2.6 3.3-5.1 5-7.7L19 6.1c.5-.9 1-1.8 1.2-2.8" style="fill:#a5dff5"/><path d="M20.2 2.9c.1 0 .1.1.1.1.4 1 .9 1.8 1.5 2.7l3.2 4.9c0 .1.1.3.2.4l.3.6c.4.8.8 1.7 1 2.6.1.3.1.6.1.8l.1 1.3V18c-.1 1-.2 2.1-.5 3.1-.6 2.2-1.5 4.3-2.8 6.1-.5.7-1 1.3-1.5 1.9-.9.9-1.9 1.8-2.9 2.5l-1.2.8-1-1c-1.1-1.2-2-2.8-2.3-4.4-.4-1.9-.1-3.8.6-5.5.5-1.1 1.1-2.1 1.6-3.2.7-1.3 1.3-2.6 1.9-3.9.7-1.9 1.3-3.8 1.6-5.8.2-1.1.2-2.3.3-3.4V3.9c0-.3-.1-.5-.2-.8z" class="st1"/><path d="M20.2 2.9c.1 0 .1.1.1.1.4 1 .9 1.8 1.5 2.7l3.2 4.9c0 .1.1.3.2.4l.3.6c.4.8.8 1.7 1 2.6.1.3.1.6.1.8-.3-.3-.5-.7-.7-1l-1.1-1.8-.7-1.1-2-3.1-.8-1.3c-.3-.4-.5-.9-.8-1.3V4.1c0-.3-.1-.5-.2-.8z" style="fill:#35daf5"/></svg>