<?xml version="1.0" encoding="utf-8"?>
<!-- Generator: Adobe Illustrator 26.1.0, SVG Export Plug-In . SVG Version: 6.00 Build 0)  -->
<svg version="1.1" id="Layer_1" xmlns="http://www.w3.org/2000/svg" xmlns:xlink="http://www.w3.org/1999/xlink" x="0px" y="0px"
	 viewBox="0 0 40 40" style="enable-background:new 0 0 40 40;" xml:space="preserve">
<style type="text/css">
	.st0{fill:#B6170E;}
	.st1{fill:#FB9A0C;}
	.st2{fill:#FCCA44;}
	.st3{fill:#EB3F18;}
	.st4{fill:#BF3506;}
</style>
<path class="st0" d="M34.5,26.5l-0.2,0.8c-0.6,2.2-1.6,4-3.1,5.6c-1.2,1.4-2.8,2.7-4.4,3.7c-0.8,0.4-1.5,0.9-2.3,1.2
	c-1,0.5-2.1,0.8-3.2,1.2l-0.6,0.2c-0.1,0-0.2,0.1-0.3,0.1c-3-0.9-5.9-2.3-8.4-4.2c-2.9-2.3-5.2-5.6-5.6-9.3c-0.4-3.5,1-7.2,2.9-10.2
	c0.4-0.6,0.7-1.2,1.2-1.8l0,0.1c-0.1,0.3-0.3,0.6-0.5,0.9c-0.3,0.6-0.6,1.1-0.9,1.7c-1,2.4-1.5,5-1.1,7.6c0.1,0.9,0.3,1.7,0.6,2.6
	c0.8,2.2,2.1,4.1,3.8,5.7l0.7,0.6c0.1,0.1,0.2,0.2,0.3,0.2c0.2,0.2,0.4,0.3,0.6,0.5c1.4,1.1,3,2,4.6,2.7c0.2,0.1,0.5,0.2,0.8,0.3
	l1.1,0.4c2-0.5,3.8-1.3,5.6-2.2c0.3-0.2,0.7-0.4,1-0.6c0.5-0.3,1-0.6,1.5-1c1.2-0.8,2.3-1.8,3.2-2.9c0.2-0.2,0.3-0.4,0.5-0.6
	c0.6-0.7,1.1-1.5,1.6-2.3l0.3-0.7C34.3,26.7,34.4,26.6,34.5,26.5z"/>
<path class="st1" d="M21.7,1.3l2.3-2l-0.5,1.4L23,2.3c-0.2,0.7-0.3,1.5-0.3,2.2c0,1.2,0.4,2.3,1,3.3C24,8.4,24.5,9,24.9,9.5
	c1.7,2.2,3.7,4.1,5.1,6.4l1.2-1.2c0.3,0.3,0.5,0.7,0.7,1.1l0.8,1.4c0.4,0.8,0.8,1.5,1.1,2.3c0.8,2.1,1.1,4.3,0.8,6.6
	c0,0.1,0,0.2,0,0.2c-0.1,0.1-0.1,0.3-0.2,0.4L34,27.5c-0.4,0.8-1,1.6-1.6,2.3c-0.2,0.2-0.3,0.4-0.5,0.6c-0.9,1.1-2,2-3.2,2.9
	c-0.5,0.3-1,0.7-1.5,1c0-0.1,0.1-0.2,0.2-0.3l0.5-0.7c1.5-2.1,2.5-4.8,2.6-7.4c0-1.2-0.1-2.4-0.3-3.6l-1.8,1.9
	c-0.1-0.2-0.2-0.4-0.2-0.6l-0.3-0.7c-0.5-1-1-1.9-1.7-2.8c-1.3-1.9-2.9-3.5-4.2-5.3c-0.6-0.8-1.1-1.6-1.6-2.5
	c-1.2-2.3-1.4-4.3-0.6-6.8c0.3-0.8,0.6-1.5,1-2.3l0.6-1l0.3-0.5C21.5,1.6,21.6,1.5,21.7,1.3L21.7,1.3z"/>
<path class="st2" d="M31.9,30.4c0-0.3,0.2-0.6,0.2-0.8c0.2-0.6,0.4-1.2,0.5-1.9c0.2-1,0.3-2,0.2-3.1c-0.1-1.6-0.5-3.3-1.1-4.8
	L31,18.1l-2,2.2c-0.1-0.1-0.1-0.2-0.2-0.3l-0.3-0.6l-1.1-1.7c-1.1-1.6-2.4-3.1-3.7-4.5c-0.5-0.6-1-1.2-1.4-1.9
	c-0.4-0.6-0.7-1.1-0.9-1.8C21.1,8.8,21,7.9,21.1,7c0.1-1.9,0.9-3.6,1.8-5.3l0.3-0.6c0.1-0.2,0.2-0.3,0.3-0.4L23,2.3
	c-0.2,0.7-0.3,1.5-0.3,2.2c0,1.2,0.4,2.3,1,3.3C24,8.4,24.5,9,24.9,9.5c1.7,2.2,3.7,4.1,5.1,6.4l1.2-1.2c0.3,0.3,0.5,0.7,0.7,1.1
	l0.8,1.4c0.4,0.8,0.8,1.5,1.1,2.3c0.8,2.1,1.1,4.3,0.8,6.6c0,0.1,0,0.2,0,0.2c-0.1,0.1-0.1,0.3-0.2,0.4L34,27.5
	c-0.4,0.8-1,1.6-1.6,2.3C32.2,30.1,32.1,30.3,31.9,30.4z"/>
<path class="st3" d="M21.7,1.3L21.7,1.3c0,0.1-0.1,0.2-0.2,0.3l-0.3,0.5l-0.6,1c-0.4,0.7-0.7,1.5-1,2.3c-0.8,2.5-0.6,4.4,0.6,6.8
	c0.5,0.9,1,1.7,1.6,2.5c1.4,1.8,2.9,3.4,4.2,5.3c0.6,0.9,1.2,1.8,1.7,2.8l0.3,0.7c0.1,0.2,0.1,0.5,0.2,0.6l1.8-1.9
	c0.2,1.2,0.4,2.4,0.3,3.6c-0.1,2.6-1.1,5.2-2.6,7.4l-0.5,0.7c-0.1,0.1-0.2,0.2-0.2,0.3c-0.3,0.2-0.7,0.4-1,0.6
	c-1.8,1-3.7,1.7-5.6,2.2l-1.1-0.4c-0.3-0.1-0.5-0.2-0.8-0.3c-1.6-0.7-3.2-1.6-4.6-2.7c-0.2-0.2-0.4-0.3-0.6-0.5
	c-0.1-0.1-0.2-0.2-0.3-0.2l-0.7-0.6c-1.7-1.6-3-3.5-3.8-5.7c-0.3-0.8-0.5-1.7-0.6-2.6c-0.3-2.6,0.1-5.2,1.1-7.6
	c0.3-0.6,0.5-1.2,0.9-1.7c0.2-0.3,0.3-0.6,0.5-0.9l0-0.1c0.1-0.2,0.3-0.4,0.5-0.6l0.4,0.8c0.5,1,1,1.9,1.7,2.8
	c0.1,0.1,0.2,0.2,0.3,0.3l0,0c-0.1-0.5-0.1-1.1-0.1-1.6c0-3.3,1.5-6.6,3.5-9.3c0.4-0.5,0.8-1,1.2-1.4c0.3-0.3,0.6-0.7,0.9-1
	L21.7,1.3z"/>
<path class="st0" d="M18.1,4.7L18.1,4.7c-0.1,0.3-0.3,0.6-0.5,0.8c-0.4,0.5-0.7,1.1-1,1.7c-0.4,0.8-0.7,1.5-0.9,2.3
	c-0.9,2.9-0.6,6.1,0.5,8.9c0.2,0.4,0.4,0.9,0.6,1.3c0.1,0.3,0.4,0.5,0.4,0.8c-0.3-0.2-0.6-0.5-0.9-0.8l-2.2-2.1l-0.4-0.5
	c-0.1-0.1-0.2-0.2-0.2-0.3c-0.1-0.5-0.1-1.1-0.1-1.6c0-3.3,1.5-6.6,3.5-9.3C17.3,5.7,17.7,5.2,18.1,4.7z"/>
<path class="st4" d="M13.6,33.3c-0.2-0.4-0.4-0.8-0.6-1.2l-1.7-3.3c-0.2-0.4-0.4-0.9-0.6-1.3l2.8,1.4c0.3,0.6,0.6,1.2,0.8,1.9
	l0.4,0.9c0,0.1,0.1,0.4,0.2,0.5c0,0,0.1,0.1,0.1,0.1l0.4,0.2l1.9,1.1l3.3,1.9l5.1-2.8c0,0.1,0,0.2,0,0.3c0,0.1,0,0.2,0,0.4l-6.2,3.5
	c-0.3-0.1-0.5-0.2-0.8-0.3c-1.6-0.7-3.2-1.6-4.6-2.7C13.9,33.6,13.7,33.4,13.6,33.3z"/>
<path class="st2" d="M20.5,16.6l0.1-0.5l0.3,1.5c0.3,1.3,0.8,2.5,1.5,3.7c0.2,0.4,0.5,0.8,0.8,1.2c0.6,0.7,1.3,1.4,1.8,2.2
	c0.1,0.2,0.2,0.4,0.2,0.6c0,0.2,0,0.4,0,0.5c-0.1,0.6-0.4,1.2-0.6,1.8c-0.1,0.3-0.2,0.7-0.3,1l0,0c0.1-0.1,0.3-0.2,0.4-0.3l0.7-0.5
	l3.3-1.9l-0.8,1.8c-0.3,0.7-0.6,1.4-0.8,2.2c-0.1,0-0.3,0-0.4,0l-0.7,0.1l-1,0.2c-1,0.1-2,0.1-3.1,0.1l1.6-1.3
	c0.1-0.1,0.3-0.2,0.4-0.3l0,0l0,0c-0.1,0-0.1-0.2-0.1-0.3c-0.1-1.3-0.9-2.4-1.7-3.4c-0.5-0.7-1.1-1.3-1.4-2.1
	c-0.1-0.2-0.1-0.4-0.2-0.6c-0.3-0.9-0.4-1.9-0.4-2.8l0-1.9C20.6,17.1,20.6,16.8,20.5,16.6z"/>
<path class="st1" d="M20.5,16.6c0.1,0.2,0.1,0.5,0.1,0.8l0,1.9c0,1,0.1,1.9,0.4,2.8c0.1,0.2,0.1,0.4,0.2,0.6
	c0.3,0.8,0.8,1.5,1.4,2.1c0.8,1,1.5,2.1,1.7,3.4c0,0.1,0,0.3,0.1,0.3l0,0l0,0c-0.1,0.1-0.3,0.2-0.4,0.3l-1.6,1.3c1,0,2.1,0,3.1-0.1
	l1-0.2l0.7-0.1c0.1,0,0.3-0.1,0.4,0c-0.2,0.6-0.3,1.3-0.4,2c-0.3,0.2-0.6,0.3-0.9,0.5c-0.1,0.1-0.3,0.1-0.4,0.2l-5.1,2.8l-3.3-1.9
	l-1.9-1.1L15,32.1c0,0-0.1-0.1-0.1-0.1c-0.1-0.1-0.1-0.3-0.2-0.5l-0.4-0.9c-0.2-0.6-0.5-1.3-0.8-1.9l-1.2-2.8c0.3,0.2,0.7,0.4,1,0.6
	l1.2,0.6c0-0.2-0.1-0.3-0.1-0.5c-0.1-0.2-0.1-0.5,0-0.7c0.1-0.4,0.5-0.8,0.8-1.1c0.3-0.3,0.5-0.6,0.8-0.9c0.3-0.5,0.7-1,0.9-1.5
	c0.2-0.4,0.3-0.8,0.5-1.1c0.2-0.4,0.4-0.7,0.6-1.1c0.6-1,1-2.1,1.2-3.3c0.2,0.6,0.3,1.3,0.7,1.9C20.2,18.1,20.4,17.3,20.5,16.6z"/>
<path class="st4" d="M14.5,27.1c0-0.2-0.1-0.3-0.1-0.5c-0.1-0.2-0.1-0.5,0-0.7c0.1-0.4,0.5-0.8,0.8-1.1c0.3-0.3,0.5-0.6,0.8-0.9
	c0.3-0.5,0.7-1,0.9-1.5c0.2-0.4,0.3-0.8,0.5-1.1c0.2-0.4,0.4-0.7,0.6-1.1c0.6-1,1-2.1,1.2-3.3c0.2,0.6,0.3,1.3,0.7,1.9
	c-0.4,1.2-1,2.3-1.8,3.4c-0.3,0.4-0.6,0.7-0.9,1c-0.5,0.5-1.1,1.1-1.3,1.8l0,0c-0.1,0.2-0.1,0.5,0,0.7c0.1,0.4,0.2,0.7,0.3,1.1
	l0.6,1.6L14.5,27.1z"/>
</svg>
