<svg xmlns="http://www.w3.org/2000/svg" xml:space="preserve" id="Layer_1" x="0" y="0" version="1.1" viewBox="0 0 30 30"><style>.st0{fill:#9c9b9b}.st9{fill:#fefefe}</style><path d="M17.8 4.1h1.3v2.1h-1.3z" class="st0"/><path d="M11.5 2v-.6c.1-.4.3-.9.6-1.1s.5-.3.8-.3c.3-.1.6 0 .9 0h2.7c.5.1.9.3 1.1.6-.1.1-.1.3-.2.4-.3.5-.7.8-1.2 1h-4.7q.15 0 0 0" style="fill:#893825"/><path d="M11.5 2q.15 0 0 0h4.6c.5-.2 1-.5 1.2-1 .1-.1.1-.3.2-.4.4.4.6.9.5 1.4 0 .1-.1.3-.1.4l-.2.5-.5 1.3h-4.8l-.5-1.3c-.2-.4-.3-.6-.4-.9" style="fill:#683115"/><path d="M12.3 4.1h5.5v2.1h-7.6v-2h1.5c.3-.1.5-.1.6-.1" style="fill:#c2c1c1"/><path d="M12.3 4.1h4.8-6.8 2" class="st0"/><path d="M17.9 6.2h.4v3.5l3.6 3.6 1.2 1.2 1.9 1.9 1.5 1.5c.3.3.7.7 1 1.1.3.5.5 1.2.5 1.8q0 .75-.3 1.5c-.1.2-.3.5-.4.7l-.5.7-1.4 2-1.4 2c-.3.4-.6.9-1 1.3-.6.7-1.6 1.1-2.5 1.1H9.8c-.5 0-1.1 0-1.7-.1-.7-.1-1.3-.5-1.8-1-.1-.1-.3-.3-.4-.5.1-.1.3-.1.4-.1l1.4-.4c.2.2.5.3.8.4h12.2c.5 0 1-.2 1.4-.6.1-.1.2-.3.3-.4l.5-.7 1.6-2.3 1.5-2.1c.2-.3.4-.5.6-.8.1-.3.2-.6.2-.9q0-.45-.3-.9c-.2-.3-.5-.5-.7-.7l-1.1-1.1-1.7-1.5-1.7-1.6-.6-.6-.9-.9-2.8-2.6c-.3-.3-.4-.6-.5-.9V6.3z" style="fill:#ac73d8"/><path d="m19.7 13.3.9.9.6.6 1.7 1.6 1.5 1.5 1.1 1.1.7.7q.3.45.3.9c0 .3 0 .6-.2.9-.1.3-.4.6-.6.8l-1.5 2.1-1.6 2.3-.5.7c-.1.1-.2.3-.3.4-.3.4-.8.6-1.4.6H8.2c-.3 0-.6-.2-.8-.4l-.2-.3h.6l1.3-.1 2.3-.4 1.9-.5c.8-.3 1.7-.6 2.5-.9.3-.2.7-.3 1-.5l.4-.3c.1 0 .1-.1.2-.1 0 .2.1.4.2.5.1.2.4.4.6.5.3.1.6 0 .8-.1.2-.2.4-.4.4-.7v-.2l.1-.1c.2-.2.4-.4.4-.6.1-.3 0-.6-.2-.8.2-.2.4-.4.5-.6.6-.9 1-1.9 1.1-3 0-.6 0-1.3-.1-2-.2-1.1-.8-2.2-1.5-3.1-.3-.4-.6-.7-.9-1z" style="fill:#8a05c1"/><path d="M11.3 6.2h5.1v3.5c.1.4.3.7.5.9l2.8 2.6-.4.1c-.7.2-1.4.3-2.1.4-2.5.3-5 .2-7.4-.5h-.1l-.1.1-.3.3-1.6 1.6-2 2-2.4 2.4c-.1.1-.2.2-.2.3-.2.3-.3.8-.2 1.1 0 .2.1.3.2.4.2.4.5.7.8 1.1l1.8 2.6 1.1 1.6c.2.3.4.6.7.9l.2.4-1.2.3c-.1 0-.3 0-.4.1 0 0-.1-.1-.1-.2l-.2-.3-1-1.4-.6-.8-1.3-1.9-.6-.9c-.2-.2-.3-.5-.5-.7-.2-.4-.3-1-.3-1.5 0-.7.2-1.3.6-1.9.1-.2.3-.3.4-.5l.5-.4 2.2-2.2L7 13.9l4-4c.1-.1.3-.2.3-.3V6.2" style="fill:#c1bfbd"/><path d="M7.5 27.8c-.2-.3-.4-.6-.7-.9l-1.1-1.6-1.8-2.6c-.3-.4-.5-.7-.8-1.1-.1-.1-.2-.3-.2-.4-.1-.4 0-.8.2-1.1.1-.1.1-.2.2-.3l2.4-2.4 2-2 1.6-1.6.3-.3.1-.1h.1c2.4.6 5 .8 7.4.5.7-.1 1.4-.2 2.1-.4.3.3.6.7.9 1 .7.9 1.2 2 1.5 3.1.1.6.2 1.3.1 2-.1 1.1-.4 2.1-1.1 3-.2.2-.3.5-.5.6.2.2.2.5.2.8s-.2.5-.4.6l-.1.1v.2c0 .3-.2.5-.4.7s-.5.2-.8.1-.5-.2-.6-.5c-.1-.2-.1-.3-.2-.5-.1 0-.1.1-.2.1l-.4.3c-.3.2-.7.4-1 .5-.8.4-1.6.7-2.5.9l-1.9.5-2.3.4-1.3.1h-.4c-.3.2-.4.2-.4.3" style="fill:#bc0ff4"/><path d="M17.8 24.8v-.3s-.1-.1-.2-.1l-.4-.2-.7-.3c0 .2 0 .4-.1.5s-.3.2-.5.2h-2.5c-.1 0-.2-.1-.3-.2s-.1-.3-.1-.6l-.6.3c-.2.1-.4.2-.7.3v.4c0 .3-.1.5-.3.7s-.5.3-.8.3c-.2 0-.5-.1-.7-.3s-.3-.5-.3-.8c-.1 0-.1-.1-.2-.1-.2-.2-.3-.4-.4-.7 0-.3.1-.6.3-.8s.5-.3.8-.3c.4 0 .6.1.9.4l1.6-.8c-.1-.1-.3-.1-.4-.2-.4-.2-.7-.5-1-.9-.5-.8-.7-1.9-.5-2.9.2-1.1.9-2 1.8-2.6s2-.7 3-.5c1.1.2 2 .9 2.6 1.8s.7 2 .5 3.1c-.2.7-.6 1.5-1.2 2l-.6.3 1.6.8c.2-.2.5-.4.8-.4s.6.2.8.4.2.5.2.8-.2.5-.4.6l-.1.1v.2c0 .3-.2.5-.4.7s-.5.2-.8.1-.5-.2-.6-.5c0-.2-.1-.4-.1-.5" style="fill:#040711"/><path d="m14.8 20.8.9 1.4h-1.8c0-.1.1-.2.2-.3l.4-.7c.1-.1.2-.3.3-.4M16.3 18.5c.2 0 .5 0 .7.2.2.1.4.4.4.6.1.3 0 .5-.1.8-.2.3-.4.4-.7.4s-.5 0-.8-.2c-.2-.1-.4-.4-.4-.6 0-.3 0-.5.2-.8.1-.2.4-.3.7-.4M12.9 18.5c.2 0 .4 0 .6.1.3.1.5.4.5.7.1.3 0 .5-.1.8-.2.3-.4.4-.7.5-.2 0-.5 0-.7-.1-.3-.2-.4-.4-.5-.7s0-.6.1-.8c.2-.3.5-.5.8-.5" class="st9"/></svg>