<svg xmlns="http://www.w3.org/2000/svg" xml:space="preserve" id="Layer_1" x="0" y="0" version="1.1" viewBox="0 0 40 40"><style>.st1{fill:#9ac4de}.st2{fill:#446381}.st3{fill:#273358}.st5{fill:#558fb6}.st7{fill:#fdfdfc}.st9{fill:#344567}.st10{fill:#f6bd1d}.st12{fill:#82a1ab}.st13{fill:#fafa89}.st14{fill:#f6e925}</style><path d="m4.4 24.4.4-.3c.1 0 .2-.1.2-.1l-1.5-.9v-5.4l.9-.6c.1-.1.3-.2.4-.3L3.5 16v-6c.6-.3 1.2-.7 1.8-1.1l3.3-2 2.6-1.6L16.6 2 18.8.7c.4-.2.8-.5 1.2-.7.1 0 .2-.1.3 0 .2.1.3.2.5.2l.8.5 3.2 1.9 7.5 4.6 3.2 2 1 .6c.1.1.2.1.2.2v5.9c-.1.3-.5.4-.7.6l-.6.4.7.4c.2.1.4.2.5.4.1.1.1.2.1.3v5c0 .1 0 .2-.1.3-.1.2-.4.3-.6.4l-.7.3.9.6c.2.1.4.2.5.3s.1.2.2.3V30c-.2.2-.4.3-.6.4l-.8.5c-.2.1-.3.2-.5.3l-1 .6-2 1.2-11.8 7-15.4-9.3-1.2-.8V25h.1z" style="fill:#201e43"/><path d="m26.8 15.1.4.2c-.1.1-.2.1-.3.2l-.4-.3c.1 0 .2 0 .3-.1" class="st1"/><path d="m5.7 25.2-.4-.2c.2-.1.4-.3.6-.4v.3c0 .1 0 .1-.1.2z" class="st2"/><path d="m5.9 24.6.5.3c-.1.1-.4.3-.6.4h-.1l.1-.1c0-.1.1-.1.1-.2z" class="st3"/><path d="m26.7 16.1.6-.4v.5l-.6.4z" class="st1"/><linearGradient id="SVGID_1_" x1="17.373" x2="16.509" y1="27.849" y2="27.75" gradientTransform="matrix(1 0 0 -1 0 40)" gradientUnits="userSpaceOnUse"><stop offset="0" style="stop-color:#845d3a"/><stop offset="1" style="stop-color:#774e40"/></linearGradient><path d="m16.8 11.8.7.4-1 .5V12h.1c.1-.1.1-.2.2-.2" style="fill:url(#SVGID_1_)"/><path d="m25 14.4.3-.2 1.5.9c-.1.1-.2.1-.3.2-.1-.1-.2-.1-.3-.2l-.7-.5c-.2-.1-.4-.1-.5-.2" class="st5"/><path d="M4.6 15.7c-.1-.2-.1-.5-.1-.6v-4.6c.1 0 .1.1.1.1v-.1 5.2M3.6 25l.8-.5c.3.1.5.3.7.4-.3.2-.6.4-.9.5-.2-.2-.4-.3-.6-.4" class="st3"/><linearGradient id="SVGID_00000160885500042678819940000004731205987804904600_" x1="15.7" x2="15.761" y1="29.226" y2="28.061" gradientTransform="matrix(1 0 0 -1 0 40)" gradientUnits="userSpaceOnUse"><stop offset="0" style="stop-color:#b9742e"/><stop offset="1" style="stop-color:#9b5939"/></linearGradient><path d="m14.7 11 .4-.2c.3.1.5.3.8.4l.9.6c-.1.1-.2.1-.2.2h-.1v.2-.2c-.3-.1-.6-.3-.9-.5z" style="fill:url(#SVGID_00000160885500042678819940000004731205987804904600_)"/><path d="M20.3 14.1v-.4l1.5-.9.4-.3c.1 0 .2-.1.3-.1v.3z" class="st7"/><path d="m23.7 13.2.9.6c.1.1.3.2.5.3l-1.4.8z" style="fill:#768068"/><path d="m29.6 8.1 2.2 1.4c.2.1.5.2.6.4v.2l-.1.1c-.4-.2-.7-.4-1-.6-.7-.4-1.3-.8-1.9-1.2zM10.7 8.2l.4.3-2 1.2c-.3.2-.6.4-1 .6l-.3-.3z" class="st7"/><path d="m23.8 14.8-.8.5v-2.6c.3.1.6.3.8.5z" class="st9"/><path d="m6.6 25.1 3.2 2v.6l-.3-.2-3.4-2.1z" class="st3"/><path d="M4.8 10.3c.8.2 1.6.6 2.3 1l2.4 1.4.6.4c.1.1.2.1.3.2l-.4.2-1.6-1-2.3-1.4-1-.6s-.2-.1-.3-.2" class="st7"/><path d="M16.4 13.1c.1-.1.3-.2.4-.3l.6-.3v2.8l-1-.6z" class="st2"/><path d="M20.1 8.6c.1 0 1.3.7 1.5.8l-1.4.8-1.5-.8c.1-.1.3-.2.5-.3z" class="st1"/><path d="M16.7 31.9c-.1-.1-.3-.2-.4-.3l-.8-.5-1.2-.8-.9-.6.5-.3 3.3 1.9z" class="st3"/><path d="M30.6 14.4v-.5l5.3-3.2v.5zM35.3 10l.4.3-3.4 2.1-1.2.7c-.2.1-.4.3-.6.4l-.4-.2c.1-.1.4-.2.5-.3l1.3-.8 2.3-1.4z" class="st7"/><path d="m17.2 31.5 1.9 1.1c.3.2.7.5 1.1.6.1.3 0 .6 0 .9-.1-.1-.2-.1-.3-.2l-.5-.3-2.7-1.7z" class="st9"/><path d="m4.6 10.6 3.4 2c.6.4 1.3.7 1.9 1.2v.6c-.5-.4-1.2-.8-1.7-1.1l-3.6-2.2z" class="st5"/><path d="m30.4 7 .2.2L27.4 9 24 11.1l-2.6 1.5-1.1.6c-.1 0-.1.1-.2.1V13c.5-.2.9-.5 1.3-.7l2.1-1.2z" class="st10"/><path d="m29.3 8.9 2.4 1.5-.9.5-.8.5c-.2.1-.4.3-.6.4z" class="st2"/><linearGradient id="SVGID_00000145750442691633380260000011298345969120506301_" x1="14.664" x2="15.406" y1="28.915" y2="30.768" gradientTransform="matrix(1 0 0 -1 0 40)" gradientUnits="userSpaceOnUse"><stop offset="0" style="stop-color:#c57223"/><stop offset="1" style="stop-color:#a95c3d"/></linearGradient><path d="M20.2 13.4 9.8 7.2l.3-.2c.2.2.4.3.6.4l1 .6 1.8 1 4 2.4 1.9 1.1c.2.1.5.3.7.4z" style="fill:url(#SVGID_00000145750442691633380260000011298345969120506301_)"/><path d="M11.1 8.8v3l-1.5-.9-.9-.6z" class="st12"/><path d="m34.7 24.8 1.2.7-4.6 2.8c-.2.1-.5.3-.6.4V28l1.4-.9 1.8-1.1c.2-.1.6-.3.8-.5 0-.1-.1-.5 0-.7" class="st1"/><path d="m16.4 12 .1.2v.5l-3.9 2.4-.3-.2-.4-.2.6-.3 2.6-1.6.7-.4c.2-.2.4-.4.6-.4" class="st13"/><path d="M16.5 12.3v.3L12.6 15l-.3-.2.6-.3.8-.5z" class="st10"/><path d="m5.8 18-.5-.3c.2-.2.4-.3.7-.5l.5.3 3.4 2.1v.9z" class="st3"/><path d="M34.4 24.4c.1.3 0 .6 0 .9-.1.1-.1.2-.2.2-.1.1-.3.2-.4.2l-.8.6-2.3 1.4v-1zM34.1 17.2l.4.2v.3c0 .1-.1.2-.2.3s-.2.1-.3.2l-.7.4-2.5 1.5-.3.2v-1.1z" class="st2"/><path d="M5.1 25.2c.1 0 .3.2.4.2l1.2.7 2.2 1.3c.4.2.7.4 1 .7v.8l-.3-.2-5.1-3.1zM5.2 17.8c.1 0 .2.1.2.1l.6.4 3.9 2.4v.8l-.4-.3-5-3z" class="st5"/><path d="M34.7 17.5c.4.2.8.4 1.1.7L31.3 21l-.7.4v-.8l2.9-1.7.8-.5c.1-.1.3-.1.4-.2.1-.2 0-.5 0-.7" class="st1"/><path d="M12.9 16.1v-.6l6.9 4.2v.6c-.2-.1-.4-.2-.5-.3l-1.2-.8-2.9-1.8z" class="st5"/><path d="m29.9 6.7.5.3-6.8 4.1-2.1 1.2c-.4.3-.9.5-1.3.7v-.4z" class="st13"/><path d="m18.8 34.2-.6-.3-1.4-.9-2.8-1.7-1.5-.9.6-.4 6.2 3.8c-.2.2-.4.3-.5.4M19.1 27.5l-6.2-3.7.7-.4 6.1 3.7z" class="st5"/><path d="m19 26.4-1.2-.7-2.2-1.3-1.1-.7c-.2-.1-.5-.3-.7-.4l.8-.5 5.2 3.1z" class="st3"/><path d="m10.1 7 .4-.2 6.8 4 2.3 1.3c.2.1.5.3.7.4-.1.1 0 .3 0 .4-.2-.2-.5-.3-.7-.4l-1.9-1.1-4-2.4-1.8-1-1-.6c-.4-.1-.6-.2-.8-.4" class="st14"/><path d="M20.5 23.8v-4l6.2-3.7v.5l-5.8 3.5v3.4z" class="st7"/><path d="m19.8 27.1.5.3 6.5-3.9.5.4-1.6 1-2.4 1.4-2 1.2c-.3.2-.6.4-1 .6h-.2c-.4-.1-.8-.4-1.1-.5zM19.3 33.8l.9.6 7-4.3.6.4-7.7 4.6-1.4-.8c.2-.2.4-.3.6-.5" class="st1"/><path d="m20.2 33.2.9-.6 1.3-.8 2.5-1.5 1.5-.9c.2.2.4.4.7.6l-1.4.8-4.3 2.6-.8.5c-.1.1-.2.2-.4.2 0-.3.1-.7 0-.9" class="st2"/><path d="M22.6 12.4v3.1l-2.3 1.4v-2.8l2.2-1.3z" class="st12"/><path d="M28.9 8.5v3.4l-.5.3-1.7-1-1.1-.7z" class="st1"/><path d="m17.9 12.4 2.1 1.2v3.2l-2.1-1.3z" class="st2"/><path d="M13.9 6.6c.1-.1.4-.2.5-.4l1.8-1.1 2.6-1.5.9-.6c.2-.1.3-.2.5-.3l.6.3.8.5 3.2 2c.4.3.9.6 1.3.8l1.6-.9.4.2-2 1.2-1.4-.8-2.8-1.7-1.1-.6c-.2-.1-.3-.2-.5-.3h-.2c-.1 0-.3.2-.4.2l-.8.4L16 5.8c-.6.3-1.1.7-1.7 1z" class="st7"/><path d="m11.5 8.6 3.4 2-1.1.6-1.8 1.1c-.2-.1-.4-.2-.5-.3z" class="st2"/><path d="M13.2 15c.2 0 .4.1.6.2.8.4 1.6.9 2.4 1.4l1.8 1.1 1.5.9.5.3.1.1s.2-.1.3-.2l1.1-.7 4.9-2.9.4.3-6.5 3.9h-.4c-.3-.1-.5-.3-.8-.5l-1.4-.9-4.7-2.8z" class="st7"/><path d="m30.6 17.4 5.2-3v-1.3 2.6l-5.2 3.1zM30.6 24.7c.1 0 .2-.1.3-.2l.7-.4 2.5-1.5 1.8-1.1v1.3L30.6 26z" class="st2"/><path d="m4.6 14.4 5.3 3.2V19l-5.3-3.3z" class="st9"/><path d="m19.8 25.8.4.2 5.5-3.4.8.6-6.3 3.7-1.2-.5z" class="st2"/><path d="M30.2 13.7c.1.1.1.1.1.2v14.6l-.2.1c-.1 0-.3.1-.4.2V14.2l-1.1.7v-.1c.1-.1.1-.1.1-.2z" class="st14"/><path d="M9.9 24.6v1.6l-5.5-3.4v-4.3l.2.1v3l1.1.7L8 23.6c.2.1 1.8 1.2 1.9 1.2z" class="st9"/><path d="m10.2 13.6 4.4-2.6.9.5c.3.2.6.4.9.5-.2.1-.5.2-.7.3l-.7.4-2.6 1.6-.6.3-.6-.3z" class="st10"/><path d="m13 26.8 6.8 4.2v1.3c-.9-.6-1.9-1.2-2.9-1.7l-2.2-1.3-1.1-.7c-.2-.1-.5-.3-.7-.4zM12.9 19.9c.3.1.6.3.9.5l1.5.9 2.5 1.5 2 1.2v-3.4 4.9l-6.9-4.1z" class="st9"/><path d="m23.5 11.8 1.1-.7c.2-.1.4-.3.6-.4l4.5 2.7c.1.1.3.2.4.3l-1.4.8h-.3l-.2.1c-.4-.2-.9-.5-1.3-.7v-.1z" class="st10"/><path d="M29.8 13.4c.1.1.3.2.4.3l-1.4.8h-.3l-.2.1c-.4-.2-.9-.5-1.3-.7v-.1l1.2.7c.3-.1.6-.4.8-.6z" class="st13"/><path d="m26.7 24.6.6-.4v4.1l-6.8 4.1v-1.5l6.2-3.7zM27.4 16.3v4.9l-6.8 4.1v-1.5l.4-.2 5.8-3.4v-3.5z" class="st2"/><path d="m4.8 10.3 4.7-2.9 1.3.7-3 1.9.4.2c0 .1.1.1.2.1l.4.3 3 1.8-1.3.8c-.1-.1-.2-.1-.3-.2l-.6-.4-2.4-1.4c-.9-.3-1.6-.7-2.4-.9M29.6 8.1l1.3-.8 4.4 2.7-1 .6-2.4 1.4-1.3.8c-.2.1-.4.2-.5.3-.1 0-.3-.2-.4-.3l-1-.6 2.5-1.5.8-.4c.1 0 .2-.1.3-.1l.1-.1v-.2c-.1-.2-.4-.3-.6-.4z" class="st1"/><linearGradient id="SVGID_00000026131898290701086140000013844740498644506554_" x1="30.069" x2="23.5" y1="19.498" y2="19.066" gradientTransform="matrix(1 0 0 -1 0 40)" gradientUnits="userSpaceOnUse"><stop offset="0" style="stop-color:#976b26"/><stop offset="1" style="stop-color:#cc7623"/></linearGradient><path d="M23.1 12c.2-.1.3-.2.4-.3l3.4 2v.1c.4.2.8.6 1.3.7l.2-.1c.1 0 .2-.1.3 0-.1.1-.1.1-.1.2v.1l1.1-.7v.4c-.2.1-.3.2-.5.3l-.8.5v14.4c-.1.1-.1.1-.2.1-.2-.1-.4-.2-.5-.3V15.1l-4.9-3c.1.1.3 0 .3-.1" style="fill:url(#SVGID_00000026131898290701086140000013844740498644506554_)"/><path d="M23.1 12c.2-.1.3-.2.4-.3l3.4 2v.1c.4.2.8.6 1.3.7l.2-.1c.1 0 .2-.1.3 0-.1.1-.1.1-.1.2v.1l-.5.3z" class="st14"/><path d="M30.6 24.7v-2.9l5.3-3.2v3l-1.8 1.1-2.5 1.5-.7.4c-.1 0-.2.1-.3.1M19.9 3.8v4.5l-1.6 1L16 7.9 14.6 7z" class="st12"/><path d="M4.7 18.6c.3.1.5.3.8.5l2.1 1.3 1.5.9c.3.2.6.3.8.5v3c-.1 0-1.7-1-1.9-1.2l-2.2-1.3-1.1-.7z" class="st2"/><path d="M11.3 29.3c-.4-.2-.7-.4-1-.7V13.5l1 .6v15.2" style="fill:#74531c"/><path d="M20.3 3.7c.6.4 1.2.7 1.8 1.1l2.1 1.3 1 .6c.2.1.4.2.5.3l-1.4.8-2.5 1.4-1.5-.9V3.7" class="st2"/><path d="M35.8 10.8v3.5999999999999996l-5.2 3v-3l5.2-3.1zM26.7 24.6v2.6l-6.2 3.7v-2.7z" class="st12"/><path d="m4.6 11.1 3.6 2.2c.6.4 1.2.7 1.7 1.1v3.2l-5.3-3.2zM35.9 25.7v3.5999999999999996c0 .1-.1.1-.1.2-.1.1-.3.2-.5.3l-.9.6-3 1.8-7.3 4.5-2.2 1.3-1.4.8v-1.1l15.4-9.3z" class="st2"/><path d="M28.4 29.7V15.3l.8-.5c.2-.1.3-.2.5-.3v14.2c.1-.1.2-.2.4-.2-.1.1-.3.2-.5.3z" style="fill:#e9a00c"/><path d="M13 26.8v-2.7l6.9 4.1v2.7z" class="st2"/><path d="m11.3 14.3.6.3.4.2.3.2c-.1.1 0 .5 0 .7V30l-.9-.5c-.1-.1-.3-.2-.4-.3V14.5s-.1-.1 0-.2" style="fill:#a6700d"/><path d="M20.9 23.6v-3.4l5.8-3.5v3.5z" class="st12"/><path d="M19.8 37.4v1.3L4.4 29.4v-3.5h.1c-.1.2 0 .4 0 .6v1.6z" class="st9"/><path d="M16.4 13.1v1.6l-.6-.3v.1c0 .1.2.1.2.2.4.2.7.5 1.1.7l3 1.8c.2-.1.3-.2.5-.3l.8-.5 3.5-2.1c.1.1.3.2.4.3l.7.5c.1.1.2.1.3.2l-4.9 2.9-1.1.7s-.2.2-.3.2l-.1-.1-.5-.3-1.4-1-1.8-1.1c-.8-.5-1.6-1-2.4-1.4-.2-.1-.4-.1-.6-.2zM13.9 6.6l-1.5-.9 8-4.8c.3.3.7.5 1.1.7l1.5.9 4.8 2.9-1.6.9c-.5-.2-.9-.6-1.3-.8l-3.2-2-.8-.5c-.2-.1-.4-.3-.6-.3-.3.1-.4.2-.6.3l-.9.5L16.2 5l-1.8 1.1c-.1.2-.4.3-.5.5" class="st1"/><path d="m12.9 16.1 2.3 1.4 2.9 1.8 1.2.8c.2.1.3.3.5.3v.1c-.1.3 0 .7 0 1v2.4l-2-1.2-2.5-1.5-1.5-.9c-.3-.2-.6-.4-.9-.5z" class="st2"/><path d="m10.5 6.8 1.5-.9 8.2 4.8 8.2-4.9c.1 0 .3.2.4.2l1.1.7-9.7 5.8c-.2-.2-.5-.3-.7-.4l-2.3-1.3z" class="st10"/><path d="M19.8 37.4 4.6 28.2V26l9 5.5 4.7 2.8 1 .6c.1.1.3.2.4.3z" class="st2"/><path d="M35.9 25.7v2.5l-15.4 9.3v-2.3z" class="st12"/></svg>