<svg xmlns="http://www.w3.org/2000/svg" xml:space="preserve" id="Layer_1" x="0" y="0" version="1.1" viewBox="0 0 40 40"><style>.st0{fill:#116635}.st1{fill:#3ba964}.st2{fill:#338e3f}.st3{fill:#7dca7b}</style><path d="M34.6 36.6c0 .1-.1.1-.1.2-.4.5-1.1.8-1.6 1.1-2.1 1.1-4.5 1.8-6.9 2h-2.3c-4.4-.4-8.8-2.3-12-5.3-.7-.6-1.3-1.2-1.9-1.9-2.4-2.7-4-5.9-4.8-9.4-.3-1.3-.5-2.7-.6-4v-2.4c0-1.6.2-3.3.6-4.9.6-3.3 2-6.3 3.8-9.1L10 1.2c.3-.4.7-.9 1-1.3 0 .1-.2.4-.3.5l-.6 1c-.7 1.3-1.2 2.5-1.8 3.8-.4 1.2-.8 2.5-1.1 3.8-1 4.8-.6 10 1.2 14.5.5 1.2 1.1 2.4 1.8 3.4 1.1 1.7 2.4 3.3 3.9 4.6l1 .8c2.7 2.2 6 3.7 9.3 4.5 1.9.4 3.8.6 5.7.5.7 0 1.4-.1 2-.2l1.5-.3.5-.2c.2.1.3 0 .5 0" class="st0"/><path d="M11-.1 15.5 2l4.2 2.2c2.7 1.6 5.3 3.4 7.6 5.6.8.8 1.6 1.7 2.4 2.6 2 2.4 3.7 5.2 4.9 8.1 1.1 3 1.7 6.2 1.5 9.4-.1 1.1-.2 2.3-.5 3.4l-.4 1.5c-.2.5-.3 1.1-.6 1.6 0 0 0 .1-.1.1s-.3.1-.4.1l-.5.2-1.5.3c-.7.1-1.3.2-2 .2-1.9.1-3.8-.1-5.7-.5-3.4-.8-6.6-2.3-9.3-4.5l-1-.8c-1.5-1.4-2.8-2.9-3.9-4.6-.7-1.1-1.3-2.3-1.8-3.4C6.6 19 6.2 13.8 7.2 9c.3-1.3.6-2.6 1.1-3.8.5-1.3 1.1-2.5 1.8-3.7l.6-1c.1-.2.3-.4.3-.6" class="st1"/><path d="M15.9 6.5c.3.1.6.3.8.4l1.8 1c4.9 2.9 9.1 7 11.7 12.1.3.7.6 1.3.9 2 .5 1.2.8 2.5 1 3.8.1.9.2 1.8.2 2.6v1.9-.8l-.1-1.5c-.4-2.9-1.1-5.7-2.4-8.3l-.3-.6c-.1-.2-.1-.3-.3-.4-.2-.5-.5-.9-.8-1.4-.8-1.3-1.7-2.4-2.7-3.5-.4-.5-.9-1-1.3-1.4l-2.2-1.9c-1.1-.9-2.2-1.7-3.4-2.4-.1-.1-.3-.2-.5-.3l-1.7-1c-.3-.1-.5-.2-.7-.3" class="st0"/><path d="M29.1 18.7c.1.1.2.3.3.4l.3.6c1.3 2.6 2.1 5.5 2.4 8.3l.1 1.5v1.6c0 .6-.1 1.1 0 1.7v.1l-3.9-3.4c.1-.2.1-.5.2-.7l.4-1.3c.4-1.7.7-3.4.6-5.1 0-.4 0-.8-.1-1.2-.1-.6-.2-1.3-.3-1.9z" class="st2"/><path d="M18.7 8.2c1.2.7 2.3 1.5 3.4 2.4l2.2 1.9c.5.4.9.9 1.3 1.4 1 1.1 1.9 2.2 2.7 3.5.3.4.6.9.8 1.4l.2.7c.1.6.3 1.2.3 1.9 0 .4.1.8.1 1.2q0 2.55-.6 5.1l-.4 1.3c-.1.2-.1.5-.2.7l-.3-.3-.7-.6-1.3-1.3-1-1-3-3.5-3.2-4.6c.1-.1.1-.2.1-.3l.1-.6c.2-1 .3-1.9.4-2.9.1-1.3.1-2.5-.1-3.7-.2-.8-.3-1.3-.5-1.9-.1-.2-.2-.5-.3-.8" class="st3"/><path d="M22.1 22.8c.3-.9.4-1.8.5-2.7.4-2.4.6-4.9 0-7.3l-.5-1.6-.1-.6c1.3 1 2.5 2.1 3.6 3.4l.3.3.1.1c0 .1 0 .2.1.3.1.6.3 1.3.3 1.9.1.9.2 1.9.1 2.8q-.15 2.7-.9 5.4l-.3.9c-.1.2-.1.4-.2.5z" class="st1"/><path d="m11.6 4.1-.2-1.8c.2.4.4.8.7 1.1.7 1 1.5 1.8 2.6 2.4.1 0 .2.1.3.2l.5.3c.1 0 .2.1.3.1s.2.1.2.1c.2.1.4.2.6.4l1.7 1c.1.1.4.2.5.3 0 .3.2.5.3.8.2.6.3 1.1.4 1.7.2 1.2.2 2.5.1 3.7-.1 1-.2 1.9-.4 2.9l-.2.6c0 .1 0 .2-.1.3l3.2 4.6 3 3.5 1 1 1.3 1.3.7.6.3.3 3.9 3.4c.2.2.3.5.4.7l.7 1.2.5.7c.1.1.2.2.2.3l-2.3-1.1h-.6l-1.6-.2c-.3-.1-.7-.1-1-.2h-.7l-1.4-.3-1.9-.5c-.7-.2-1.3-.4-2-.7-.8-.3-1.7-.7-2.5-1.2-.1-.1-.3-.2-.4-.3l-.9-.6c-1.3-.9-2.5-2-3.6-3.2-.8-.8-1.5-1.8-2.1-2.7-.7-1.1-1.2-2.2-1.6-3.3-1.2-3.1-1.7-6.4-1.5-9.7.1-2.3.6-4.7 1.2-7l.1-.5c0-.1 0-.2.1-.2z" class="st3"/><path d="m11.4 4.2.1-.1h.1c.2 1.8.6 3.6 1.2 5.3l.8 2.5c-.1 0-.3-.2-.4-.2-1-.7-1.8-1.6-2.7-2.5 0-.2.1-.5.1-.8l.6-2.8.2-.8c0-.1 0-.3.1-.4-.1-.1-.1-.1-.1-.2" class="st1"/><path d="m20.6 31.8-2.9-2 1.6.7c.7.3 1.5.5 2.2.6 1.3.2 2.6.3 3.9.2l1.6-.1 1.7 1.5q1.5 1.2 3 2.1h-.6l-1.6-.2c-.3-.1-.7-.1-1-.2l-.8-.2-1-.2c-1.4-.3-2.8-.7-4.1-1.2-.2-.1-.4-.2-.6-.2z" class="st2"/><path d="M18.3 21c-.6-.1-1.1-.3-1.6-.5-1.7-.5-3.3-1.3-4.7-2.3l-1.1-.9c-.2-.1-.3-.3-.5-.4-.1-.4-.1-.7-.2-1.1-.1-.9-.2-1.7-.2-2.5l1.7 1.3c1.2.8 2.5 1.5 3.8 2.1z" class="st1"/><path d="M24.1 28.3c-.9 0-1.7-.1-2.6-.3-2.4-.4-4.8-1.1-7-2.1l-.5-.3c-.1 0-.1-.1-.2-.1-.1-.1-.3-.4-.4-.5-.8-1.2-1.4-2.6-1.9-4 .3.2.7.5 1 .7.9.5 1.8.9 2.7 1.3 1.3.5 2.6 1 4 1.3l1.7.3z" class="st2"/><path d="m11.6 4.1-.2-1.8c.2.4.4.8.7 1.1.7 1 1.5 1.8 2.6 2.4.1 0 .2.1.3.2l.5.3c.1 0 .2.1.3.1s.2.1.2.1c.2.1.4.2.6.4l1.7 1c.1.1.4.2.5.3 0 .3.2.5.3.8.2.6.3 1.1.4 1.7.2 1.2.2 2.5.1 3.7-.1 1-.2 1.9-.4 2.9l-.2.6c0 .1 0 .2-.1.3l3.2 4.6 3 3.5 1 1 1.3 1.3.7.6.3.3 3.9 3.4c.2.2.3.5.4.7l.7 1.2.5.7c.1.1.2.2.2.3l-2.3-1.1c-1-.6-2.1-1.3-3-2.1L27 31.2l-2.9-2.9-3.2-3.7-2.6-3.6-2.6-4.4-2.1-4.8-.8-2.5c-.6-1.7-1-3.4-1.2-5.2" style="fill:#fdfdfd"/><path d="M15.7 12.6c-.2-.3-.3-.6-.5-.9-.9-1.8-1.6-3.6-2.3-5.4l-.4-1-.4-1.1c-.1-.4-.3-.8-.4-1.2.3.5.6 1 1 1.5s1 .9 1.6 1.3c.1.1.2.2.3.2s.2.1.3.2l.5.3c.1 0 .2.1.3.1.1.5.1 1 .2 1.5.1 1.1 0 2.2 0 3.3-.1.3-.1.7-.2 1.2" class="st3"/><path d="M15.7 6.4c.1 0 .2.1.2.1.2.1.4.2.6.4l1.7 1c.1.1.4.2.5.3 0 .3.2.5.3.8.2.6.3 1.1.4 1.7.2 1.2.2 2.5.1 3.7-.1 1-.2 1.9-.4 2.9l-.1.6c0 .1 0 .2-.1.3l-3.2-5.7c.1-.4.1-.9.1-1.4q.15-1.65 0-3.3c0-.4 0-.9-.1-1.4" class="st1"/></svg>