<?xml version="1.0" encoding="utf-8" ?>
<svg xmlns="http://www.w3.org/2000/svg" xmlns:xlink="http://www.w3.org/1999/xlink" width="535" height="535">
	<path fill="#FEFEFE" transform="scale(0.523386 0.523386)" d="M0 -0L1024 0L1024 1024L-0 1024L0 -0Z"/>
	<path fill="#044A9A" transform="scale(0.523386 0.523386)" d="M178.712 621.5L179.266 621.25C180.612 641.826 182.287 662.675 186.628 682.864C192.491 710.135 202.303 737.122 215.366 761.765L227.811 782.689C244.382 809.502 264.014 834.198 287.803 855.038C353.887 912.928 446.134 941.54 533.481 935.652C600.96 931.104 668.855 907.054 722.116 864.849C739.098 851.393 754.223 836.088 768.423 819.768C793.673 790.751 812.125 756.382 824.622 720.126C828.672 708.375 832.376 696.418 834.971 684.25C837.986 670.109 839.199 655.819 841.487 641.585C841.732 640.06 842.086 639.249 842.973 637.986L842.891 651.021C841.303 700.629 829.404 750.187 806.169 794.219C787.219 830.128 761.947 861.546 732.381 889.238C720.299 900.554 706.861 910.669 693.13 919.899C637.243 957.468 570.674 977.658 503.208 975.344C480.071 974.551 457.333 971.826 434.847 966.204C372.911 950.718 313.8 915.282 270.327 868.514C250.211 846.874 231.844 821.79 217.927 795.708C189.567 742.554 176.491 681.575 178.712 621.5Z"/>
	<path fill="#1198D9" transform="scale(0.523386 0.523386)" d="M178.712 621.5C180.918 589.428 188.775 557.85 200.128 527.819C220.436 474.097 250.438 424.689 281.824 376.866L442.053 154C466.976 119.421 490.788 83.7046 512.304 46.8984C529.244 75.1417 546.114 103.381 565.301 130.195L679.713 284.168L731.301 359.417C761.481 404.991 789.983 452.167 811.549 502.5C822.322 527.645 831.643 553.492 837.414 580.273C841.41 598.814 844.31 618.977 842.973 637.986C842.086 639.249 841.732 640.06 841.487 641.585C839.199 655.819 837.986 670.109 834.971 684.25C832.376 696.418 828.672 708.375 824.622 720.126C812.125 756.382 793.673 790.751 768.423 819.768C754.223 836.088 739.098 851.393 722.116 864.849C668.855 907.054 600.96 931.104 533.481 935.652C446.134 941.54 353.887 912.928 287.803 855.038C264.014 834.198 244.382 809.502 227.811 782.689L215.366 761.765C202.303 737.122 192.491 710.135 186.628 682.864C182.287 662.675 180.612 641.826 179.266 621.25L178.712 621.5Z"/>
	<defs>
		<linearGradient id="gradient_0" gradientUnits="userSpaceOnUse" x1="547.1651" y1="523.76959" x2="321.30066" y2="403.44577">
			<stop offset="0" stop-color="#D7E9EB"/>
			<stop offset="1" stop-color="white"/>
		</linearGradient>
	</defs>
	<path fill="url(#gradient_0)" transform="scale(0.523386 0.523386)" d="M357.569 847.965C330.021 829.613 306.337 804.776 287.2 777.858C258.642 737.69 242.148 686.721 240.618 637.5C239.697 607.877 244.123 577.908 252.242 549.463C256.469 534.652 262.164 520.235 268.24 506.096C281.579 475.057 298.018 445.454 315.235 416.433L356.065 350.09L433.968 234.286L476.185 166.243C487.943 145.855 499.979 124.645 507.2 102.152C510.074 93.1967 511.531 83.68 513.093 74.4287C513.54 75.3676 513.355 77.1438 513.408 78.2344L514.016 87.6631C514.666 95.8997 515.913 103.747 517.416 111.863L519.007 122.625C513.581 145.699 501.493 166.807 489.682 187.178L448.65 252.472C409.277 311.042 368.721 369.364 333.518 430.569C312.679 466.8 291.262 504.408 277.668 544.112C253.499 614.699 259.539 690.359 298.497 754.5C314.718 781.208 335.329 804.134 359.789 823.564C366.593 828.968 373.842 834.6 381.494 838.716L381.537 838.817C373.993 843.203 365.532 844.621 357.569 847.965Z"/>
	<path fill="#87C1D0" transform="scale(0.523386 0.523386)" d="M627.776 290.509C633.284 295.914 637.428 304.375 641.601 310.932L666.75 349.917C701.529 405.455 735.944 462.008 760.25 523.066C766.574 538.952 772.501 554.776 776.382 571.468C780.183 587.818 781.799 604.238 781.942 621.009C782.554 693.224 754.846 763.248 703.957 814.746C653.523 865.784 584.193 896.331 512.313 896.709C472.738 896.917 435.831 888.553 399.896 872.031C387.342 866.259 374.316 859.417 363.003 851.442L357.569 847.965C365.532 844.621 373.993 843.203 381.537 838.817L381.494 838.716C386.669 836.066 393.159 834.508 398.638 832.337L450.189 808.985C453.674 807.2 458.95 805.25 461.659 802.506L461.937 802.573C470.985 810.837 480.879 817.937 490.961 824.869C509.712 837.763 529.238 848.957 549.875 858.566L569.97 867.009L588.302 861.293C606.092 855.054 622.772 846.722 638.781 836.773C695.429 801.569 737.662 746.03 752.708 680.735C758.517 655.525 759.797 628.731 757.563 603.009C756.874 595.076 756.155 587.047 754.48 579.25C752.432 569.721 748.84 560.279 745.58 551.111C732.27 513.68 714.424 478.165 695.073 443.547L666.911 395.139L666.71 394.677C666.51 387.981 665.125 381.521 663.634 375.02C658.709 353.55 649.698 333.138 639.579 313.65L632.323 299.824C630.668 296.771 628.648 293.904 627.776 290.509Z"/>
	<path fill="#097C99" transform="scale(0.523386 0.523386)" d="M666.911 395.139L695.073 443.547C714.424 478.165 732.27 513.68 745.58 551.111C748.84 560.279 752.432 569.721 754.48 579.25C756.155 587.047 756.874 595.076 757.563 603.009C759.797 628.731 758.517 655.525 752.708 680.735C737.662 746.03 695.429 801.569 638.781 836.773C622.772 846.722 606.092 855.054 588.302 861.293L569.97 867.009L549.875 858.566C529.238 848.957 509.712 837.763 490.961 824.869C480.879 817.937 470.985 810.837 461.937 802.573L490.65 783.889C514.771 766.815 538.117 746.697 557.922 724.762C570.735 710.57 582.893 696.222 593.833 680.516C623.74 637.582 645.122 589.247 658.033 538.608C664.033 515.076 668.399 490.701 669.737 466.432C670.462 453.266 670.578 439.517 669.638 426.364L666.911 395.139Z"/>
	<path fill="#A5DFF5" transform="scale(0.523386 0.523386)" d="M519.007 122.625C520.974 128.277 523.294 134.627 524.212 140.543C524.785 144.239 524.547 148.206 524.545 151.948L524.491 171.259C523.281 197.707 521.547 224.274 517.806 250.5C511.225 296.643 498.684 341.54 481.318 384.762C468.836 415.831 453.736 446.124 437.891 475.609C424.987 499.622 410.936 523.682 400.164 548.742C382.369 590.144 376.611 633.161 385.335 677.5C392.904 715.973 412.439 751.353 438.697 780.262L461.659 802.506C458.95 805.25 453.674 807.2 450.189 808.985L398.638 832.337C393.159 834.508 386.669 836.066 381.494 838.716C373.842 834.6 366.593 828.968 359.789 823.564C335.329 804.134 314.718 781.208 298.497 754.5C259.539 690.359 253.499 614.699 277.668 544.112C291.262 504.408 312.679 466.8 333.518 430.569C368.721 369.364 409.277 311.042 448.65 252.472L489.682 187.178C501.493 166.807 513.581 145.699 519.007 122.625Z"/>
	<path fill="#1198D9" transform="scale(0.523386 0.523386)" d="M517.416 111.863C518.883 112.832 519.15 113.418 519.813 115C529.115 137.223 541.583 157.298 554.313 177.684L627.776 290.509C628.648 293.904 630.668 296.771 632.323 299.824L639.579 313.65C649.698 333.138 658.709 353.55 663.634 375.02C665.125 381.521 666.51 387.981 666.71 394.677L666.911 395.139L669.638 426.364C670.578 439.517 670.462 453.266 669.737 466.432C668.399 490.701 664.033 515.076 658.033 538.608C645.122 589.247 623.74 637.582 593.833 680.516C582.893 696.222 570.735 710.57 557.922 724.762C538.117 746.697 514.771 766.815 490.65 783.889L461.937 802.573L461.659 802.506L438.697 780.262C412.439 751.353 392.904 715.973 385.335 677.5C376.611 633.161 382.369 590.144 400.164 548.742C410.936 523.682 424.987 499.622 437.891 475.609C453.736 446.124 468.836 415.831 481.318 384.762C498.684 341.54 511.225 296.643 517.806 250.5C521.547 224.274 523.281 197.707 524.491 171.259L524.545 151.948C524.547 148.206 524.785 144.239 524.212 140.543C523.294 134.627 520.974 128.277 519.007 122.625L517.416 111.863Z"/>
	<path fill="#35DAF5" transform="scale(0.523386 0.523386)" d="M517.416 111.863C518.883 112.832 519.15 113.418 519.813 115C529.115 137.223 541.583 157.298 554.313 177.684L627.776 290.509C628.648 293.904 630.668 296.771 632.323 299.824L639.579 313.65C649.698 333.138 658.709 353.55 663.634 375.02C665.125 381.521 666.51 387.981 666.71 394.677C660.669 388.078 655.984 378.321 651.33 370.664L626.246 329.612L609.25 303.666L562.496 231.729L543.565 201.76C537.349 191.566 531.384 181.009 524.491 171.259L524.545 151.948C524.547 148.206 524.785 144.239 524.212 140.543C523.294 134.627 520.974 128.277 519.007 122.625L517.416 111.863Z"/>
</svg>
