<svg xmlns="http://www.w3.org/2000/svg" xml:space="preserve" viewBox="0 0 30 30"><path d="M29.9.1s-.1 0 0 0c-.2-.2-.5-.2-.7-.2-2.6.3-5.3.6-7.9.9-.3 0-.6.1-.7.3-.2.3.1.7.3 1 .6.6 1.1 1.3 1.9 1.5.2.1.4.1.5.3s-.1.5-.3.7l-5 5c-.1.1-.2.2-.4.3s-.5-.1-.7-.2c-4.1-2.6-10-2-13.5 1.4s-4.4 9.2-2 13.4c3.4 6 11.9 7.4 17 2.8 1.3-1.2 2.4-2.7 3-4.4 1.2-3.3.8-7.1-1.1-10-.1-.2-.2-.3-.2-.5 0-.1.1-.3.2-.4l4.9-4.9c.2-.2.4-.4.6-.3s.3.2.4.4c.4.8 1 1.4 1.7 2 .2.1.4.3.6.2.4 0 .5-.4.6-.8L30 .8c0-.2 0-.5-.1-.7M13.7 27c-1 .3-2 .5-3.1.4-5.3-.3-8.9-5.6-7.7-10.7 1.7-6.7 10.8-8.1 14.8-2.8 1.1 1.5 1.7 3.3 1.7 5.1 0 3.8-2.4 6.9-5.7 8" style="fill:#17ace5"/></svg>