<?xml version="1.0" encoding="utf-8"?>
<!-- Generator: Adobe Illustrator 26.1.0, SVG Export Plug-In . SVG Version: 6.00 Build 0)  -->
<svg version="1.1" xmlns="http://www.w3.org/2000/svg" xmlns:xlink="http://www.w3.org/1999/xlink" x="0px" y="0px"
	 viewBox="0 0 30 30" style="enable-background:new 0 0 30 30;" xml:space="preserve">
<style type="text/css">
	.st0{fill:#17ACE5;}
</style>
<g id="Capa_1">
</g>
<g id="Capa_1_copy">
	<path class="st0" d="M29.9,0.1C29.9,0.1,29.8,0.1,29.9,0.1c-0.2-0.2-0.5-0.2-0.7-0.2c-2.6,0.3-5.3,0.6-7.9,0.9
		c-0.3,0-0.6,0.1-0.7,0.3c-0.2,0.3,0.1,0.7,0.3,1c0.6,0.6,1.1,1.3,1.9,1.5c0.2,0.1,0.4,0.1,0.5,0.3c0.1,0.2-0.1,0.5-0.3,0.7
		c-1.7,1.7-3.3,3.3-5,5c-0.1,0.1-0.2,0.2-0.4,0.3c-0.2,0.1-0.5-0.1-0.7-0.2c-4.1-2.6-10-2-13.5,1.4s-4.4,9.2-2,13.4
		c3.4,6,11.9,7.4,17,2.8c1.3-1.2,2.4-2.7,3-4.4c1.2-3.3,0.8-7.1-1.1-10c-0.1-0.2-0.2-0.3-0.2-0.5c0-0.1,0.1-0.3,0.2-0.4
		c1.6-1.6,3.3-3.3,4.9-4.9c0.2-0.2,0.4-0.4,0.6-0.3c0.2,0.1,0.3,0.2,0.4,0.4c0.4,0.8,1,1.4,1.7,2c0.2,0.1,0.4,0.3,0.6,0.2
		C28.9,9.4,29,9,29.1,8.6C29.4,6,29.7,3.4,30,0.8C30,0.6,30,0.3,29.9,0.1z M13.7,27c-1,0.3-2,0.5-3.1,0.4c-5.3-0.3-8.9-5.6-7.7-10.7
		c1.7-6.7,10.8-8.1,14.8-2.8c1.1,1.5,1.7,3.3,1.7,5.1C19.4,22.8,17,25.9,13.7,27z"/>
</g>
</svg>
